<?xml version="1.0" encoding="utf-8"?>
<!-- Designed by Vexels.com - 2020 All Rights Reserved - https://vexels.com/terms-and-conditions/  -->
<svg version="1.1" id="Capa_1" xmlns="http://www.w3.org/2000/svg" xmlns:xlink="http://www.w3.org/1999/xlink" x="0px" y="0px"
	 viewBox="0 0 1200 1200" enable-background="new 0 0 1200 1200" xml:space="preserve">
<g>
	<g>
		<path fill="#28201D" d="M1145.026,854.665c3.924,16.741,7.799,37.704,2.086,54.396c-0.695,2.037-1.962,3.651-3.502,4.868H53.336
			c-0.447-1.639-0.571-3.378-0.397-5.067c-6.408-19.001-1.118-43.765,4.297-62.443c5.514-19.026,14.605-37.208,26.254-53.203
			c25.012-34.401,62.17-59.935,102.507-68.429c-1.416-8.346-1.242-17.163-0.671-25.062c1.267-16.94,4.943-33.532,10.01-49.701
			c9.091-28.912,20.715-57.153,37.58-82.438c15.201-22.777,34.575-40.387,55.091-58.271c18.033-15.698,39.865-26.999,57.004-43.541
			c8.917-8.644,11.053-30.477,15.648-43.815c8.544-24.838,17.089-49.527,26.229-74.316c6.607-17.859,15.226-35.643,29.657-48.087
			c39.741-34.326,81.842,4.247,109.487,33.929c19.871,21.361,47.093,44.858,55.389,74.167c10.457-2.534,21.535-3.378,31.743-4.098
			c16.989-1.167,34.103-0.745,51.092-0.199c14.034,0.447,35.295,5.489,32.762,24.143c-0.248,1.863-0.72,3.701-1.391,5.539
			c22.106-3.453,44.287-2.832,62.667,12.817c16.294,13.86,11.724,27.993,2.484,41.132c11.748,0.05,23.398-0.05,35.37,3.651
			c15.325,4.769,30.899,11.748,43.864,21.286c10.382,7.65,20.442,20.343,20.069,34.004c-0.05,1.465-0.273,2.906-0.646,4.297
			c26.776-1.465,55.414,3.179,78.539,10.382c31.619,9.811,63.412,28.191,86.636,51.986c15.946,16.294,14.058,33.109,2.608,51.713
			c-12.792,20.79-29.682,40.014-47.814,57.625c22.503-1.118,45.206,3.204,65.995,12.345c32.687,14.357,60.084,39.865,78.737,70.118
			C1133.675,819.891,1140.878,836.955,1145.026,854.665z M1123.938,895.176c-1.838-12.742-2.633-25.534-6.756-38.152
			c-5.266-16.045-13.04-31.222-22.802-44.982c-33.358-46.969-96.273-74.664-151.464-50.049
			c-26.006,11.599-45.479,34.649-59.81,58.643c-12.345,20.715-23.696,47.267-22.826,72.379h68.603
			c-2.111-9.687-1.043-21.262,0.472-28.713c3.328-16.219,11.674-34.649,21.386-48.037c7.451-10.258,28.191-8.42,26.776,7.253
			c-1.565,17.71-12.419,32.513-15.077,49.9c-0.795,5.142,0.025,12.668-0.348,19.597h65.921c2.906,0,5.812-0.025,8.743-0.05
			c2.086-10.482,3.353-21.113,1.49-31.743c-2.484-14.158-10.035-26.974-11.45-41.281c-0.969-9.687,13.438-15.449,19.573-8.097
			c18.952,22.727,21.063,52.682,16.468,80.699C1083.328,892.245,1103.844,892.369,1123.938,895.176z M922.426,737.95
			c9.463-11.277,87.729-83.332,82.041-99.676c-5.663-16.344-61.648-45.081-92.125-51.39c-24.019-4.943-54.743-6.831-78.389,1.54
			c-9.016,3.204-17.287-2.161-19.697-11.103c-3.353-12.444,6.607-18.703,14.307-26.552c1.913-1.962,3.9-4.073,4.521-6.756
			c3.527-15.002-38.077-27.198-47.689-29.756c-17.585-4.719-35.842-0.994-53.75-3.651c-10.631-1.59-11.028-15.027-5.688-21.584
			c4.396-5.39,12.692-11.351,15.424-17.71c0.571-1.341,2.285-2.534,2.136-3.949c-0.323-3.353-9.513-6.706-12.22-7.725
			c-19.324-7.377-41.852,0.522-61.077,4.62c-12.394,2.658-21.137-11.674-12.345-21.212c3.304-3.552,6.93-7.427,9.24-11.575
			c-4.744-3.924-13.413-5.166-19.573-5.812c-8.867-0.944-17.834-0.969-26.751-0.397c-17.188,1.143-34.6,4.446-50.596,10.954
			c-3.924,1.615-9.687-1.366-9.687-1.366s-35.717-56.234-53.179-74.862c-8.743-9.29-17.561-18.579-27.496-26.627
			c-7.998-6.483-20.889-17.014-32.041-15.623c-10.631,1.292-17.511,14.307-22.007,22.603
			c-6.831,12.618-49.428,138.523-49.428,138.523s-50.819,34.923-70.193,51.018c-17.66,14.679-32.215,33.159-44.908,52.285
			c-15.251,22.975-24.913,48.286-33.06,74.515c-4.57,14.679-8.718,29.831-9.786,45.206c-0.447,6.607-0.199,13.288-0.323,19.871
			c18.38,0.447,36.91,4.62,54.843,13.313c30.253,14.679,54.594,45.429,71.435,73.645c15.4,25.807,26.229,54.669,25.906,84.599
			c49.254-0.174,98.533-0.273,147.812-0.298h35.519h32.811c-0.82-1.341-1.739-2.683-2.856-4.123
			c-3.105-4.024-0.919-10.184,2.608-12.966c3.9-3.105,9.662-2.707,13.214,0.77c4.794,4.744,8.47,10.184,10.979,16.319h0.497h2.658
			h29.905c-9.563-8.122-18.554-16.915-27.645-25.534c-8.693-8.197,3.949-20.02,12.841-12.841
			c10.035,8.072,19.995,16.195,29.831,24.491c5.613,4.744,13.139,8.37,18.057,13.885h24.118c4.893,0,9.786,0,14.655,0h114.579
			c-0.323-34.476,14.133-67.734,33.407-96.174C878.711,774.089,898.233,751.834,922.426,737.95z M339.82,893.412
			c1.217-29.16-13.81-60.034-29.433-83.134c-15.723-23.174-36.314-43.417-63.462-52.111c-27.322-8.793-56.532-6.508-82.637,5.291
			c-27.024,12.196-49.676,33.258-65.076,58.444c-7.948,12.99-14.158,27.024-18.256,41.679c-3.13,11.078-3.651,22.454-5.216,33.681
			c20.641-0.944,41.306-1.639,61.971-2.111c-5.166-28.763-3.502-59.885,16.021-83.307c6.185-7.402,20.541-1.515,19.573,8.097
			c-1.416,14.282-8.967,27.123-11.45,41.281c-1.962,11.177-0.447,22.404,1.863,33.407c24.515-0.422,49.08-0.646,73.621-0.77
			c-0.745-6.706,1.366-13.388,0.348-20.442c-2.558-17.412-13.537-32.19-15.102-49.9c-1.391-15.698,19.349-17.511,26.8-7.253
			c9.687,13.338,18.033,31.867,21.361,48.037c1.565,7.6,2.633,19.573,0.273,29.384c9.091-0.025,18.206-0.075,27.297-0.124
			C312.15,893.487,325.985,893.462,339.82,893.412z"/>
		<path fill="#28201D" d="M949.822,651.612c1.341,8.296-3.949,16.07-9.141,22.652c-10.979,13.934-22.851,27.148-35.519,39.592
			c-2.31,2.26-4.819,4.595-7.948,5.44c-5.936,1.565-12.047-2.956-14.655-8.495c-2.608-5.539-35.916-93.044-16.94-95.379
			c4.421-0.546,8.842,0.745,13.09,2.037c10.68,3.254,21.336,6.483,32.016,9.737c7.799,1.54,15.251,3.875,21.584,6.979
			c7.278,3.03,13.959,7.352,16.567,13.984C949.301,649.253,949.624,650.395,949.822,651.612z"/>
		<path fill="#28201D" d="M764.529,793.265c3.254,11.525,3.428,24.341-1.788,35.146c-1.763,3.651-4.272,7.178-7.948,8.917
			c-3.651,1.739-8.619,1.167-10.978-2.161c-2.385-3.378-1.316-7.973-0.571-12.047c1.813-9.985,0.869-20.392-2.409-29.98
			c-2.285-6.607-7.551-19.573-14.133-23.05c-0.571-0.323-1.217-0.099-1.615,0.373c0.05,0.745,0.298,1.441,0.646,2.111
			c7.253,14.431,6.582,32.439-1.292,46.547c-4.073,7.302-9.985,13.462-16.94,18.082c-5.812-1.888-11.45-3.403-16.319-4.694
			c-19.026-5.067-38.648-7.675-58.32-6.532c-4.148-4.868-7.402-10.457-9.289-16.542c-4.223-13.736-1.043-29.16,6.831-41.157
			c7.874-12.022,20.044-20.814,33.333-26.304c0.224-0.969,0.472-1.937,0.695-2.906c-6.011-2.111-12.643-0.075-18.43,2.583
			c-10.432,4.794-19.871,11.649-27.67,20.069c-0.671,0.745-1.416,1.515-2.384,1.739c-1.54,0.373-3.005-0.795-4.173-1.863
			c-4.297-3.924-7.899-8.544-4.148-13.86c3.303-4.67,8.097-8.718,12.643-12.146c9.215-6.93,19.995-11.748,31.172-14.58
			c2.161-0.522,4.347-0.994,6.532-1.391c23.87-4.173,49.155,0.695,68.082,16.12c12.668,10.333,23.348,23.398,30.799,38.052
			C760.033,780.026,762.617,786.533,764.529,793.265z M687.133,784.646c6.855-6.831,6.855-17.933,0-24.764
			c-6.831-6.831-17.908-6.831-24.739,0s-6.831,17.933,0,24.764S680.303,791.476,687.133,784.646z"/>
		<path fill="#28201D" d="M485.298,711.1c10.258-10.333,89.492,45.504,86.785,61.45c-2.26,13.264-41.182,7.899-56.581,3.403
			c-6.781,10.68-17.635,20.889-19.647,32.911c-2.086,12.444,4.645,25.211,16.319,30.154c8.321,3.552,13.214,2.658,19.349-4.545
			c4.719-5.539,8.271-12.096,12.518-17.983c6.036-8.321,18.654,0.397,13.139,9.041c-6.806,10.705-12.444,23.298-24.118,29.707
			c-9.662,5.291-19.424,3.477-29.185-0.745c-9.439-4.073-18.654-9.811-23.025-19.523c-2.633-5.837-3.775-12.643-3.726-19.424
			c-5.166,2.186-10.656,3.477-16.418,3.453c-15.698-0.124-31.47-12.444-37.357-26.825c-7.253-17.759,8.023-33.407,17.61-46.522
			c6.061-8.296,18.827,0.472,13.139,9.041c-6.706,10.134-21.609,23.944-11.798,36.015c23.944,29.582,45.032-10.01,59.612-27.198
			C491.756,747.686,477.623,718.824,485.298,711.1z"/>
		<path fill="#28201D" d="M513.787,422.479c1.913,6.88,1.788,14.481-4.073,17.71c-3.602,1.987-74.813,17.039-81.618,15.077
			c-15.822-4.595,8.072-88.076,25.509-94.46c7.75-2.832,15.4,0.373,22.528,6.756c1.639,1.192,3.154,2.608,4.595,4.049
			C493.817,384.75,513.29,420.691,513.787,422.479z"/>
		<path fill="#28201D" d="M497.742,610.182c1.54,11.426,1.018,23.224-2.012,34.351c-1.49,5.489-3.477,11.426-6.582,16.219
			c-3.552,5.464-9.19,3.825-14.431,1.292c-1.441-0.695-3.03-1.615-3.279-3.179c-0.149-0.994,0.323-1.962,0.745-2.881
			c4.943-10.333,7.824-21.659,8.42-33.109c0.323-6.359-0.248-13.288-4.421-18.082c-0.82,0.571-1.639,1.143-2.434,1.714
			c-0.199,14.381-3.85,28.937-12.121,40.71c-8.246,11.748-21.386,20.417-35.717,21.56c-6.657,0.522-13.338-0.571-19.647-2.832
			c-3.924-11.003-7.65-22.106-11.972-32.96c-5.613-14.034-12.295-29.905-21.435-43.392c1.763-3.9,4.024-7.601,6.731-10.929
			c10.209-12.543,26.676-19.821,42.771-18.43c0.77,0.05,1.515,0.025,2.211-0.174c0.273-0.546,0.248-1.242-0.248-1.664
			c-5.663-4.819-19.647-4.918-26.651-4.57c-10.109,0.472-20.119,3.453-28.738,8.842c-3.502,2.186-7.377,4.893-11.426,3.924
			c-3.924-0.969-6.309-5.365-6.061-9.414c0.273-4.049,2.608-7.675,5.34-10.68c8.122-8.818,20.094-13.413,32.016-14.655
			c6.93-0.72,13.959-0.72,20.914-0.075c16.368,1.49,32.464,6.582,46.746,14.53c21.336,11.873,35.221,33.581,40.163,57.302
			C497.071,605.786,497.444,607.971,497.742,610.182z M452.685,620.043c6.831-6.831,6.831-17.908,0-24.739
			c-6.831-6.831-17.908-6.831-24.739,0c-6.855,6.831-6.855,17.908,0,24.739C434.777,626.873,445.855,626.873,452.685,620.043z"/>
		<path fill="#28201D" d="M376.307,692.471c3.701,8.172-3.726,15.251-11.773,11.773c-12.27-5.315-21.51-17.561-30.402-27.198
			c-9.761-10.581-19.101-21.485-28.266-32.563c-7.973-9.612,5.142-23.373,13.934-13.959c9.786,10.507,19.746,20.839,29.756,31.097
			C358.747,671.036,370.818,680.275,376.307,692.471z"/>
		<path fill="#28201D" d="M347.321,710.255c7.327,6.905-0.373,18.281-9.414,16.17c-11.748-2.732-22.305-9.24-32.687-15.127
			c-10.407-5.887-21.038-11.45-30.327-19.051c-7.451-6.135,0.596-18.48,9.24-15.847c11.45,3.477,22.081,9.538,32.737,14.928
			C327.575,696.768,338.504,701.959,347.321,710.255z"/>
	</g>
	<g>
		<path fill="#C7BEB7" d="M1117.182,857.024c4.123,12.618,4.918,25.41,6.756,38.152c-20.094-2.807-40.61-2.931-61.102-2.633
			c4.595-28.018,2.484-57.972-16.468-80.699c-6.135-7.352-20.541-1.59-19.573,8.097c1.416,14.307,8.967,27.123,11.45,41.281
			c1.863,10.631,0.596,21.262-1.49,31.743c-2.931,0.025-5.837,0.05-8.743,0.05h-65.921c0.373-6.93-0.447-14.456,0.348-19.597
			c2.658-17.387,13.512-32.19,15.077-49.9c1.416-15.673-19.324-17.511-26.776-7.253c-9.712,13.388-18.057,31.818-21.386,48.037
			c-1.515,7.451-2.583,19.026-0.472,28.713h-68.603c-0.869-25.112,10.482-51.664,22.826-72.379
			c14.332-23.994,33.805-47.044,59.81-58.643c55.191-24.615,118.106,3.08,151.464,50.049
			C1104.142,825.803,1111.917,840.979,1117.182,857.024z"/>
		<path fill="#C7BEB7" d="M1004.467,638.274c5.688,16.344-72.577,88.399-82.041,99.676c-24.192,13.885-43.715,36.14-59.165,58.891
			c-19.274,28.44-33.73,61.698-33.407,96.174H715.275c-4.868,0-9.761,0-14.655,0h-24.118c-4.918-5.514-12.444-9.141-18.057-13.885
			c-9.836-8.296-19.796-16.418-29.831-24.491c-8.892-7.178-21.535,4.645-12.841,12.841c9.091,8.619,18.082,17.412,27.645,25.534
			h-29.905h-2.658h-0.497c-2.509-6.135-6.185-11.575-10.979-16.319c-3.552-3.477-9.314-3.875-13.214-0.77
			c-3.527,2.782-5.713,8.942-2.608,12.966c1.118,1.441,2.037,2.782,2.856,4.123h-32.811h-35.519
			c-49.279,0.025-98.558,0.124-147.812,0.298c0.323-29.93-10.507-58.792-25.906-84.599c-16.84-28.216-41.182-58.966-71.435-73.645
			c-17.933-8.693-36.463-12.866-54.843-13.313c0.124-6.582-0.124-13.264,0.323-19.871c1.068-15.375,5.216-30.526,9.786-45.206
			c8.147-26.229,17.809-51.539,33.06-74.515c12.692-19.125,27.248-37.605,44.908-52.285c19.374-16.095,70.193-51.018,70.193-51.018
			s42.598-125.905,49.428-138.523c4.496-8.296,11.376-21.311,22.007-22.603c11.152-1.391,24.043,9.14,32.041,15.623
			c9.935,8.048,18.753,17.337,27.496,26.627c17.461,18.629,53.179,74.862,53.179,74.862s5.762,2.981,9.687,1.366
			c15.996-6.508,33.407-9.811,50.596-10.954c8.917-0.571,17.883-0.546,26.751,0.397c6.16,0.646,14.828,1.888,19.573,5.812
			c-2.31,4.148-5.936,8.023-9.24,11.575c-8.793,9.538-0.05,23.87,12.345,21.212c19.225-4.098,41.753-11.997,61.077-4.62
			c2.707,1.018,11.898,4.372,12.22,7.725c0.149,1.416-1.565,2.608-2.136,3.949c-2.732,6.359-11.028,12.32-15.424,17.71
			c-5.34,6.557-4.943,19.995,5.688,21.584c17.908,2.658,36.164-1.068,53.75,3.651c9.612,2.558,51.216,14.754,47.689,29.756
			c-0.621,2.682-2.608,4.794-4.521,6.756c-7.7,7.849-17.66,14.108-14.307,26.552c2.409,8.942,10.68,14.307,19.697,11.103
			c23.646-8.37,54.371-6.483,78.389-1.54C942.818,593.193,998.803,621.93,1004.467,638.274z M940.682,674.265
			c5.191-6.582,10.482-14.357,9.141-22.652c-0.199-1.217-0.522-2.36-0.944-3.453c-2.608-6.632-9.29-10.954-16.567-13.984
			c-6.334-3.105-13.785-5.44-21.584-6.979c-10.68-3.254-21.336-6.483-32.016-9.737c-4.247-1.292-8.669-2.583-13.09-2.037
			c-18.976,2.335,14.332,89.84,16.94,95.379c2.608,5.539,8.718,10.06,14.655,8.495c3.13-0.844,5.638-3.179,7.948-5.44
			C917.831,701.413,929.703,688.199,940.682,674.265z M762.741,828.411c5.216-10.805,5.042-23.621,1.788-35.146
			c-1.913-6.731-4.496-13.239-7.675-19.473c-7.451-14.655-18.132-27.719-30.799-38.052c-18.927-15.425-44.212-20.293-68.082-16.12
			c-2.186,0.397-4.372,0.869-6.532,1.391c-11.177,2.832-21.957,7.65-31.172,14.58c-4.545,3.428-9.339,7.476-12.643,12.146
			c-3.751,5.315-0.149,9.935,4.148,13.86c1.167,1.068,2.633,2.235,4.173,1.863c0.969-0.224,1.714-0.994,2.384-1.739
			c7.799-8.42,17.238-15.276,27.67-20.069c5.787-2.658,12.419-4.694,18.43-2.583c-0.224,0.969-0.472,1.937-0.695,2.906
			c-13.289,5.489-25.459,14.282-33.333,26.304c-7.874,11.997-11.053,27.421-6.831,41.157c1.888,6.085,5.141,11.674,9.289,16.542
			c19.672-1.143,39.294,1.465,58.32,6.532c4.868,1.292,10.507,2.807,16.319,4.694c6.955-4.62,12.866-10.78,16.94-18.082
			c7.874-14.108,8.544-32.116,1.292-46.547c-0.348-0.671-0.596-1.366-0.646-2.111c0.397-0.472,1.043-0.695,1.615-0.373
			c6.582,3.477,11.848,16.443,14.133,23.05c3.279,9.588,4.222,19.995,2.409,29.98c-0.745,4.073-1.813,8.669,0.571,12.047
			c2.36,3.328,7.327,3.9,10.978,2.161C758.469,835.589,760.977,832.062,762.741,828.411z M572.082,772.549
			c2.707-15.946-76.527-71.782-86.785-61.45c-7.675,7.725,6.458,36.587,16.617,52.409c-14.58,17.188-35.668,56.78-59.612,27.198
			c-9.811-12.071,5.092-25.881,11.798-36.015c5.688-8.569-7.079-17.337-13.139-9.041c-9.588,13.115-24.863,28.763-17.61,46.522
			c5.887,14.381,21.659,26.701,37.357,26.825c5.762,0.025,11.252-1.267,16.418-3.453c-0.05,6.781,1.093,13.587,3.726,19.424
			c4.372,9.712,13.587,15.449,23.025,19.523c9.761,4.222,19.523,6.036,29.185,0.745c11.674-6.408,17.312-19.001,24.118-29.707
			c5.514-8.644-7.104-17.362-13.139-9.041c-4.247,5.887-7.799,12.444-12.518,17.983c-6.135,7.203-11.028,8.097-19.349,4.545
			c-11.674-4.943-18.405-17.71-16.319-30.154c2.012-12.022,12.866-22.23,19.647-32.911
			C530.901,780.448,569.822,785.813,572.082,772.549z M509.714,440.189c5.862-3.229,5.986-10.829,4.073-17.71
			c-0.497-1.788-19.97-37.729-33.06-50.869c-1.441-1.441-2.956-2.856-4.595-4.049c-7.129-6.383-14.779-9.588-22.528-6.756
			c-17.436,6.383-41.331,89.865-25.509,94.46C434.901,457.228,506.112,442.176,509.714,440.189z M495.73,644.533
			c3.03-11.128,3.552-22.926,2.012-34.351c-0.298-2.211-0.671-4.396-1.118-6.582c-4.943-23.721-18.827-45.429-40.163-57.302
			c-14.282-7.948-30.377-13.04-46.746-14.53c-6.955-0.646-13.984-0.646-20.914,0.075c-11.922,1.242-23.894,5.837-32.016,14.655
			c-2.732,3.005-5.067,6.632-5.34,10.68c-0.248,4.049,2.136,8.445,6.061,9.414c4.049,0.969,7.923-1.739,11.426-3.924
			c8.619-5.39,18.629-8.37,28.738-8.842c7.004-0.348,20.988-0.248,26.651,4.57c0.497,0.422,0.522,1.118,0.248,1.664
			c-0.695,0.199-1.441,0.224-2.211,0.174c-16.095-1.391-32.563,5.887-42.771,18.43c-2.707,3.328-4.968,7.029-6.731,10.929
			c9.14,13.487,15.822,29.359,21.435,43.392c4.322,10.854,8.048,21.957,11.972,32.96c6.309,2.26,12.99,3.353,19.647,2.832
			c14.332-1.143,27.471-9.811,35.717-21.56c8.271-11.773,11.922-26.329,12.121-40.71c0.795-0.571,1.615-1.143,2.434-1.714
			c4.173,4.794,4.744,11.724,4.421,18.082c-0.596,11.45-3.477,22.777-8.42,33.109c-0.422,0.919-0.894,1.888-0.745,2.881
			c0.248,1.565,1.838,2.484,3.279,3.179c5.241,2.534,10.879,4.173,14.431-1.292C492.252,655.959,494.239,650.022,495.73,644.533z
			 M364.534,704.244c8.048,3.477,15.474-3.602,11.773-11.773c-5.489-12.196-17.561-21.435-26.751-30.849
			c-10.01-10.258-19.97-20.591-29.756-31.097c-8.793-9.414-21.907,4.347-13.934,13.959c9.165,11.078,18.504,21.982,28.266,32.563
			C343.024,686.684,352.264,698.929,364.534,704.244z M337.908,726.425c9.041,2.111,16.741-9.265,9.414-16.17
			c-8.818-8.296-19.746-13.487-30.452-18.927c-10.656-5.39-21.286-11.45-32.737-14.928c-8.644-2.633-16.691,9.712-9.24,15.847
			c9.29,7.6,19.92,13.164,30.327,19.051C315.603,717.185,326.159,723.693,337.908,726.425z"/>
		<path fill="#C7BEB7" d="M310.387,810.279c15.623,23.1,30.65,53.974,29.433,83.134c-13.835,0.05-27.67,0.075-41.505,0.149
			c-9.091,0.05-18.206,0.099-27.297,0.124c2.36-9.811,1.292-21.783-0.273-29.384c-3.328-16.17-11.674-34.699-21.361-48.037
			c-7.451-10.258-28.191-8.445-26.8,7.253c1.565,17.71,12.543,32.488,15.102,49.9c1.018,7.054-1.093,13.736-0.348,20.442
			c-24.54,0.124-49.105,0.348-73.621,0.77c-2.31-11.003-3.825-22.23-1.863-33.407c2.484-14.158,10.035-26.999,11.45-41.281
			c0.969-9.612-13.388-15.499-19.573-8.097c-19.523,23.422-21.187,54.545-16.021,83.307c-20.665,0.472-41.331,1.167-61.971,2.111
			c1.565-11.227,2.086-22.603,5.216-33.681c4.098-14.655,10.308-28.688,18.256-41.679c15.4-25.186,38.052-46.249,65.076-58.444
			c26.105-11.798,55.315-14.083,82.637-5.291C274.073,766.862,294.664,787.105,310.387,810.279z"/>
	</g>
</g>
</svg>
