<?xml version="1.0" encoding="utf-8"?>
<!-- Designed by Vexels.com - 2020 All Rights Reserved - https://vexels.com/terms-and-conditions/  -->

<svg version="1.1" id="Capa_1" xmlns="http://www.w3.org/2000/svg" xmlns:xlink="http://www.w3.org/1999/xlink" x="0px" y="0px"
	 viewBox="0 0 1200 1200" enable-background="new 0 0 1200 1200" xml:space="preserve">
<g>
	<path fill="#28201D" d="M1021.674,778.095c54.697,8.375,131.838,49.338,128.201,113.989c-0.12,2.393-0.718,4.45-1.651,6.245
		c0.12,2.441-0.383,4.881-1.436,7.106H59.972c-1.818-3.158-2.177-7.035-1.053-10.48c-7.537-22.109-9.499-48.548-8.781-71.183
		c0.67-21.463,5.049-43.523,16.199-62.139c10.576-17.682,27.947-33.259,48.979-36.082c12.538-1.675,23.544,1.938,32.661,8.805
		c17.347-30.531,46.49-64.651,82.549-52.233c0.67,0.215,1.316,0.526,1.962,0.79c0-0.526,0-1.053,0-1.555
		c-0.144-20.386,4.929-41.011,11.294-60.296c19.74-59.746,60.416-98.915,62.641-101.69c-4.618-10.456-25.674-56.253-24.119-97.359
		c1.531-41.131,14.38-87.238,14.38-87.238s-5.575-2.728-10.983-5.575c-4.618-2.441-9.116-4.953-9.882-5.934
		c-4.092-5.025-5.168-20.147,4.331-24.238c60.32-25.985,192.733,67.69,235.491,121.693c11.892-3.948,63.191-13.997,110.519-13.591
		c40.293,0.359,77.5,10.552,87.621,13.902c42.758-54.004,175.17-147.654,235.515-121.669c9.475,4.092,8.398,19.19,4.331,24.238
		c-0.79,0.981-5.288,3.493-9.906,5.934c-5.408,2.847-10.983,5.575-10.983,5.575s12.849,46.108,14.404,87.214
		c1.531,41.131-19.525,86.927-24.142,97.359c2.225,2.776,42.901,41.968,62.641,101.714c11.198,33.905,16.558,73.983,19.142,109.61
		c0.813,11.222,1.364,29.957-2.919,44.815C1008.467,776.325,1015.095,777.09,1021.674,778.095z M1120.23,882.657
		c-3.709-28.114-30.746-48.572-54.65-61.253c-29.143-15.481-62.498-19.931-95.11-18.831c-34.288,1.172-67.427,8.949-95.948,28.641
		c-10.337,7.154-20.075,15.361-28.593,24.597c-6.077,6.58-15.17,16.893-14.284,26.798c20.625,0,41.25,0,61.876,0
		c-1.292-7.441-0.263-15.672,1.818-22.3c4.259-13.591,12.322-25.889,22.204-36.034c10.528-10.767,27.779,3.087,20.506,15.84
		c-7.082,12.418-14.811,27.899-12.634,42.495c34.024,0,68.073,0.024,102.121,0.024c-0.598-5.695-0.837-11.509-2.393-17.036
		c-2.823-10.025-8.446-18.4-16.964-24.453c-11.006-7.824-4.594-29,9.858-23.449c15.361,5.91,27.444,16.151,34.479,31.225
		c4.187,8.925,8.255,21.774,7.968,33.307C1080.416,881.843,1100.467,881.508,1120.23,882.657z M970.662,745.291
		c3.35-17.395-3.804-37.183-14.213-51.06c-5.407-7.202-9.068-14.907-15.816-21.175c-16.151-15.074-42.782-25.841-43.643-32.158
		c-1.723-12.633,56.54-0.622,63.024,2.393c-1.723-6.125-7.776-22.491-8.016-22.635c-18.28-11.557-62.665-4.546-68.312-17.419
		c-5.647-12.873,37.637-37.159,40.891-37.566c-7.393-11.389-15.505-22.252-24.142-32.421c-5.384-5.455-10.959-10.695-17.323-15.409
		c-12.299-9.092-25.387-17.251-38.594-24.932c-10.193-5.934-57.616-26.918-92.239-36.345c-16.151-4.403-35.986-2.297-36.154-2.201
		c-18.687,11.318-26.703,33.115-38.236,50.654c-7.322,11.15-25.363,4.283-21.869-9.236c4.474-17.395,7.92-34.958,10.36-52.735
		c-5.647-0.981-10.767-1.795-15.026-2.321c-8.446,27.133-23.473,93.89-34.67,93.818c-11.198-0.096-30.172-67.02-38.594-94.153
		c-4.259,0.55-9.379,1.34-15.05,2.321c2.464,17.802,5.91,35.364,10.384,52.735c3.469,13.543-14.572,20.386-21.893,9.236
		c-11.533-17.539-19.525-39.312-38.236-50.654c-0.168-0.096-20.003-2.201-36.154,2.201c-34.599,9.427-82.046,30.411-92.239,36.345
		c-13.208,7.681-26.296,15.84-38.571,24.956c-6.389,4.714-11.964,9.954-17.347,15.385c-8.638,10.169-16.749,21.056-24.119,32.421
		c3.254,0.407,46.514,24.693,40.868,37.566c-5.647,12.873-50.008,5.862-68.312,17.443c-0.215,0.144-6.293,16.51-7.992,22.635
		c6.46-3.039,64.723-15.05,63-2.417c-0.861,6.317-27.492,17.084-43.643,32.158c-16.151,15.074-21.822,34.455-21.822,34.455
		s6.077,14.835,7.752,17.85c5.79-6.341,12.131-12.083,19.429-15.122c24.382-10.121,51.85,0.622,69.125,19.166
		c14.093-1.34,28.306-0.909,42.375-2.536c11.341-1.292,33.019-5.288,32.086-9.26c-6.03,0.814-20.793-5.216-22.587-5.91
		c-7.896-3.063-14.691-8.518-20.242-14.811c-10.815-12.299-18.256-29.335-18.256-45.653c0-36.776,29.813-66.613,66.613-66.613
		s66.613,29.837,66.613,66.613c0,1.986,2.177,2.967,3.398,1.484c2.153-2.608,4.259-5.24,6.365-7.896
		c16.653-20.984,31.775-44.911,55.607-58.574c12.897-7.417,37.494-9.667,37.494-9.667c14.404,0.215,28.545,2.584,41.442,9.978
		c23.831,13.686,38.977,37.59,55.607,58.598c2.106,2.656,4.235,5.288,6.389,7.896c1.196,1.483,3.374,0.502,3.374-1.483
		c0-36.8,29.837-66.613,66.613-66.613c36.8,0,66.613,29.813,66.613,66.613c0,16.294-7.441,33.354-18.256,45.629
		c-5.551,6.317-12.346,11.748-20.242,14.811c-1.795,0.718-16.558,6.747-22.587,5.91c-2.704,11.581,57.329,8.063,62.163,7.13
		c21.63-4.235,47.591-5.886,71.111-1.22C942.883,727.083,956.066,735.218,970.662,745.291z M950.97,777.019
		c-3.206-4.738-6.819-9.092-11.916-12.801c-20.362-14.859-46.371-9.427-69.843-7.968c-26.057,1.603-53.023,2.919-78.002-6.101
		c-28.473-10.313-53.214-29.526-74.126-51.06c-19.596-20.218-35.221-43.404-53.07-65.058c-7.776-9.427-16.342-18.783-27.277-24.549
		c-7.752-4.091-15.672-4.761-23.999-4.905c0,0-12.299,0.502-20.051,4.594c-10.935,5.742-19.501,15.122-27.277,24.525
		c-17.85,21.654-33.45,44.863-53.07,65.058c-20.912,21.534-45.653,40.772-74.102,51.06c-18.185,6.58-38.068,7.992-57.616,8.398
		c14.213,38.499,6.747,86.879-10.791,124.445c116.334-0.239,232.667-0.096,349.001-0.072c29.239,0,58.478,0,87.717,0
		c-2.465-24.693,22.18-47.782,39.432-61.732C876.676,796.041,912.974,781.9,950.97,777.019z M923.717,417.873
		c0.144-17.969-3.493-49.768-9.092-57.521c-5.575-7.728-90.301,56.205-111.883,86.401c1.914,0.574,3.828,1.125,5.695,1.675
		c18.544,5.479,35.939,13.208,52.496,23.161c14.811,8.925,32.589,19.764,47.376,32.876c2.201-6.628,4.594-13.184,6.771-20.027
		C921.898,462.999,923.573,440.244,923.717,417.873z M792.812,635.49c0-12.729-9.858-23.066-22.013-23.066
		c-12.179,0-22.037,10.337-22.037,23.066c0,12.753,9.858,23.066,22.037,23.066C782.954,658.555,792.812,648.243,792.812,635.49z
		 M482.764,635.49c0-12.729-9.858-23.066-22.037-23.066c-12.155,0-22.013,10.337-22.013,23.066c0,12.753,9.858,23.066,22.013,23.066
		C472.906,658.555,482.764,648.243,482.764,635.49z M420.984,448.116c1.866-0.55,3.78-1.125,5.695-1.675
		c-21.582-30.196-106.308-94.153-111.883-86.401c-5.575,7.728-9.236,39.552-9.092,57.497c0.167,22.372,1.842,45.127,8.638,66.565
		c2.177,6.843,4.57,13.399,6.771,20.027c14.811-13.112,32.565-23.951,47.376-32.852
		C385.046,461.324,402.441,453.572,420.984,448.116z M334.942,882.729c19.525-34.383,29.933-81.974,15.313-119.277
		c-3.828-9.81-10.337-18.615-19.716-23.712c-5.527-3.015-12.035-5.12-18.376-4.714c-2.321,0.167-4.738,0.431-6.891,1.412
		c-0.239,0.215-0.55,0.479-0.981,0.814c-8.518,6.819-15.481,16.797-22.563,25.076c-2.967,3.445-11.7,4.139-17.06-0.024
		c-8.949-6.915-15.026-22.444-16.749-25.506c-5.743-10.097-13.184-22.085-23.927-27.516c-7.082-3.589-21.869-4.235-30.531,1.34
		c-14.141,9.14-30.435,30.435-33.881,48.237c-2.225,11.437-13.351,7.92-14.931,5.168c-19.142-33.067-56.037,3.254-63.861,26.535
		c-5.36,15.911-6.891,32.469-6.389,49.17c0.455,15.289,4.139,30.555,5.264,45.797c23.018-1.651,46.203-1.986,69.341-2.034
		c-10.337-31.345,33.211-59.291,60.918-63.981c39.193-6.604,74.294,23.449,66.541,63.407c9.212-0.048,18.448-0.096,27.66-0.12
		C314.413,882.753,324.678,882.753,334.942,882.729z"/>
	<g>
		<path fill="#FAF4DC" d="M460.727,612.424c12.179,0,22.037,10.337,22.037,23.066c0,12.753-9.858,23.066-22.037,23.066
			c-12.155,0-22.013-10.313-22.013-23.066C438.714,622.76,448.572,612.424,460.727,612.424z"/>
		<path fill="#FAF4DC" d="M770.799,612.424c12.155,0,22.013,10.337,22.013,23.066c0,12.753-9.858,23.066-22.013,23.066
			c-12.179,0-22.037-10.313-22.037-23.066C748.762,622.76,758.62,612.424,770.799,612.424z"/>
		<path fill="#FAF4DC" d="M939.054,764.218c5.096,3.709,8.709,8.063,11.916,12.801c-37.996,4.881-74.294,19.022-104.992,43.835
			c-17.251,13.949-41.896,37.039-39.432,61.732c-29.239,0-58.478,0-87.717,0c-116.334-0.024-232.667-0.167-349.001,0.072
			c17.539-37.566,25.004-85.946,10.791-124.445c19.548-0.407,39.432-1.818,57.616-8.398c28.449-10.289,53.19-29.526,74.102-51.06
			c19.62-20.194,35.221-43.404,53.07-65.058c7.776-9.403,16.342-18.783,27.277-24.525c7.752-4.092,20.051-4.594,20.051-4.594
			c8.327,0.144,16.247,0.814,23.999,4.905c10.935,5.766,19.501,15.122,27.277,24.549c17.85,21.654,33.474,44.839,53.07,65.058
			c20.912,21.534,45.653,40.748,74.126,51.06c24.98,9.021,51.946,7.705,78.002,6.101
			C892.683,754.79,918.692,749.359,939.054,764.218z M791.926,790.011c10.815,1.603,15.529-13.327,4.618-16.725
			c-19.07-5.934-41.442-13.854-61.612-13.112c-8.016,0.311-12.897,12.562-4.45,16.414
			C749.025,785.034,771.899,786.996,791.926,790.011z M773.598,843.919c11.27,4.642,16.917-12.705,7.848-18.663
			c-7.681-5.049-15.529-9.858-23.449-14.572c-7.322-4.355-15.289-9.14-23.879-9.906c-6.58-0.598-9.786,7.322-7.106,12.394
			c4.163,7.872,13.327,13.495,20.793,17.993C756.083,836.119,764.697,840.234,773.598,843.919z M641.473,829.778
			c22.659-3.757,42.542-30.746,26.942-47.878c-4.211-4.618-14.117-5.766-18.902-1.053c-5.862,5.814,1.699,14.667-3.206,21.678
			c-3.063,4.331-9.523,7.082-15.266,5.671c-8.781-2.153-9.332-11.222-14.165-15.864c-2.417-2.345-5.886-3.565-12.011-2.273
			c-12.418,2.608-12.011,19.477-25.841,18.496c-10.959-0.766-15.146-12.131-12.299-19.405c4.331-10.983-13.375-15.05-20.458-7.25
			c-15.601,17.132,4.283,44.122,26.918,47.878c14.452,2.369,25.961-1.962,34.144-9.523
			C615.536,827.816,627.045,832.147,641.473,829.778z M656.355,751.775c6.293-1.842,9.595-8.422,8.111-13.973
			c-1.46-5.551-6.724-9.954-12.753-12.37c-6.006-2.417-12.753-3.158-19.381-3.637c-5.264-0.383-10.552-0.598-15.84-0.646
			l-12.49-0.239c-5.288,0.048-10.576,0.263-15.84,0.646c-6.628,0.479-13.375,1.196-19.381,3.637
			c-6.03,2.417-11.294,6.795-12.753,12.37c-1.484,5.551,1.818,12.131,8.111,13.95c0.167-5.36,7.92-7.035,14.069-6.604
			c18.639,1.364,16.342,28.904,34.886,26.535c12.346-1.603,14.117-22.994,29.191-26.296
			C648.316,743.856,656.188,746.392,656.355,751.775z M489.727,814.919c2.68-5.073-0.526-12.992-7.106-12.418
			c-8.59,0.766-16.558,5.575-23.879,9.93c-7.92,4.69-15.768,9.523-23.449,14.572c-9.044,5.958-3.398,23.305,7.872,18.663
			c8.877-3.685,17.515-7.824,25.77-12.777C476.399,828.414,485.564,822.791,489.727,814.919z M486.257,778.335
			c8.446-3.852,3.565-16.127-4.45-16.414c-20.171-0.742-42.542,7.178-61.612,13.112c-10.911,3.398-6.173,18.328,4.618,16.701
			C444.84,788.743,467.738,786.757,486.257,778.335z"/>
	</g>
	<path fill="#28201D" d="M796.544,773.286c10.911,3.398,6.197,18.328-4.618,16.725c-20.027-3.015-42.901-4.977-61.445-13.423
		c-8.446-3.852-3.565-16.103,4.45-16.414C755.103,759.432,777.474,767.352,796.544,773.286z"/>
	<path fill="#28201D" d="M781.446,825.256c9.068,5.958,3.422,23.305-7.848,18.663c-8.901-3.685-17.515-7.8-25.793-12.753
		c-7.465-4.498-16.629-10.121-20.793-17.993c-2.68-5.073,0.526-12.992,7.106-12.394c8.59,0.766,16.558,5.551,23.879,9.906
		C765.918,815.398,773.766,820.207,781.446,825.256z"/>
	<path fill="#28201D" d="M668.415,781.9c15.601,17.132-4.283,44.122-26.942,47.878c-14.428,2.369-25.937-1.962-34.144-9.523
		c-8.183,7.561-19.692,11.892-34.144,9.523c-22.635-3.757-42.518-30.746-26.918-47.878c7.082-7.8,24.788-3.733,20.458,7.25
		c-2.847,7.274,1.34,18.639,12.299,19.405c13.83,0.981,13.423-15.888,25.841-18.496c6.125-1.292,9.595-0.072,12.011,2.273
		c4.833,4.642,5.384,13.71,14.165,15.864c5.742,1.412,12.203-1.34,15.266-5.671c4.905-7.011-2.656-15.864,3.206-21.678
		C654.298,776.133,664.203,777.282,668.415,781.9z"/>
	<path fill="#28201D" d="M664.467,737.802c1.483,5.551-1.818,12.131-8.111,13.973c-0.167-5.384-8.039-7.92-14.069-6.628
		c-15.074,3.302-16.845,24.693-29.191,26.296c-18.544,2.369-16.247-25.171-34.886-26.535c-6.149-0.431-13.902,1.244-14.069,6.604
		c-6.293-1.818-9.595-8.398-8.111-13.95c1.46-5.575,6.724-9.954,12.753-12.37c6.006-2.441,12.753-3.158,19.381-3.637
		c5.264-0.383,10.552-0.598,15.84-0.646l12.49,0.239c5.288,0.048,10.576,0.263,15.84,0.646c6.628,0.479,13.375,1.22,19.381,3.637
		C657.743,727.848,663.007,732.251,664.467,737.802z"/>
	<path fill="#28201D" d="M482.621,802.501c6.58-0.574,9.786,7.346,7.106,12.418c-4.163,7.872-13.327,13.495-20.793,17.969
		c-8.255,4.953-16.893,9.092-25.77,12.777c-11.27,4.642-16.916-12.705-7.872-18.663c7.681-5.049,15.529-9.882,23.449-14.572
		C466.063,808.076,474.031,803.267,482.621,802.501z"/>
	<path fill="#28201D" d="M481.807,761.921c8.016,0.287,12.897,12.562,4.45,16.414c-18.52,8.422-41.418,10.408-61.445,13.399
		c-10.791,1.627-15.529-13.303-4.618-16.701C439.265,769.099,461.636,761.179,481.807,761.921z"/>
	<g>
		<path fill="#CF957F" d="M914.625,360.352c5.599,7.752,9.236,39.552,9.092,57.521c-0.144,22.372-1.818,45.127-8.638,66.565
			c-2.177,6.843-4.57,13.399-6.771,20.027c-14.787-13.112-32.565-23.951-47.376-32.876c-16.558-9.954-33.953-17.682-52.496-23.161
			c-1.866-0.55-3.78-1.101-5.695-1.675C824.324,416.557,909.05,352.623,914.625,360.352z"/>
		<path fill="#CF957F" d="M426.679,446.442c-1.914,0.55-3.828,1.125-5.695,1.675c-18.544,5.455-35.939,13.208-52.496,23.161
			c-14.811,8.901-32.565,19.74-47.376,32.852c-2.201-6.628-4.594-13.184-6.771-20.027c-6.795-21.439-8.47-44.193-8.638-66.565
			c-0.144-17.945,3.517-49.768,9.092-57.497C320.371,352.288,405.097,416.246,426.679,446.442z"/>
	</g>
	<g>
		<path fill="#DE9B6F" d="M1065.581,821.403c23.903,12.681,50.941,33.139,54.65,61.253c-19.764-1.148-39.815-0.814-59.746-0.431
			c0.287-11.533-3.78-24.382-7.968-33.307c-7.035-15.074-19.118-25.315-34.479-31.225c-14.452-5.551-20.864,15.624-9.858,23.449
			c8.518,6.054,14.141,14.428,16.964,24.453c1.555,5.527,1.795,11.341,2.393,17.036c-34.048,0-68.097-0.024-102.121-0.024
			c-2.177-14.596,5.551-30.076,12.634-42.495c7.274-12.753-9.978-26.607-20.506-15.84c-9.882,10.145-17.945,22.444-22.204,36.034
			c-2.082,6.628-3.111,14.859-1.818,22.3c-20.625,0-41.25,0-61.876,0c-0.885-9.906,8.207-20.218,14.284-26.798
			c8.518-9.236,18.256-17.443,28.593-24.597c28.521-19.692,61.66-27.468,95.948-28.641
			C1003.083,801.472,1036.438,805.923,1065.581,821.403z"/>
		<path fill="#DE9B6F" d="M956.449,694.231c10.408,13.878,17.563,33.665,14.213,51.06c-14.596-10.073-27.779-18.209-45.701-21.798
			c-23.52-4.666-49.481-3.015-71.111,1.22c-4.833,0.933-64.866,4.45-62.163-7.13c6.03,0.837,20.793-5.192,22.587-5.91
			c7.896-3.063,14.691-8.494,20.242-14.811c10.815-12.275,18.256-29.335,18.256-45.629c0-36.8-29.813-66.613-66.613-66.613
			c-36.776,0-66.613,29.813-66.613,66.613c0,1.986-2.177,2.967-3.374,1.483c-2.153-2.608-4.283-5.24-6.389-7.896
			c-16.629-21.008-31.775-44.911-55.607-58.598c-12.897-7.393-27.038-9.762-41.442-9.978c0,0-24.597,2.249-37.494,9.667
			c-23.831,13.662-38.953,37.589-55.607,58.574c-2.106,2.656-4.211,5.288-6.365,7.896c-1.22,1.483-3.398,0.502-3.398-1.484
			c0-36.776-29.813-66.613-66.613-66.613s-66.613,29.837-66.613,66.613c0,16.318,7.441,33.354,18.256,45.653
			c5.551,6.293,12.346,11.748,20.242,14.811c1.795,0.694,16.558,6.724,22.587,5.91c0.933,3.972-20.745,7.968-32.086,9.26
			c-14.069,1.627-28.282,1.196-42.375,2.536c-17.275-18.544-44.744-29.287-69.125-19.166c-7.298,3.039-13.638,8.781-19.429,15.122
			c-1.675-3.015-7.752-17.85-7.752-17.85s5.671-19.381,21.822-34.455c16.151-15.074,42.782-25.841,43.643-32.158
			c1.723-12.634-56.54-0.622-63,2.417c1.699-6.125,7.776-22.492,7.992-22.635c18.304-11.581,62.665-4.57,68.312-17.443
			c5.647-12.873-37.613-37.159-40.868-37.566c7.37-11.365,15.481-22.252,24.119-32.421c5.384-5.431,10.959-10.671,17.347-15.385
			c12.275-9.116,25.363-17.275,38.571-24.956c10.193-5.934,57.64-26.918,92.239-36.345c16.151-4.403,35.986-2.297,36.154-2.201
			c18.711,11.341,26.703,33.115,38.236,50.654c7.322,11.15,25.363,4.307,21.893-9.236c-4.474-17.371-7.92-34.934-10.384-52.735
			c5.671-0.981,10.791-1.771,15.05-2.321c8.422,27.133,27.397,94.057,38.594,94.153c11.198,0.072,26.224-66.685,34.67-93.818
			c4.259,0.526,9.379,1.34,15.026,2.321c-2.441,17.778-5.886,35.34-10.36,52.735c-3.493,13.519,14.548,20.386,21.869,9.236
			c11.533-17.539,19.548-39.336,38.236-50.654c0.167-0.096,20.003-2.201,36.154,2.201c34.623,9.427,82.046,30.411,92.239,36.345
			c13.208,7.681,26.296,15.84,38.594,24.932c6.365,4.714,11.94,9.954,17.323,15.409c8.638,10.169,16.749,21.032,24.142,32.421
			c-3.254,0.407-46.538,24.693-40.891,37.566c5.647,12.873,50.032,5.862,68.312,17.419c0.239,0.144,6.293,16.51,8.016,22.635
			c-6.484-3.015-64.747-15.026-63.024-2.393c0.861,6.317,27.492,17.084,43.643,32.158
			C947.381,679.324,951.042,687.029,956.449,694.231z"/>
		<path fill="#DE9B6F" d="M350.256,763.452c14.619,37.302,4.211,84.893-15.313,119.277c-10.265,0.024-20.529,0.024-30.818,0.072
			c-9.212,0.024-18.448,0.072-27.66,0.12c7.752-39.958-27.349-70.011-66.541-63.407c-27.708,4.69-71.255,32.637-60.918,63.981
			c-23.138,0.048-46.323,0.383-69.341,2.034c-1.125-15.242-4.809-30.507-5.264-45.797c-0.502-16.701,1.029-33.259,6.389-49.17
			c7.824-23.281,44.72-59.602,63.861-26.535c1.579,2.752,12.705,6.269,14.931-5.168c3.446-17.802,19.74-39.097,33.881-48.237
			c8.662-5.575,23.449-4.929,30.531-1.34c10.743,5.431,18.185,17.419,23.927,27.516c1.723,3.063,7.8,18.591,16.749,25.506
			c5.36,4.163,14.093,3.469,17.06,0.024c7.082-8.279,14.045-18.256,22.563-25.076c0.431-0.335,0.742-0.598,0.981-0.814
			c2.153-0.981,4.57-1.244,6.891-1.412c6.341-0.407,12.849,1.699,18.376,4.714C339.919,744.837,346.427,753.642,350.256,763.452z
			 M312.523,810.158c14.356-4.45,19.405-21.128,15.218-34.455c-2.823-8.997-10.145-15.935-19.931-16.127
			c-8.087-0.144-15.768,4.45-19.812,11.389c-2.608,4.427-3.996,9.954-4.092,15.433c-0.263,1.125-0.431,2.321-0.55,3.565
			C282.135,805.253,299.435,814.225,312.523,810.158z M224.782,789.461c11.461-13.447,10.48-39.336-5.192-49.266
			c-8.111-5.144-19.261-5.479-26.439,1.029c-10.6,9.595-11.461,29.909-10.097,36.68
			C187.025,797.596,211.215,805.348,224.782,789.461z M131.418,822.289c4.092-6.987,5.168-16.27,4.57-24.214
			c-0.694-9.092-4.068-18.017-12.538-22.611c-5.766-3.158-13.327-3.23-19.07,0.144c-5.312,3.111-7.992,7.944-10.169,13.447
			c-2.177,5.479-3.374,11.365-2.728,17.084c-0.79,9.188,3.015,19.094,11.318,23.879
			C112.827,835.831,125.604,832.218,131.418,822.289z"/>
	</g>
	<path fill="#28201D" d="M327.74,775.703c4.187,13.327-0.861,30.005-15.218,34.455c-13.088,4.068-30.387-4.905-29.167-20.195
		c0.12-1.244,0.287-2.441,0.55-3.565c0.096-5.479,1.483-11.006,4.092-15.433c4.044-6.939,11.724-11.533,19.812-11.389
		C317.595,759.767,324.917,766.706,327.74,775.703z"/>
	<path fill="#28201D" d="M219.59,740.195c15.672,9.93,16.653,35.819,5.192,49.266c-13.567,15.888-37.757,8.135-41.729-11.557
		c-1.364-6.771-0.502-27.085,10.097-36.68C200.328,734.715,211.478,735.05,219.59,740.195z"/>
	<path fill="#28201D" d="M135.988,798.074c0.598,7.944-0.479,17.227-4.57,24.214c-5.814,9.93-18.591,13.543-28.617,7.728
		c-8.303-4.785-12.107-14.691-11.318-23.879c-0.646-5.719,0.55-11.605,2.728-17.084c2.177-5.503,4.857-10.336,10.169-13.447
		c5.743-3.374,13.303-3.302,19.07-0.144C131.921,780.057,135.295,788.982,135.988,798.074z"/>
</g>
</svg>