<?xml version="1.0" encoding="utf-8"?>
<!-- Designed by Vexels.com - 2020 All Rights Reserved - https://vexels.com/terms-and-conditions/  -->
<svg version="1.1" id="Capa_1" xmlns="http://www.w3.org/2000/svg" xmlns:xlink="http://www.w3.org/1999/xlink" x="0px" y="0px"
	 viewBox="0 0 1200 1200" enable-background="new 0 0 1200 1200" xml:space="preserve">
<g>
	<g>
		<path fill="#DE9B6F" d="M920.769,684.287c-1.692,5.846-2.819,11.96-4.57,17.599c-4.274,13.77-10.031,27.066-15.551,40.362
			c-0.683,1.632-1.425,3.354-2.226,5.134c-22.318-29.826-65.053-37.839-101.794-36.711c-36.266,1.128-89.152,26.354-113.458-12.168
			c-25.582-40.54-31.221-95.473-29.945-142.245c1.246-45.496,10.447-99.094,41.964-134.143
			c17.154-19.112,40.718-32.645,63.688-43.507c19.587-9.23,45.08-20.3,67.813-18.549c41.905,16.026,24.603,103.842,24.128,132.511
			c-0.831,48.048,15.551,95.592,37.364,137.793C897.888,649.149,908.631,667.312,920.769,684.287z M840.076,689.214
			c5.045-3.443,7.568-11.693,2.077-16.263c-8.963-7.479-21.635-8.666-34.04-8.132c5.461-10.268,8.607-22.585,8.607-35.821
			c-0.03-35.791-23.267-64.757-51.877-64.727s-51.787,29.054-51.758,64.816c0.03,22.733,9.408,42.676,23.564,54.221
			c-0.326,0.237-0.683,0.445-1.009,0.683c-14.008,10.328-1.899,32.823,13.948,23.861c14.809-8.369,29.559-13.058,46.624-14.008
			C810.22,693.072,827.938,697.524,840.076,689.214z M794.55,525.987c7.746,2.255,16.679-7.449,11.278-14.661
			c-10.892-14.601-27.571-21.16-45.437-18.43c-14.364,2.166-32.082,6.499-36.86,22.08c-2.523,8.28,7.39,15.937,14.779,11.337
			c8.428-5.253,15.136-8.518,25.374-9.111C775.705,516.49,783.57,522.811,794.55,525.987z"/>
		<path fill="#DE9B6F" d="M548.344,545.93c2.76,46.742-2.048,98.233-22.822,140.909c-9.259,19.083-20.863,32.289-42.944,32.823
			c-21.338,0.505-42.231-5.639-63.332-7.776c-39.946-4.036-90.457,2.671-115.298,36.058c-0.772-1.781-1.543-3.502-2.226-5.134
			c-5.253-12.583-10.654-25.167-14.898-38.165c-2.107-6.41-3.354-13.592-5.431-20.359c2.968-4.303,5.876-8.666,8.696-13.118
			c29.292-46.238,51.639-97.58,56.981-152.454c3.057-31.102-9.823-135.004,32.2-161.684c0.445-0.059,0.92-0.089,1.395-0.178
			c21.427-3.561,45.555,8.399,63.718,18.222c20.923,11.337,40.836,25.048,57.456,42.172
			C534.307,450.665,545.703,500.82,548.344,545.93z M471.925,677.521c10.536-11.871,17.183-29.084,17.154-48.226
			c-0.03-35.762-23.267-64.757-51.877-64.727c-28.609,0.03-51.788,29.054-51.758,64.846c0.03,14.364,3.769,27.63,10.12,38.373
			c-6.677,1.306-12.91,3.65-18.074,7.597c-6.737,5.194-7.152,17.005,2.552,19.439c14.631,3.65,30.182-0.356,45.169,0.742
			c15.759,1.187,30.924,9.022,46.446,8.785c10.357-0.148,16.204-13.266,8.577-20.715
			C477.741,681.231,474.952,679.242,471.925,677.521z M465.277,526.551c8.814,0.564,13.83-9.972,9.794-17.035
			c-15.136-26.502-64.49-17.421-77.459,6.529c-4.986,9.2,4.808,17.658,13.622,13.592c8.488-3.947,17.183-7.865,26.71-8.369
			C447.708,520.734,455.75,525.957,465.277,526.551z"/>
	</g>
	<g>
		<path fill="#28201D" d="M1148.664,434.847c5.698,22.941-8.221,53.776-15.61,75.114c-17.391,50.155-42.617,108.59-21.249,161.12
			c11.604,28.55,50.304,92.416,4.481,110.846c-8.814,3.532-18.548,4.036-28.045,4.274c-18.845,0.475-38.017-0.089-54.518-9.853
			c-11.693-6.945-23.06-14.394-34.307-21.991c-16.441-11.129-32.675-22.525-48.731-34.159c0,0-5.906,17.421-8.488,24.247
			c-4.363,11.515-9.378,22.792-14.008,34.189c11.367-1.899,22.971-2.493,34.604-1.603c38.076,2.908,71.375,21.13,101.616,43.715
			c41.104,30.657,50.719,98.174,46.92,101.349c-5.935,4.956-41.43,19.083-148.18,27.274c-51.313,6.44-101.854-4.155-151.208-17.272
			c-6.173-1.632-9.527-6.648-11.07-13.207c-33.031,20.032-79.15,23.149-115.238,19.765c-8.488-0.801-25.404-4.541-25.404-4.541
			s-25.731,21.665-59.741,21.694c-34.04,0.03-61.136-19.558-61.136-19.558s-41.489,6.856-73.155,3.947
			c-38.195-3.472-71.493-16.174-76.004-18.489c-1.543,11.367-9.408,18.37-23.712,21.813
			c-35.198,8.458-100.221,13.622-125.507,12.465c-30.983-1.454-62.086-4.57-92.535-10.536c-11.07-2.167-22.347-4.392-32.942-8.339
			c-9.764-3.621-18.163-9.111-24.128-14.067c-3.828-3.205-4.956-6.856-4.333-10.268c-0.326-0.979-0.564-2.048-0.623-3.205
			c-1.81-35.435,25.938-67.161,51.698-87.965c29.411-23.772,63.421-40.777,101.527-43.893c11.634-0.95,23.267-0.386,34.634,1.484
			c-4.659-11.367-9.705-22.614-14.067-34.1c-2.582-6.707-5.787-14.987-8.428-23.742c-20.863,22.318-45.14,41.015-74.135,54.073
			c-28.876,12.999-89.745,33.387-110.876-2.997c-11.188-19.261-2.463-43.359,5.372-62.115
			c4.481-10.684,58.465-88.291,74.758-120.491c17.45-34.545,35.465-75.915,35.435-115.268c0-10.268-16.204-16.234-20.774-5.609
			c-14.987,34.782-23.445,71.672-40.391,105.89c-7.865,15.878-29.173,25.256-31.577,15.047
			c-9.319-39.442-27.333-77.162-36.474-116.603c-5.194-22.407-4.956-37.898,9.022-56.625c10.684-14.334,24.425-28.491,39.887-37.691
			c21.694-12.88,49.176-19.854,72.829-28.58c27.096-10.001,54.726-18.578,81.584-29.143c23.06-9.111,49.027-22.229,74.402-21.665
			c16.56,0.356,31.013,7.894,42.202,19.112c5.936-5.134,12.138-10.031,18.638-14.601c83.839-59.118,197.416-72.562,295.738-49.74
			c45.763,10.625,96.363,31.191,135.182,62.768c14.008-15.492,33.625-24.603,55.497-21.368c29.559,4.363,56.684,18.905,84.73,28.491
			c31.874,10.862,63.599,21.961,95.058,33.981c23.059,8.814,42.113,15.759,60.246,32.764
			C1130.62,402.676,1144.45,417.723,1148.664,434.847z M1074.974,453.247c8.28,4.659,19.914-3.146,16.708-12.88
			c-7.182-21.783-29.351-38.284-47.84-50.452c-20.448-13.444-43.656-22.585-67.606-27.303c-17.985-3.561-18.489,17.005-7.063,24.662
			c18.905,12.702,43.507,17.005,62.857,31.162C1046.899,429.327,1058.83,444.166,1074.974,453.247z M1076.547,905.267
			c4.125-0.831-7.479-38.729-9.942-41.638c-10.269-12.168-22.466-22.733-35.969-31.162c-19.558-12.198-43.151-17.599-65.469-17.569
			c-21.516,0.03-43.211,4.6-63.006,11.96c-19.617,7.271-42.647,29.262-53.212,47.217c-7.805,13.236-11.841,24.395-12.524,27.096
			c0.564,0.326,1.068,0.683,1.573,1.068c7.212,2.285,37.453,11.752,45.793,12.821c3.146,0.416,6.262,0.772,9.408,1.068
			c-0.801-24.187,7.687-52.47,30.716-58.673c6.618-1.81,14.572,3.383,14.127,10.714c-0.712,10.803-7.182,18.994-10.981,28.876
			c-2.493,6.44-4.244,13.652-4.778,20.804c14.305,0.386,28.609,0.119,42.795-0.386c13.503-0.505,27.007-1.276,40.48-2.404
			c-1.514-5.223-2.701-10.565-4.006-15.848c-3.057-12.346-8.636-22.466-14.186-33.773c-4.719-9.586,5.461-22.852,15.878-15.907
			c20.151,13.503,29.737,38.344,33.833,62.264c2.641-0.326,5.283-0.594,7.894-0.95
			C1055.595,909.422,1066.041,907.345,1076.547,905.267z M916.199,701.886c1.751-5.639,2.879-11.752,4.57-17.599
			c-12.138-16.976-22.881-35.138-32.586-53.924c-21.813-42.202-38.195-89.745-37.364-137.793
			c0.475-28.669,17.777-116.485-24.128-132.511c-22.733-1.751-48.226,9.319-67.813,18.549
			c-22.971,10.862-46.535,24.395-63.688,43.507c-31.518,35.049-40.718,88.647-41.964,134.143
			c-1.276,46.772,4.363,101.705,29.945,142.245c24.306,38.522,77.192,13.296,113.458,12.168
			c36.741-1.128,79.477,6.885,101.794,36.711c0.801-1.781,1.543-3.502,2.226-5.134C906.168,728.952,911.925,715.657,916.199,701.886
			z M885.305,783.708c-1.395-9.942-6.677-20.478-14.928-26.532c-15.818-11.604-42.706-15.047-53.984-15.462
			c-27.422-1.039-52.233,7.182-79.032,11.129c-23.534,3.472-46.535,1.603-65.736-13.711c-20.507-16.323-31.28-42.32-39.115-66.656
			c-17.124-53.123-19.469-111.588-10.476-166.432c8.517-52.144,30.271-100.993,73.155-133.312
			c25.226-18.994,57.604-37.542,90.932-45.763c-76.153-48.286-174.89-62.501-262.35-43.27c-32.675,7.182-69.95,20.062-102.091,39.62
			c41.935,11.01,82.563,41.074,108.68,70.128c35.138,39.056,49.265,92.891,53.509,144.115c4.392,52.915-1.87,108.947-22.792,158.034
			c-9.853,23.06-24.484,45.051-48.79,54.399c-22.021,8.488-45.733,4.155-68.081-0.742c0-1.959-33.447-5.787-36.593-6.114
			c-13.029-1.306-26.235-1.662-39.204,0.178c-12.287,1.721-24.484,5.431-34.782,12.524c-5.134,3.502-9.734,7.805-13.503,12.761
			c-5.579,7.301,0.712,25.79,0.712,25.79s20.032,13.652,38.047,37.216c14.394,18.845,27.482,48.078,27.986,51.966
			c11.663,10.595,23.534,19.35,40.688,23.742c23.06,5.906,48.849,6.203,72.532,5.075c36.771-1.721,72.681-17.005,87.134-49.413
			c0.475-13.414-1.84-28.906-8.636-36.385c-8.339-9.17-23.594-6.945-28.52,6.054c-2.73,7.241,3.443,23.089-1.781,27.867
			c-5.194,4.808-14.216-4.214-20.596-7.657c-25.018-13.474-34.753-42.944-22.288-65.706c6.203-15.699,23.623-21.902,38.848-24.959
			c19.765-3.947,40.005-4.57,60.097-4.719c23.712-0.208,47.9,0.267,70.277,8.102c26.532,9.289,36.414,36.682,24.514,61.878
			c-5.995,12.613-21.694,31.725-27.333,26.769c-8.399-7.39-1.632-22.377-10.476-30.39c-10.268-9.319-22.911-2.107-28.402,8.458
			c-5.817,11.159-8.221,21.279-7.835,30.39c4.214,9.645,8.903,19.023,17.124,26.621c14.156,13.177,33.743,16.916,52.44,17.718
			c39.442,1.662,73.838-7.152,108.739-23.356c0.564-2.167,12.702-33.209,32.972-58.109
			C854.677,803.057,881.09,786.497,885.305,783.708z M640.583,795.341c4.511-4.214,3.265-12.287-1.959-15.699
			c-11.218-7.36-26.799-6.499-39.442-4.303c-5.431,0.95-12.672,1.543-16.352,6.025c-18.489,22.407,41.756,20.27,51.135,17.421
			C636.368,798.042,638.743,797.063,640.583,795.341z M634.469,922.955c-5.757-3.65-11.07-8.043-15.699-13.355
			c-4.452-5.134-8.577-10.981-12.198-17.243c-4.274,6.618-9.378,12.672-14.987,17.807c-7.687,7.034-16.026,12.465-24.84,16.738
			C586.599,942.246,611.944,932.808,634.469,922.955z M525.522,686.84c20.774-42.676,25.582-94.167,22.822-140.909
			c-2.641-45.11-14.037-95.265-46.505-128.682c-16.619-17.124-36.533-30.835-57.456-42.172
			c-18.163-9.823-42.291-21.783-63.718-18.222c-0.475,0.089-0.95,0.119-1.395,0.178c-42.024,26.68-29.143,130.582-32.2,161.684
			c-5.342,54.874-27.689,106.216-56.981,152.454c-2.819,4.452-5.728,8.814-8.696,13.118c2.077,6.766,3.324,13.948,5.431,20.359
			c4.244,12.999,9.645,25.582,14.898,38.165c0.683,1.632,1.454,3.354,2.226,5.134c24.84-33.387,75.352-40.095,115.298-36.058
			c21.101,2.137,41.994,8.28,63.332,7.776C504.659,719.129,516.263,705.922,525.522,686.84z M318.877,915.417
			c13.296-1.543,26.621-3.086,39.916-4.6c-5.223-23.208-11.07-47.633-27.6-64.727c-11.04-11.396-25.82-18.37-40.747-23.742
			c-25.909-9.348-54.28-14.661-81.05-8.072c-21.487,5.312-40.124,18.014-55.438,33.714c-12.524,12.85-35.88,37.631-37.72,55.675
			c15.462,5.194,33.12,6.856,49.324,8.785c2.612-19.914,11.159-39.056,24.276-54.28c3.176-3.739,6.856-7.36,11.515-8.844
			c4.659-1.484,10.565-0.208,12.969,4.036c2.345,4.125,0.801,9.23-0.742,13.681c-5.668,16.056-11.307,32.111-16.946,48.167
			c28.134,3.265,56.536,4.155,84.819,2.671c-4.867-13.889-9.734-27.749-14.572-41.608c-1.276-3.621-2.552-7.568-1.395-11.218
			c1.424-4.6,6.499-7.36,11.337-7.241c4.808,0.089,9.289,2.552,12.999,5.579c15.165,12.346,19.765,33.536,20.032,53.093
			C312.882,916.129,315.879,915.773,318.877,915.417z"/>
		<path fill="#28201D" d="M842.153,672.951c5.49,4.57,2.968,12.821-2.077,16.263c-12.138,8.31-29.856,3.858-43.864,4.63
			c-17.065,0.95-31.814,5.639-46.624,14.008c-15.848,8.963-27.956-13.533-13.948-23.861c0.326-0.237,0.683-0.445,1.009-0.683
			c-14.156-11.545-23.534-31.488-23.564-54.221c-0.03-35.762,23.149-64.786,51.758-64.816s51.847,28.936,51.877,64.727
			c0,13.236-3.146,25.552-8.607,35.821C820.518,664.285,833.191,665.472,842.153,672.951z M776.328,625.852
			c9.883,0,17.866-8.013,17.866-17.896c0-9.853-8.013-17.866-17.896-17.836c-9.853,0-17.866,8.013-17.836,17.866
			C758.462,617.869,766.475,625.852,776.328,625.852z"/>
		<path fill="#28201D" d="M830.134,775.071c5.787,5.609,7.716,14.958,4.392,22.318c-3.591,7.924-12.465,12.494-21.219,12.524
			c-0.979,0-1.988-0.059-2.997-0.178c-4.541-0.564-9.111-2.345-12.168-5.787c-9.259-10.476-2.493-28.105,9.467-33.031
			C815.087,767.83,824.317,769.462,830.134,775.071z"/>
		<path fill="#28201D" d="M805.828,511.326c5.401,7.212-3.532,16.916-11.278,14.661c-10.981-3.175-18.845-9.497-30.865-8.785
			c-10.239,0.594-16.946,3.858-25.374,9.111c-7.39,4.6-17.302-3.057-14.779-11.337c4.778-15.581,22.496-19.914,36.86-22.08
			C778.257,490.166,794.936,496.725,805.828,511.326z"/>
		<path fill="#28201D" d="M786.063,850.304c0.415,11.93-19.854,21.843-31.162,17.896c-1.217-0.445-2.345-1.009-3.324-1.781
			c-18.934-14.958,10.328-47.069,28.253-30.331C783.688,839.709,785.855,844.992,786.063,850.304z"/>
		<path fill="#28201D" d="M768.612,786.111c0.059,2.79-0.564,5.55-1.692,8.072c-3.205,7.093-10.447,12.465-18.281,12.613
			c-26.087,0.445-26.799-40.213-0.712-40.688C758.581,765.931,768.434,775.457,768.612,786.111z"/>
		<path fill="#28201D" d="M489.078,629.295c0.03,19.142-6.618,36.355-17.154,48.226c3.027,1.721,5.817,3.71,8.31,6.114
			c7.627,7.449,1.781,20.567-8.577,20.715c-15.521,0.237-30.687-7.597-46.446-8.785c-14.987-1.098-30.538,2.908-45.169-0.742
			c-9.705-2.434-9.289-14.245-2.552-19.439c5.164-3.947,11.396-6.292,18.074-7.597c-6.351-10.743-10.09-24.009-10.12-38.373
			c-0.03-35.791,23.149-64.816,51.758-64.846C465.811,564.538,489.049,593.533,489.078,629.295z M448.034,629.028
			c9.853-0.03,17.866-8.013,17.836-17.896c0-9.883-8.013-17.866-17.896-17.866c-9.853,0.03-17.866,8.043-17.836,17.896
			C430.138,621.044,438.151,629.028,448.034,629.028z"/>
		<path fill="#28201D" d="M475.07,509.516c4.036,7.063-0.979,17.599-9.794,17.035c-9.527-0.594-17.569-5.817-27.333-5.283
			c-9.527,0.505-18.222,4.422-26.71,8.369c-8.814,4.066-18.608-4.392-13.622-13.592C410.581,492.095,459.935,483.014,475.07,509.516
			z"/>
		<path fill="#28201D" d="M453.881,766.109c10.654,0.059,20.299,9.764,20.27,20.418c-0.03,6.826-4.036,13.266-9.705,16.976
			c-3.176,2.077-6.885,3.324-10.714,3.294C427.705,806.708,427.853,766.02,453.881,766.109z"/>
		<path fill="#28201D" d="M455.038,844.784c1.454,3.532,2.196,7.419,1.751,11.218c-0.801,7.063-6.054,13.325-12.732,15.699
			c-6.707,2.345-14.572,0.772-20.062-3.739c-11.634-9.616-10.387-29.47,4.185-35.524c2.404-1.009,4.986-1.484,7.568-1.484
			c4.63,0.03,9.259,1.632,12.791,4.6C451.417,838.018,453.584,841.282,455.038,844.784z"/>
		<path fill="#28201D" d="M408.147,791.097c0.148,4.986-1.484,10.12-5.016,13.622c-3.265,3.235-7.894,4.837-12.494,5.164
			c-6.232,0.475-12.702-1.276-17.51-5.283c-14.958-12.405-3.917-36.83,15.017-35.227c3.057,0.267,5.965,1.246,8.547,2.79
			C403.28,776.051,407.969,783.381,408.147,791.097z"/>
	</g>
	<g>
		<path fill="#FAF4DC" d="M1091.683,440.367c3.205,9.734-8.428,17.539-16.708,12.88c-16.145-9.081-28.075-23.92-42.943-34.812
			c-19.35-14.156-43.953-18.46-62.857-31.162c-11.426-7.657-10.921-28.223,7.063-24.662c23.95,4.719,47.158,13.859,67.606,27.303
			C1062.332,402.083,1084.501,418.583,1091.683,440.367z"/>
		<path fill="#FAF4DC" d="M1066.605,863.629c2.463,2.908,14.067,40.807,9.942,41.638c-10.506,2.077-20.953,4.155-31.577,5.579
			c-2.612,0.356-5.253,0.623-7.894,0.95c-4.096-23.92-13.681-48.76-33.833-62.264c-10.417-6.945-20.596,6.321-15.878,15.907
			c5.55,11.307,11.129,21.427,14.186,33.773c1.306,5.283,2.493,10.625,4.006,15.848c-13.474,1.128-26.977,1.899-40.48,2.404
			c-14.186,0.505-28.491,0.772-42.795,0.386c0.534-7.152,2.285-14.364,4.778-20.804c3.799-9.883,10.268-18.074,10.981-28.876
			c0.445-7.33-7.508-12.524-14.127-10.714c-23.03,6.203-31.518,34.485-30.716,58.673c-3.146-0.297-6.262-0.653-9.408-1.068
			c-8.339-1.068-38.581-10.536-45.793-12.821c-0.505-0.386-1.009-0.742-1.573-1.068c0.683-2.701,4.719-13.859,12.524-27.096
			c10.565-17.955,33.595-39.946,53.212-47.217c19.795-7.36,41.489-11.93,63.006-11.96c22.318-0.03,45.911,5.372,65.469,17.569
			C1044.139,840.896,1056.337,851.462,1066.605,863.629z"/>
		<path fill="#FAF4DC" d="M870.377,757.176c8.25,6.054,13.533,16.59,14.928,26.532c-4.214,2.79-30.627,19.35-48.938,41.846
			c-20.27,24.9-32.408,55.942-32.972,58.109c-34.901,16.204-69.297,25.018-108.739,23.356c-18.697-0.801-38.284-4.541-52.44-17.718
			c-8.221-7.597-12.91-16.976-17.124-26.621c-0.386-9.111,2.018-19.231,7.835-30.39c5.49-10.565,18.133-17.777,28.402-8.458
			c8.844,8.013,2.077,23,10.476,30.39c5.639,4.956,21.338-14.156,27.333-26.769c11.901-25.196,2.018-52.589-24.514-61.878
			c-22.377-7.835-46.564-8.31-70.277-8.102c-20.092,0.148-40.332,0.772-60.097,4.719c-15.225,3.057-32.645,9.259-38.848,24.959
			c-12.465,22.763-2.73,52.233,22.288,65.706c6.381,3.443,15.403,12.465,20.596,7.657c5.223-4.778-0.95-20.626,1.781-27.867
			c4.927-12.999,20.181-15.225,28.52-6.054c6.796,7.479,9.111,22.971,8.636,36.385c-14.453,32.408-50.363,47.692-87.134,49.413
			c-23.683,1.128-49.473,0.831-72.532-5.075c-17.154-4.392-29.025-13.147-40.688-23.742c-0.505-3.888-13.592-33.12-27.986-51.966
			c-18.014-23.564-38.047-37.216-38.047-37.216s-6.292-18.489-0.712-25.79c3.769-4.956,8.369-9.259,13.503-12.761
			c10.298-7.093,22.496-10.803,34.782-12.524c12.969-1.84,26.176-1.484,39.204-0.178c3.146,0.326,36.593,4.155,36.593,6.114
			c22.347,4.897,46.06,9.23,68.081,0.742c24.306-9.348,38.937-31.34,48.79-54.399c20.923-49.087,27.185-105.118,22.792-158.034
			c-4.244-51.224-18.37-105.059-53.509-144.115c-26.116-29.054-66.745-59.118-108.68-70.128
			c32.141-19.558,69.416-32.438,102.091-39.62c87.46-19.231,186.198-5.016,262.35,43.27c-33.328,8.221-65.706,26.769-90.932,45.763
			c-42.884,32.319-64.638,81.168-73.155,133.312c-8.992,54.844-6.648,113.309,10.476,166.432
			c7.835,24.336,18.608,50.333,39.115,66.656c19.201,15.314,42.202,17.183,65.736,13.711c26.799-3.947,51.609-12.168,79.032-11.129
			C827.671,742.129,854.558,745.572,870.377,757.176z M834.526,797.389c3.324-7.36,1.395-16.708-4.392-22.318
			c-5.817-5.609-15.047-7.241-22.525-4.155c-11.96,4.927-18.727,22.555-9.467,33.031c3.057,3.443,7.627,5.223,12.168,5.787
			c1.009,0.119,2.018,0.178,2.997,0.178C822.061,809.883,830.935,805.313,834.526,797.389z M754.901,868.2
			c11.307,3.947,31.577-5.965,31.162-17.896c-0.208-5.312-2.374-10.595-6.232-14.216c-17.925-16.738-47.188,15.373-28.253,30.331
			C752.556,867.191,753.684,867.755,754.901,868.2z M766.92,794.184c1.128-2.523,1.751-5.283,1.692-8.072
			c-0.178-10.654-10.031-20.181-20.685-20.003c-26.087,0.475-25.374,41.133,0.712,40.688
			C756.474,806.648,763.715,801.277,766.92,794.184z M474.15,786.527c0.03-10.654-9.616-20.359-20.27-20.418
			c-26.027-0.089-26.176,40.599-0.148,40.688c3.828,0.03,7.538-1.217,10.714-3.294C470.114,799.793,474.121,793.353,474.15,786.527z
			 M456.789,856.002c0.445-3.799-0.297-7.687-1.751-11.218c-1.454-3.502-3.621-6.766-6.499-9.23c-3.532-2.968-8.161-4.57-12.791-4.6
			c-2.582,0-5.164,0.475-7.568,1.484c-14.572,6.054-15.818,25.909-4.185,35.524c5.49,4.511,13.355,6.084,20.062,3.739
			C450.735,869.328,455.988,863.066,456.789,856.002z M403.132,804.719c3.532-3.502,5.164-8.636,5.016-13.622
			c-0.178-7.716-4.867-15.047-11.456-18.934c-2.582-1.543-5.49-2.523-8.547-2.79c-18.934-1.603-29.974,22.822-15.017,35.227
			c4.808,4.006,11.278,5.758,17.51,5.283C395.238,809.557,399.867,807.954,403.132,804.719z"/>
		<path fill="#FAF4DC" d="M618.77,909.6c4.63,5.312,9.942,9.705,15.699,13.355c-22.525,9.853-47.87,19.29-67.724,3.947
			c8.814-4.274,17.154-9.705,24.84-16.738c5.609-5.134,10.714-11.188,14.987-17.807C610.193,898.619,614.318,904.466,618.77,909.6z"
			/>
		<path fill="#FAF4DC" d="M358.793,910.817c-13.296,1.514-26.621,3.057-39.916,4.6c-2.997,0.356-5.995,0.712-9.022,1.068
			c-0.267-19.558-4.867-40.747-20.032-53.093c-3.71-3.027-8.191-5.49-12.999-5.579c-4.837-0.119-9.912,2.641-11.337,7.241
			c-1.157,3.65,0.119,7.597,1.395,11.218c4.837,13.859,9.705,27.719,14.572,41.608c-28.283,1.484-56.684,0.594-84.819-2.671
			c5.639-16.056,11.278-32.111,16.946-48.167c1.543-4.452,3.086-9.556,0.742-13.681c-2.404-4.244-8.31-5.52-12.969-4.036
			c-4.659,1.484-8.339,5.105-11.515,8.844c-13.118,15.225-21.665,34.367-24.276,54.28c-16.204-1.929-33.862-3.591-49.324-8.785
			c1.84-18.044,25.196-42.825,37.72-55.675c15.314-15.699,33.951-28.401,55.438-33.714c26.769-6.588,55.141-1.276,81.05,8.072
			c14.928,5.372,29.707,12.346,40.747,23.742C347.724,863.184,353.57,887.609,358.793,910.817z"/>
		<g>
			<path fill="#FAF4DC" d="M146.895,589.823c17.45-34.545,35.465-75.916,35.435-115.268c0-10.269-16.204-16.234-20.774-5.609
				c-14.987,34.782-23.445,71.672-40.391,105.89c-4.344,8.771-12.785,15.537-19.882,18.135c1.389,10.708,2.227,22.723,1.126,32.885
				c-2.466,22.751-9.719,44.817-18.117,64.293C102.322,662.078,134.868,613.593,146.895,589.823z"/>
		</g>
	</g>
</g>
</svg>
