<?xml version="1.0" encoding="utf-8"?>
<!-- Designed by Vexels.com - 2019 All Rights Reserved - https://vexels.com/terms-and-conditions/  -->
<svg version="1.1" id="Capa_1" xmlns="http://www.w3.org/2000/svg" xmlns:xlink="http://www.w3.org/1999/xlink" x="0px" y="0px"
	 viewBox="0 0 1200 1200" enable-background="new 0 0 1200 1200" xml:space="preserve">
<g>
	<g>
		<g>
			<path fill="#648CCC" d="M967.854,986.21c0,0-8.412,48.059-10.702,89.077c-0.178,3.186-4.199,17.735,11.116,27.133
				c2.615,1.605,17.743,10.889,26.203,2.969c2.245-2.102,6.812-10.989-3.336-15.931c-3.805-1.853-11.376-4.925-8.421-18.537
				c0.429-1.974,3.663-26.279,34.138-52.056c16.378-13.853,34.239-33.903,47.934-50.597L967.854,986.21z"/>
		</g>
		<g>
			<path fill="#648CCC" d="M814.563,982.454c0,0-28.186,59.275-45.717,84.476c-3.003,4.317-6.397,8.028-8.233,13.078
				c-2.505,6.889-3.42,17.986,1.984,23.727c6.101,6.481,21.231,4.942,29.082,3.728c5.418-0.837,9.861-6.793,5.698-11.833
				c-3.43-4.152-12.404-4.844-12.41-11.417c-0.004-4.222,4.953-7.11,8.027-9.181c10.08-6.793,56.192-36.041,65.176-51.161
				C860.378,1020.155,814.563,982.454,814.563,982.454z"/>
		</g>
		<g>
			<g>
				<path fill="#9EC6FF" d="M1147.002,893.307c-12.804-7.848-23.56-26.195-25.296-29.235
					c-12.561-21.983-31.019-25.916-53.809-30.951c-4.676-3.136-22.458-29.452-22.74-30.668
					c-2.54-10.923-17.793-18.653-20.452-18.186c-7.984,1.405-8.243,15.009-8.581,16.231c-5.371,19.452,2.85,44.857,11.115,56.668
					c8.265,11.811-1.073,12.638-6.172,16.865c-5.099,4.228-12.143,4.481-16.867,7.726c-30.736,7.098-42.403,17.333-82.207,17.446
					c-8.882,0.025-67.969-0.882-81.723,24.543c-2.495,4.612-16.618,15.55-18.92,22.157c-5.134-0.482-9.922-1.465-9.123-7.513
					c0.799-6.048,5.601-4.385,8.808-10.747c3.206-6.362-5.846-14.123-14.668-4.768c-8.822,9.355-8.519,28.465,7.939,34.266
					c-1.45,2.69-3.611,15.25-3.706,16.363c-1.203,14.083-1.473,25.192,3.694,37.031c7.252,16.617,21.426,25.753,35.514,35.738
					c6.984,4.949,13.652,9.343,19.835,14.751c6.183,5.408,10.73,10.177,15.7,16.655c4.183,5.452,4.784,11.484,7.785,17.911
					c3.001,6.427,7.2,10.65,14.829,13.375c7.629,2.726,20.357,6.084,26.397-2.053c1.701-2.292,1.4-5.218,0.271-7.707
					c-3.978-8.769-8.9-6.244-15.25-12.938c-13.973-14.729-11.235-31.622-7.959-50.075c32.786,2.214,38.846,0.901,62.39-7.412
					c3.406-1.203,16.59-9.164,21.517-17.596c12.635,28.824,22.024,52.809,38.694,82.803c1.295,2.329,11.825,19.425,24.583,15.118
					c2.178-0.735,22.595-0.006,22.184-12.371c-0.109-3.281-1.335-12.437-12.463-10.976c-4.172,0.547-13.431,1.621-17.097-14.093
					c-0.531-2.279-7.151-45.503,3.574-59.326c3.758-4.843,8.05-34.354,10.51-42.658c7.629-8.307,11.971-12.572,17.94-21.545
					c2.987-4.49,8.751-8.931,13.5-12.013c4.749-3.082,8.021-6.013,13.683-7.673c3.058-0.897,7.999-2.057,11.449-2.664
					c10.155-1.784,22.091-11.728,26.44-21.442C1150.59,899.281,1150.93,895.714,1147.002,893.307z"/>
			</g>
		</g>
	</g>
	<g>
		<g>
			<path fill="#648CCC" d="M606.993,990.08c-28.755-31.956-42.135-69.956-78.638-134.936
				c-36.503-64.98-227.549-162.322-119.209-274.291c108.34-111.969,223.182,193.995,235.369,268.519
				c12.187,74.524,46.87,115.069,30.926,183.94c-20.031,1.17-4.109,1.063-23.71,4.854
				C642.014,1009.973,631.874,1017.73,606.993,990.08z"/>
		</g>
	</g>
	<g>
		<path fill="#9EC6FF" d="M332.957,947.377c0,0,34.487-74.359,44.998-129.836s-141.306-253.883,22.396-297.643
			c146.514-39.166,127.393,283.032,69.693,368.413s-102.04,119.778-102.04,119.778l-51.407-31.704L332.957,947.377z"/>
	</g>
	<g>
		<path fill="#EF5060" d="M360.987,877.666c-9.36,12.496-81.995,151.902-82.487,152.737c-7.684,13.04-11.994,21.983-6.938,33.52
			c6.293,14.365,17.812,13.534,30.953,16.533c16.305,3.721,27.911,9.726,41.225,19.499c6.858,5.035,13.713,10.665,21.747,13.815
			c12.176,4.772,41.915,2.75,42.49-12.822c0.136-3.67,4.416-15.822-17.933-28.203c-11.574-6.411-15.179-6.884-24.109-18.036
			c-10.002-12.49-7.297-25.085,2.274-37.038c1.239-1.547,71.843-83.426,85.226-105.632
			C416.195,940.632,354.851,887.848,360.987,877.666z"/>
	</g>
	<g>
		<path fill="#EF5060" d="M563.773,922.338c4.949,14.807,80.147,152.188,80.554,153.068c6.35,13.739,11.253,22.372,23.616,24.78
			c15.394,3,21.265-6.946,31.209-16.045c12.339-11.291,23.88-17.417,39.493-22.804c8.043-2.775,16.573-5.207,23.735-10.022
			c10.852-7.297,26.112-32.903,13.635-42.236c-2.941-2.2-10.498-12.635-33.396-1.302c-11.858,5.869-14.298,8.565-28.55,9.562
			c-15.962,1.117-22.748-9.906-27.13-24.578c-0.567-1.899-25.248-103.252-40.399-128.559
			C648.859,911.094,568.654,933.178,563.773,922.338z"/>
	</g>
	<g>
		<path fill="#1B3864" d="M427.045,245.86c-6.344,12.068,5.005,35.752-2.826,51.774c-5.684,11.629-33.536,16.001-50.816,49.068
			c-52.13,99.758-85.284,234.43-74.259,371.656c0,0,161.91,111.363,336.396,28.602c0,9.658,2.539-268.993-53.535-405.08
			c-18.231-44.246-61.173-14.754-52.273-94.662C470.922,225.029,427.045,245.86,427.045,245.86z"/>
	</g>
	<g>
		<path fill="#FFFFFF" d="M501.974,306.438c-0.906,0-1.705-0.66-1.852-1.584c-0.216-1.386-5.19-34.107,8.813-50.49
			c5.116-5.987,12.114-9.024,20.795-9.024c1.038,0,1.878,0.84,1.878,1.878c0,1.038-0.84,1.878-1.878,1.878
			c-7.533,0-13.57,2.593-17.942,7.707c-12.888,15.083-8.006,47.143-7.955,47.464c0.161,1.025-0.539,1.986-1.562,2.147
			C502.172,306.43,502.073,306.438,501.974,306.438z"/>
	</g>
	<g>
		<path fill="#648CCC" d="M386.997,308.622c-5.007-9.667-11.638-18.902-13.153-29.682c-3.705-26.353,24.174-51.355,15.852-76.632
			c-4.91-14.913-31.445-32.032-46.016-37.878c-14.571-5.846-32.927-1.909-41.917-14.78c-10.87-15.562-29.048-47.304-62.755-36.587
			c-0.323,0.091-29.346,10.29-36.578,26.66c-9.097,20.59-8.502,47.782-27.228,60.273c-17.723,11.822-41.5,2.661-62.657,5.16
			c-19.175,2.265-36.724,15.256-44.49,32.935c-7.765,17.678-5.46,39.39,5.844,55.044c10.275,14.229,27.454,24.047,32.374,40.894
			c4.152,14.217-1.738,29.163-6.529,43.177c-4.791,14.014-8.281,30.443-0.208,42.86c6.371,9.799,18.446,14.497,25.569,23.765
			c8.503,11.062,8.496,26.534,15.204,38.768c10.499,19.153,38.554,24.691,56.44,12.887c21.082-5.662,43.525-3.078,65.326-5.047
			c22.494-2.032,47.069-11.328,55.841-32.14c6.34-15.042,2.825-32.133,1.288-48.385c-1.536-16.251,0.141-35.029,13.076-44.988
			c8.606-6.626,20.092-7.636,30.781-9.57c10.688-1.933,22.295-5.905,27.324-15.532C395.424,330.174,392.004,318.289,386.997,308.622
			z"/>
	</g>
	<g>
		<path fill="#EF5060" d="M171.089,159.34c0,0-15.031-36.882,25.906-56.414s62.964-22.179,82.813,13.701"/>
	</g>
	<g>
		<path fill="#D12F46" d="M231.272,130.091c-65.06,22.169-71.949,35.23-62.743,53.899c16.406,33.27,3.928,16.697,58.359-14.18
			c57.427-32.576,98.122,1.618,73.579-41.534C289.455,108.917,270.731,116.646,231.272,130.091z"/>
	</g>
	<g>
		<path fill="#D12F46" d="M231.372,81.713c-4.513-10.899-17.007-16.077-27.906-11.564s-16.077,17.007-11.564,27.906
			s13.259,7.025,24.159,2.513C226.96,96.055,235.885,92.612,231.372,81.713z"/>
	</g>
	<g>
		<g>
			<path fill="#648CCC" d="M390.098,1004.585c-28.967-32.191-42.445-70.471-79.216-135.929
				C274.11,803.198,81.658,705.14,190.796,592.347c109.137-112.793,224.824,195.422,237.1,270.493
				c12.277,75.072,47.215,115.915,31.154,185.293c-20.179,1.178-4.139,1.071-23.885,4.89
				C425.377,1024.624,415.161,1032.438,390.098,1004.585z"/>
		</g>
	</g>
	<g>
		<path fill="#9EC6FF" d="M114.046,961.567c0,0,34.74-74.906,45.329-130.791c10.588-55.885-142.345-255.75,22.561-299.832
			c147.592-39.454,128.33,285.114,70.206,371.123s-102.79,120.659-102.79,120.659L97.566,990.79L114.046,961.567z"/>
	</g>
	<g>
		<g>
			<path fill="#1B3864" d="M142.282,891.344c-9.429,12.587-82.598,153.019-83.094,153.861c-7.741,13.136-12.082,22.145-6.989,33.767
				c6.339,14.471,17.943,13.634,31.18,16.655c16.425,3.749,28.116,9.797,41.528,19.643c6.909,5.072,13.814,10.744,21.907,13.917
				c12.265,4.807,42.223,2.77,42.803-12.916c0.137-3.697,4.449-15.939-18.065-28.41c-11.659-6.458-15.29-6.934-24.286-18.168
				c-10.075-12.582-7.351-25.269,2.291-37.31c1.248-1.558,72.371-84.04,85.853-106.409
				C197.897,954.773,136.101,901.601,142.282,891.344z"/>
		</g>
	</g>
	<g>
		<g>
			<path fill="#1B3864" d="M346.56,936.345c4.985,14.916,80.736,153.308,81.146,154.194c6.397,13.84,11.335,22.536,23.79,24.962
				c15.507,3.021,21.421-6.997,31.438-16.163c12.429-11.374,24.056-17.546,39.783-22.972c8.102-2.795,16.695-5.246,23.909-10.095
				c10.932-7.35,26.304-33.145,13.735-42.547c-2.962-2.216-10.575-12.728-33.642-1.311c-11.945,5.912-14.403,8.628-28.76,9.632
				c-16.08,1.126-22.915-9.979-27.33-24.759c-0.571-1.913-25.433-104.011-40.696-129.504
				C432.272,925.018,351.477,947.264,346.56,936.345z"/>
		</g>
	</g>
	<g>
		<path fill="#EF5060" d="M208.826,254.891c-6.39,12.156,5.041,36.015-2.847,52.154c-5.725,11.715-33.783,16.119-51.189,49.429
			c-52.514,100.492-56.042,231.887-74.805,374.39c0,0,163.1,112.182,338.87,28.812c0,9.729,2.558-270.972-53.928-408.059
			c-18.366-44.572-58.03-14.958-49.065-95.454C256.619,233.812,208.826,254.891,208.826,254.891z"/>
	</g>
	<g>
		<path fill="#1B3864" d="M284.306,315.9c-0.939,0-1.753-0.706-1.863-1.665c-0.158-1.394-3.73-34.318,11.003-50.831
			c5.399-6.05,12.572-9.118,21.323-9.118c1.038,0,1.878,0.84,1.878,1.878c0,1.038-0.84,1.878-1.878,1.878
			c-7.632,0-13.86,2.644-18.514,7.858c-13.618,15.252-10.115,47.585-10.079,47.91c0.117,1.031-0.623,1.96-1.654,2.078
			C284.449,315.896,284.379,315.9,284.306,315.9z"/>
	</g>
	<g>
		<path fill="#FFC3A9" d="M315.604,189.687c1.337,26.987-2.418,35.582,8.978,42.199c11.396,6.617-0.993,10.11-2.201,14.346
			s4.968,22.223-17.967,35.2c-9.815,5.553-26.575,19.197-23.803,53.909c-6.584-6.641-13.092-45.132-48.041-53.604
			c-2.652-4.204-1.779-11.239-3.01-16.391c-8.545-35.756,17.464-88.985,50.905-89.692S315.604,189.687,315.604,189.687z"/>
	</g>
	<g>
		<path fill="#EF5060" d="M289.377,346.385c2.133-58.239-48.023-79.318-79.279-90.222L289.377,346.385z"/>
	</g>
	<g>
		<path fill="#1B3864" d="M346.56,785.83c-0.829,0-1.584-0.55-1.812-1.383c-46.003-168.903-57.137-435.315-57.247-437.987
			c1.958-53.675-40.666-75.495-78.024-88.523c-0.979-0.341-1.496-1.412-1.152-2.391c0.337-0.979,1.408-1.495,2.391-1.155
			c38.572,13.453,82.587,36.076,80.54,92.062c0.106,2.523,11.226,268.519,57.115,437.004c0.271,1.001-0.319,2.035-1.317,2.307
			C346.89,785.808,346.721,785.83,346.56,785.83z"/>
	</g>
	<g>
		<path fill="#1B3864" d="M346.56,785.83c-0.829,0-1.584-0.55-1.812-1.383c-46.003-168.903-57.137-435.315-57.247-437.987
			c-0.04-1.036,0.767-1.911,1.801-1.951c1.082-0.068,1.914,0.767,1.955,1.801c0.106,2.666,11.226,268.662,57.115,437.147
			c0.271,1.001-0.319,2.035-1.317,2.307C346.89,785.808,346.721,785.83,346.56,785.83z"/>
	</g>
	<g>
		<path fill="#FFFFFF" d="M309.266,592.872h-31.318c-8.798,0-15.931-7.133-15.931-15.931v-54.82h63.18v54.82
			C325.197,585.74,318.065,592.872,309.266,592.872z"/>
	</g>
	<g>
		<path fill="#648CCC" d="M251.748,563.604c7.948-3.862,15.896-7.725,23.843-11.587c2.686-1.305,5.489-2.639,8.475-2.65
			c2.987-0.011,6.205,1.72,6.883,4.629c0.587,2.521-0.907,5.158-2.994,6.69c-2.086,1.531-4.669,2.19-7.18,2.817
			c6.549,3.268,14.306,2.066,21.616,1.692c7.31-0.374,15.704,0.713,19.9,6.71c3.75,5.359,2.685,12.788-0.042,18.733
			c-6.635,14.466-22.69,24.035-38.57,22.989c-15.282-1.006-28.462-10.598-40.689-19.821L251.748,563.604z"/>
	</g>
	<g>
		<path fill="#1B3864" d="M731.201,664.829c-3.785-8.047,2.432-14.322,7.423-19.365c1.852-1.87,3.602-3.635,4.775-5.344
			c0.18-0.26,17.872-25.816,25.93-23.986c1.28,0.297,2.901,1.302,3.363,4.419l-3.712,0.55c-0.139-0.935-0.396-1.287-0.499-1.309
			c-2.982-0.825-14.63,11.755-21.987,22.453c-1.364,1.988-3.231,3.869-5.201,5.861c-5.655,5.707-9.176,9.844-6.697,15.121
			L731.201,664.829z"/>
	</g>
	<g>
		<path fill="#648CCC" d="M701.948,622.992c1.829,8.645,3.657,17.29,5.486,25.936c0.618,2.922,1.285,5.953,3.109,8.318
			c1.824,2.365,5.167,3.844,7.879,2.593c2.35-1.084,3.516-3.882,3.444-6.469c-0.072-2.587-1.136-5.03-2.183-7.397
			c6.599,3.165,10.412,10.027,14.603,16.027c4.191,6.001,10.201,11.961,17.511,11.593c6.532-0.329,11.744-5.729,14.764-11.531
			c7.348-14.117,5.049-32.665-5.523-44.561c-10.174-11.447-25.836-15.966-40.622-19.958L701.948,622.992z"/>
	</g>
	<g>
		<path fill="#EF5060" d="M193.45,329.291c-33.262-23.686-75.116,71.159-90.473,106.768s-91.759,131.95,48.038,165.059
			c44.654,10.576,96.681,12.88,96.681,12.88l6.123-62.161c0,0-50.617,1.274-77.752-21.124
			C128.787,491.685,322.867,429.899,193.45,329.291z"/>
	</g>
	<g>
		<path fill="#1B3864" d="M247.696,615.874c-0.026,0-0.055,0-0.084-0.004c-0.521-0.022-52.718-2.432-97.03-12.928
			c-21.929-5.193-39.786-12.272-53.074-21.045c-0.866-0.568-1.104-1.735-0.532-2.6c0.568-0.866,1.731-1.108,2.6-0.532
			c12.921,8.527,30.371,15.433,51.871,20.524c39.375,9.327,85.066,12.22,94.554,12.741l5.751-58.373
			c-11.197-0.414-63.552-3.715-83.126-29.645c-7.42-9.829,5.637-24.525,22.171-43.131c21.929-24.679,49.223-55.395,45.361-89.5
			c-2.402-21.199-17.139-41.576-43.798-60.561c-2.553-1.817-5.241-2.919-7.992-3.271c-1.031-0.132-1.757-1.075-1.625-2.103
			c0.132-1.029,1.097-1.742,2.102-1.623c3.371,0.433,6.631,1.759,9.693,3.939c27.566,19.631,42.826,40.894,45.35,63.198
			c4.053,35.77-23.858,67.179-46.285,92.416c-14.78,16.636-27.547,31.002-21.976,38.378c20.406,27.03,81.6,28.196,82.216,28.204
			c0.524,0.007,1.023,0.235,1.375,0.627c0.348,0.392,0.521,0.913,0.469,1.434l-6.121,62.162
			C249.471,615.144,248.657,615.874,247.696,615.874z"/>
	</g>
	<g>
		<path fill="#FFFFFF" d="M273.868,507.284c-5.333-9.118-4.386-12.782-0.07-21.756c4.537-9.429,4.071-16.908-1.555-25.009
			l3.081-2.142c6.418,9.235,6.99,18.111,1.856,28.78c-4.111,8.549-4.489,10.676-0.07,18.228L273.868,507.284z"/>
	</g>
	<g>
		<path fill="#FFFFFF" d="M313.214,505.765c-5.333-9.114-4.386-12.782-0.07-21.752c4.533-9.433,4.071-16.911-1.555-25.009
			l3.081-2.142c6.418,9.231,6.99,18.107,1.856,28.78c-4.111,8.549-4.489,10.676-0.07,18.224L313.214,505.765z"/>
	</g>
	<g>
		<path fill="#1B3864" d="M574.739,328.97c41.792,46.17,131.927,233.481,178.448,275.384L708.12,645.06
			c0,0-80.316-58.011-113.88-117.425c-36.892-65.306-53.305-171.878-53.305-171.878L574.739,328.97z"/>
	</g>
	<g>
		<path fill="#FFFFFF" d="M630.46,585.029c-0.968,0-1.79-0.745-1.867-1.727c-7.698-95.526-20.803-163.006-38.953-200.56
			c-0.451-0.935-0.059-2.057,0.873-2.509c0.935-0.446,2.061-0.059,2.509,0.873c18.353,37.976,31.582,105.903,39.313,201.895
			c0.084,1.034-0.686,1.94-1.72,2.021C630.563,585.026,630.512,585.029,630.46,585.029z"/>
	</g>
	<g>
		<path fill="#1B3864" d="M1141.998,891.389c-0.705-1.374-1.05-3.124-0.375-4.577c0.825-1.776,2.741-2.216,4.428-1.435
			c1.864,0.863,3.275,2.732,3.771,4.705c0.432,1.72,0.183,4.223-1.894,4.659c-1.45,0.304-3.111-0.361-4.241-1.246
			C1143.018,892.97,1142.428,892.227,1141.998,891.389z"/>
	</g>
	<g>
		<path fill="#1B3864" d="M1070.655,963.209c-4.357,0-9.47-2.542-15.257-7.588c-19.559-17.065-43.505-60.526-39.911-78.457
			c0.979-4.882,3.829-6.789,6.048-7.53l1.188,3.565c-1.881,0.627-3.044,2.164-3.554,4.702
			c-3.015,15.048,19.046,57.742,38.697,74.888c6.161,5.38,11.329,7.563,14.905,6.319c2.872-0.998,4.889-2.446,5.993-4.306
			l3.227,1.914c-1.566,2.644-4.254,4.643-7.988,5.941C1072.943,963.025,1071.825,963.209,1070.655,963.209z"/>
	</g>
	<g>
		<path fill="#1B3864" d="M1017.061,891.397c-11.025-8.538-270.107-209.21-282.008-221.273c-1.731-1.764-3.029-3.543-3.851-5.296
			l3.396-1.599c0.642,1.368,1.698,2.798,3.132,4.258c11.725,11.887,278.931,218.852,281.627,220.939L1017.061,891.397z"/>
	</g>
	<g>
		<path fill="#1B3864" d="M729.331,663.534c-0.528,0-1.016-0.07-1.456-0.22l1.196-3.558c1.529,0.502,8.131-2.509,18.1-10.856
			c12.939-10.834,22.519-23.043,21.811-27.797l3.712-0.55c1.243,8.333-13.94,23.55-23.109,31.226
			C744.126,656.349,734.693,663.534,729.331,663.534z"/>
	</g>
	<g>
		<path fill="#1B3864" d="M727.875,663.314c-2.417-0.811-3.286-2.413-3.594-3.613c-1.313-5.157,3.657-14.329,32.964-45.97
			l2.758,2.553c-9.206,9.935-33.654,36.331-32.084,42.489c0.055,0.209,0.169,0.649,1.152,0.983L727.875,663.314z"/>
	</g>
	<g>
		<path fill="#648CCC" d="M317.08,202.282c-0.508-11.624-6.527-20.863-19.247-14.592s-22.239,2.908-34.839,5.088
			c-10.605,1.836-16.377,15.87,3.613,40.585s-29.803,24.714-25.441,50.156c4.361,25.441-2.908,54.416-31.983,51.195
			c-29.076-3.22-48.526,3.486-56.158,10.028c-7.632,6.542,15.815-56.413,17.269-59.727s31.62-93.812,35.618-97.446
			s36.708-17.809,46.158-21.08c9.45-3.271,50.293-3.853,52.769-3.925s13.742,22.461,13.742,22.461L317.08,202.282z"/>
	</g>
	<g>
		<path fill="#FFC3A9" d="M529.934,174.056c-1.16,26.67-5.798,34.787,5.218,42.324c11.016,7.537-1.959,9.856-3.589,13.915
			s2.99,34.008-24.237,45.546c-27.226,11.538-66.938,0.836-72.317-35.11c-5.379-35.947,8.536-68.994,42.744-66.675
			S529.934,174.056,529.934,174.056z"/>
	</g>
	<g>
		<path fill="#1B3864" d="M426.353,271.771c-3.019-14.613-2.835-16.89,7.535-17.88c10.37-0.99,38.662,6.936,59.003,35.525
			c20.341,28.589,11.909,16.866,14.299,51.419c2.41,34.827-27.858,95.605-27.858,95.605l-26.351-61.786L426.353,271.771z"/>
	</g>
	<g>
		<path fill="#FFFFFF" d="M563.773,772.938c-0.829,0-1.584-0.55-1.812-1.383c-45.669-167.675-56.723-432.143-56.829-434.794
			c1.947-53.272-40.365-74.931-77.445-87.864c-0.979-0.341-1.496-1.412-1.152-2.391c0.341-0.979,1.412-1.495,2.391-1.155
			c38.297,13.359,81.993,35.821,79.961,91.404c0.106,2.505,11.138,266.555,56.697,433.811c0.271,1.001-0.319,2.036-1.317,2.307
			C564.103,772.916,563.934,772.938,563.773,772.938z"/>
	</g>
	<g>
		<path fill="#648CCC" d="M541.224,127.659c13.602,10.579,6.159,53.188-17.076,51.788c-23.235-1.4-59.067-9.399-62.986,14.116
			c-1.68,11.477-19.876,20.597-19.876,20.597s-8.304-3.721-7.399,10.638c0.904,14.359,9.639,9.238,9.639,9.238
			s11.36,21.988,0.641,27.23s-39.832-3.996-32.274-51.865s4.759-54.028,36.952-61.306S526.108,115.902,541.224,127.659z"/>
	</g>
</g>
</svg>
