<?xml version="1.0" encoding="utf-8"?>
<!-- Designed by Vexels.com - 2019 All Rights Reserved - https://vexels.com/terms-and-conditions/  -->
<svg version="1.1" id="Capa_1" xmlns="http://www.w3.org/2000/svg" xmlns:xlink="http://www.w3.org/1999/xlink" x="0px" y="0px"
	 viewBox="0 0 1200 1200" enable-background="new 0 0 1200 1200" xml:space="preserve">
<g>
	<path fill="#B37262" d="M735.287,584.229c-0.815-31.046-1.667-62.089-1.848-93.146c-40.567-8.495-80.179-9.921-120.376-7.071
		c-1.913,29.878-6.009,60.64-11.298,90.965c10.314-3.31,22.034-2.966,32.484-1.328c4.24,0.664,10.883,1.422,15.456,4.019
		c2.384-12.73,5.177-25.467,7.207-38.254c2.25-14.18-5.895-20.454-8.168-32.886c-0.459-2.507,3.168-3.513,3.861-1.014
		c2.814,10.14,10.488,13.588,10.852,24.542c0.351,10.561-3.539,21.881-5.448,32.208c-0.992,5.37-1.92,10.762-2.83,16.161
		c23.288-7.551,60.902-8.933,80.16,8.268C735.318,585.873,735.308,585.048,735.287,584.229z"/>
	<path fill="#FFF7EA" d="M722.659,357.919c-1.265,0.459-2.992-0.353-3.58-1.508c-4.735-9.305-13.944-5.5-20.743-2.241
		c11.092,2.349,22.348,8.366,27.304,15.956c4.279,6.553,3.393,18.006-1.117,26.274c7.297,2.955,14.648,4.579,21.677-0.319
		c9.14-6.368,9.678-24.567-4.089-24.847c-2.026-0.041-3.506-2.019-2.952-3.976C735.042,357.07,729.542,353.957,722.659,357.919z"/>
	<path fill="#FFF7EA" d="M734.821,593.45c-26.277-12.124-52.062-18.111-80.608-9.281c-0.88,5.323-1.753,10.651-2.63,15.98
		c22.953-6.206,59.071-4.842,75.936,12.88C729.959,606.444,732.416,599.913,734.821,593.45z"/>
	<path fill="#964C42" d="M695.737,667.56c-2.11-17.276-7.323-36.637-30.036-32.443c-17.339,3.202-25.111,17.299-26.911,33.095
		c0.777,0.012,1.562,0.04,2.335,0.048C657.64,668.428,677.825,665.944,695.737,667.56z"/>
	<path fill="#FFF7EA" d="M632.472,594.732c2.934,0.57,9.04,1.571,13.182,3.924c0.945-4.785,1.859-9.57,2.773-14.356
		c-4.588-1.059-9.12-2.813-13.759-3.668c-11.726-2.161-22.547-0.965-34.039,0.695c-0.876,4.862-1.757,9.723-2.685,14.551
		C609.146,592.537,620.846,592.475,632.472,594.732z"/>
	<path fill="#96514A" d="M607.628,491.664c0.491-2.458,0.972-4.922,1.479-7.37c-2.849,0.221-5.7,0.463-8.555,0.726
		c0.007,0.031,0.024,0.049,0.031,0.081C601.32,489.411,604.081,490.894,607.628,491.664z"/>
	<path fill="#96514A" d="M778.514,489.326c-2.316-1.127-4.702-2.058-7.12-2.9c-1.211,3.768-2.365,7.592-3.502,11.435
		c3.469-1.285,7.203-1.927,10.751-3.048c0.994-0.314,7.224-2.314,7.18-2.497C785.979,492.961,778.642,489.388,778.514,489.326z"/>
	<path fill="#B37262" d="M751.74,530.117c3.975-15.376,10.191-30.683,16.095-44.864c-5.45-1.707-10.992-3.139-16.275-5.236
		C751.79,496.952,751.426,513.852,751.74,530.117z"/>
	<path fill="#C6877D" d="M752.084,546.723c0.777,36.768,1.554,73.541,1.776,110.316c6.664-6.881,13.303-13.764,19.838-20.689
		c30.835-32.674,60.767-66.994,93.495-97.881c-36.246,4.808-75.639,2.091-111.838-0.182
		C754.316,541.13,753.238,543.952,752.084,546.723z"/>
	<path fill="#F0A3A6" d="M611.858,374.489c1.286-1.214,2.197-2.885,3.184-4.441c-4.051,0.594-8.116,1.362-12.199,2.324
		c0.082,2.208,0.076,4.479-0.089,6.678C606.155,378.515,609.358,376.846,611.858,374.489z"/>
	<path fill="#FDB4B1" d="M681.01,358.882c-0.013,0.315-0.07,0.635-0.235,0.948c-3.952,7.465-13.443,21.874-4.721,29.387
		c3.007,2.591,8.104,2.243,11.986,3.294c4.586,1.242,8.865,3.347,13.307,4.996c3.136,1.164,9.691,3.378,12.893,1.415
		c1.817-1.114,3.697-4.958,4.785-6.861c4.661-8.148,4.39-17.96-4.055-23.551C705.271,362.085,692.676,357.695,681.01,358.882z"/>
	<path fill="#F0A3A6" d="M658.332,375.903c2.54,1.324,5.199,0.929,7.898,1.082c0.355-2.749,1.065-5.483,2.088-8.053
		c-5.036-0.264-10.035-0.498-14.996-0.645C653.606,371.448,655.493,374.422,658.332,375.903z"/>
	<path fill="#A15B4F" d="M601.888,360.902c0.236,1.078,0.396,2.206,0.47,3.398c0.053,0.841,0.12,1.778,0.19,2.773
		c21.56-5.754,46.37-8.17,68.091-2.798c1.395-2.278,3.056-4.266,4.943-5.801c-11.782-0.736-23.323-3.464-35.296-3.298
		C627.046,355.361,614.61,357.893,601.888,360.902z"/>
	<path fill="#D6998C" d="M649.247,368.205c-6.239-0.118-12.446-0.049-18.644,0.292c-1.868,29.734-9.718,62.686-19.386,90.836
		c39.37-5.53,80.769-2.311,118.703,5.608c-1.174-21.711-3.171-42.416-9.054-63.47c-1.971,2.058-4.265,3.618-6.874,4.344
		c-8.543,2.379-18.162-4.378-26.067-6.568c-6.361-1.762-14.462-0.454-18.686-6.503c-2.147-3.075-3.156-6.998-3.265-11.135
		c-3.367,1.578-7.861,0.683-10.852-1.274C651.02,377.648,649.017,373.021,649.247,368.205z M656.536,415.933
		c-3.291,10.072-0.166,19.793,6.208,27.914c1.046,1.333-0.373,3.651-1.989,2.513c-7.714-5.433-11.091-14.346-10.565-23.326
		c-2.15,2.275-4.294,4.557-6.452,6.824c-0.93,0.977-2.949,0.813-3.534-0.499c-3.002-6.732-2.946-13.32,0.257-19.976
		c1.133-2.354,4.494-0.246,3.448,2.073c-1.891,4.197-2.187,8.398-0.959,12.571c3.171-3.514,6.345-7.025,9.534-10.521
		C654.131,411.7,657.277,413.662,656.536,415.933z"/>
	<path fill="#964C42" d="M601.333,634.218c-20.374-1.877-31.616,16.283-33.29,33.869c18.553-1.907,37.869-0.93,56.776-0.252
		C622.752,652.727,620.622,635.995,601.333,634.218z"/>
	<path fill="#A15B4F" d="M644.341,605.322c-4.537-1.261-9.044-3.425-13.658-4.4c-11.387-2.406-22.744-1.9-33.925,0.896
		c-1.757,8.907-3.584,17.732-5.471,26.453c2.066-0.506,4.176-0.884,6.349-1.016c22.998-1.395,35.443,20.318,34.072,40.813
		c0.516,0.015,1.022,0.018,1.536,0.031c-0.479-5.883,0.616-11.633,2.87-16.889C638.383,635.857,641.326,620.579,644.341,605.322z"/>
	<path fill="#E8D7C7" d="M969.141,568.786c2.327,1.028,3.831-2.628,4.331-4.267c0.166-0.542,0.244-1.229,0.474-1.766
		c-0.055-0.012-0.09-0.02-0.158-0.033c-1.347-0.271-2.534-0.525-3.926-0.444c-1.077,0.062-2.053,0.316-3.016,0.432
		C966.797,564.752,967.301,567.973,969.141,568.786z"/>
	<path fill="#ED6E6E" d="M996.042,535.505c-7.171-5.657-10.394-13.82-11.327-22.62c-1.671,9.924-1.712,20.427,4.292,28.486
		C991.324,539.368,993.659,537.39,996.042,535.505z"/>
	<path fill="#E8D7C7" d="M1034.611,680.458c-6.558,10.242-7.618,22.722,2.401,31.363c8.184,7.059,10.331-0.836,16.335-4.023
		c-0.402-5.99-0.06-11.545-3.759-17.12C1045.695,684.808,1040.5,683.029,1034.611,680.458z"/>
	<path fill="#E8D7C7" d="M998.218,533.82c5.846-4.4,12.042-8.095,19.074-9.959c1.818-0.482,3.641-0.829,5.463-1.087
		c-4.153-6.81-6.884-14.412-9.973-21.743c-2.339-5.553-4.148-12.467-8.632-16.707c-0.463,0.053-0.958-0.002-1.468-0.28
		c-7.659-4.193-11.056,0.586-13.021,6.817c-1.007,15.149-1.476,29.715,8.446,42.738C998.159,533.667,998.181,533.746,998.218,533.82
		z"/>
	<path fill="#D5E9F7" d="M892.361,1056.215c34.386-5.633,65.574-14.562,95.309-26.699c-5.663-0.444-13.418,0.78-17.838,0.722
		c-35.316-0.462-70.625,0.132-105.912,1.569c-1.24,0.05-2.129-0.428-2.708-1.148c-9.699,1.676-18.907,5.127-27.234,10.192
		C843.088,1056.966,872.092,1058.856,892.361,1056.215z"/>
	<path fill="#ADCEEA" d="M992.53,1030.67c-1.228-0.66-2.925-1.003-4.86-1.154c-29.735,12.137-60.923,21.066-95.309,26.699
		c-20.269,2.641-49.273,0.751-58.383-15.363c-4.112,2.5-8.025,5.364-11.644,8.66c-9.275,8.446-14.317,12.701-10.121,24.56
		c-0.407,6.325,2.043,9.517,7.35,9.575c6.713,1.275,13.477,1.907,20.292,1.897c32.629,0.138,65.427-11.212,96.427-20.366
		c17.493-5.165,34.884-10.784,51.71-17.862C995.61,1044.111,1012.08,1041.184,992.53,1030.67z"/>
	<path fill="#87AFD6" d="M883.046,1087.651c0.016,8.084,0.126,16.177-0.708,24.22c-0.293,2.83-4.18,2.777-4.403-0.054
		c-0.605-7.681-0.353-15.385-0.142-23.085c-11.369,2.322-22.85,3.931-34.476,4.03c-9.458,0.081-26.306,0.411-35.891-6.22
		c0.137,2.627,0.224,5.248,0.452,7.779c0.682,7.566,2.163,15.061,2.671,22.633c21.665,21.444,72.677,14.687,100.206,9.974
		c7.942-1.359,15.518-3.271,22.879-5.542c-0.44-4.163-0.823-8.332-1.168-12.505c-0.48-5.786-1.668-12.222-0.953-17.997
		c0.306-2.473,3.388-2.858,4.269-0.524c1.882,4.98,1.813,11.322,2.242,16.58c0.344,4.229,0.677,8.459,1.066,12.683
		c21.43-7.228,41.222-17.354,62.789-26.254c-0.551-15.457,2.748-31.119,4.614-46.618c-19.038,16.335-74.837,27.839-85.027,30.696
		C908.789,1081.001,895.993,1084.75,883.046,1087.651z"/>
	<path fill="#E8D7C7" d="M1070.494,636.081c-4.596,8.671-16.844,20.133-23.198,13.684c-5.301,7.425-13.475,12.962-22.356,15.514
		c3.83,2.176,7.571,4.535,11.129,7.289c0.93,0.72,1.405,1.647,1.555,2.6c6.433,0.213,12.802,5.636,16.429,10.341
		c4.767,6.183,7.68,15.581,5.666,23.435c0.132,0.264,0.304,0.481,0.386,0.804c0.904,3.593,1.725,7.197,2.51,10.807
		c9.073-1.278,15.927-3.111,21.522-12.038c7.543-12.035,6.14-25.061,4.013-38.724c-1.647-10.587-5.219-20.903-7.109-31.427
		C1076.3,642.091,1073.566,639.356,1070.494,636.081z"/>
	<path fill="#FD8580" d="M1060.325,568.059c9.262-3.028,10.19-12.075,11.729-20.949c0.759-4.376,1.508-8.753,2.26-13.13
		c-2.439,3.006-5.061,5.829-7.818,8.979C1059.15,551.351,1056.92,557.834,1060.325,568.059z"/>
	<path fill="#ADCEEA" d="M565.218,828.433c22.612,11.656,44.99,42.271,79.257,31.315c64.358-25.579,125.672-107.264,200.224-59.119
		c-23.898-39.924-66.307-63.762-112.831-44.203c-20.034,8.422-30.845,25.372-48.002,37.443
		c-10.109,7.112-23.002,11.515-35.071,6.901c-18.133-6.932-23.353-29.071-42.973-34.584c-28.704-8.065-51.844,14.831-67.115,35.804
		c-12.048,16.545-23.377,31.431-37.374,43.396C521.65,832.254,542.492,819.59,565.218,828.433z"/>
	<path fill="#ADCEEA" d="M905.543,601.279c22.565,15.448-0.653,53.087,21.912,68.534c26.31,19.286,60.717-3.045,83.189,19.986
		c7.49,7.677-4.119,26.497,3.325,37.966c12.372,12.68,28.197,13.789,44.1,10.993c-1.292-7.904-2.851-15.774-4.729-23.611
		c-2.314,2.331-5.01,4.379-7.151,5.226c-4.659,1.843-10.067-2.407-13.331-5.569c-9.815-9.505-10.834-26-1.298-35.88
		c-10.032-7.72-21.115-12.871-33.32-16.282c-11.269-3.15-23.336-2.779-34.131-7.262c-0.633,1.03-1.416,1.974-2.018,2.666
		c-1.341,1.542-3.124,3.241-5.138,4.023c-0.294,0.591-0.902,1.046-1.808,1.109c-8.63,0.601-19.52-3.982-23.272-12.174
		c-3.378-7.374,0.645-14.59,5.67-20.141c-0.041-0.061-0.088-0.106-0.127-0.171c-11.144-18.774-10.433-36.08-14.068-56.781
		c-1.646-9.368-3.955-20.093-8.605-28.493c-9.306-16.807-29.595-18.262-42.203-3.98c-0.161,0.182-0.34,0.28-0.516,0.395
		c-29.209,34.738-62.079,66.826-93.243,99.726c-22.173,23.41-43.864,47.848-66.482,71.17
		C784.488,685.983,830.895,553.788,905.543,601.279z"/>
	<path fill="#ADCEEA" d="M523.193,811.345c0.698-0.986,1.399-1.966,2.089-2.974c6.635-9.679,13.259-19.593,21.277-28.14
		c-44.049,3.319-89.642,4.008-133.655,2.073c-10.681-0.47-22.429-1.406-32.938-4.997c-23.799,2.022-44.267,8.89-62.729,25.395
		c-13.58,12.141-24.772,26.925-36.248,41.005C351.371,787.195,440.739,785.898,523.193,811.345z"/>
	<path fill="#D5E9F7" d="M1063.107,815.656c-1.106-10.319-0.356-20.979-0.672-31.359c-0.466-15.339-1.908-30.504-4.367-45.539
		c-15.902,2.796-31.728,1.687-44.1-10.993c-7.444-11.469,4.165-30.289-3.325-37.966c-22.471-23.031-56.879-0.7-83.189-19.986
		c-22.565-15.448,0.653-53.087-21.912-68.534c-74.649-47.491-121.055,84.704-193.245,111.45
		c-11.259,11.61-22.73,22.965-34.639,33.736c-0.083,0.161-0.235,0.288-0.354,0.433c-0.082,0.094-0.108,0.197-0.205,0.287
		c-0.051,0.048-0.106,0.088-0.157,0.135c-0.021,0.016-0.036,0.034-0.058,0.05c-14.11,13.034-30.836,21.332-49.683,23.622
		c9.152,9.25,16.7,20.276,29.97,21.845c25.976,3.072,43.663-30.286,65.905-41.385c16.005-7.988,34.49-11.402,52.286-9.567
		c33.655,3.47,66.434,27.068,76.427,59.978c0.94,3.093-3.623,4.822-5.151,2.097c-0.631-1.125-1.283-2.232-1.941-3.333
		c-74.553-48.145-135.866,33.54-200.224,59.119c-34.267,10.956-56.645-19.659-79.257-31.315
		c-22.726-8.843-43.568,3.821-63.885,16.954c-10.812,9.243-23.215,16.745-38.776,21.918c-3.252,1.081-4.387-3.87-1.328-5.057
		c27.01-10.487,45.616-27.811,61.964-50.903c-82.453-25.447-171.821-24.149-242.204,32.361c-0.26,0.319-0.518,0.641-0.778,0.959
		c-20.195,24.686-40.588,58.748-70.055,73.988c9.662,5.716,17.275,14.333,27.582,20.911c36.948,23.579,73.941-18.233,110.204,7.902
		c7.515,5.415,12.428,13.127,18.916,19.565c8.525,8.458,18.794,14.51,29.952,18.815c16.42,6.335,33.954,8.677,51.349,10.84
		c13.023-0.131,26.047-0.285,39.069-0.564c62.674-1.342,125.326-3.533,187.938-6.609c15.237-0.749,35.74,1.319,50.106-4.04
		c7.745-2.889,17.498-8.82,9.401-17.126c-2.655-2.723-7.494-4.528-10.8-6.591c-17.35-10.824-34.27-22.337-51.886-32.732
		c-3.02-1.782-1.894-5.528,0.529-6.707c0.29-0.296,0.662-0.534,1.211-0.601c49.017-6.005,99.648-5.549,149.671-5.417
		c18.01-11.692,37.815-21.142,56.68-31.322c13.158-7.101,27.349-15.944,42.971-14.119c9.651,1.128,17.756,6.559,26.963,9.128
		c13.031,3.635,27.282,1.699,38.753-5.54c15.423-9.734,22.541-28.391,39.135-36.785c11.441-5.788,25.769-6.669,38.832-3.219
		C1065.707,828.154,1063.786,821.988,1063.107,815.656z"/>
	<path fill="#A15B4F" d="M740.461,581.61c0.896,28.978,3.198,58.482,1.692,87.511c2.688-2.769,5.371-5.541,8.055-8.308
		c-1.622-41.545-2.444-83.118-3.447-124.68c-1.03-42.692,2.481-88.553-7.796-130.245c-4.25,0.588-8.596,0.133-12.396-1.557
		c6.413,19.736,9.964,41.207,7.871,61.842c2.592,1.885,0.62,6.991-3.243,6.153c-55.19-11.964-105.466-7.305-160.398,1.108
		c-0.341,3.423-0.685,6.844-1.025,10.267c54.678-11.541,111.723-9.748,166.301,1.274c2.969,0.6,2.814,4.035,0.967,5.581
		C738.606,520.891,739.523,551.249,740.461,581.61z"/>
	<path fill="#A15B4F" d="M709.543,669.893c3.951-17.237,9.782-34.498,15.989-51.466c-22.341-13.252-49.196-18.945-74.886-12.624
		c-1.841,11.041-3.796,22.057-6.061,32.99c6.333-6.273,14.762-10.482,24.019-11.075c22.638-1.451,36.496,19.905,34.399,40.745
		C705.247,668.838,707.418,669.329,709.543,669.893z"/>
	<path fill="#E8D7C7" d="M966.958,581.157c-0.465-2.38-0.146-4.837,1.164-7.206c-0.457-0.137-0.915-0.293-1.366-0.546
		c-0.797-0.446-1.426-1.016-1.98-1.634c-1.786,2.018-2.847,4.115-2.77,7.215c0.032,1.252,0.347,2.536,0.624,3.815
		C963.93,581.993,965.371,581.424,966.958,581.157z"/>
	<path fill="#FD8580" d="M971.532,601.473c1.358-2.913,2.561-5.891,4.518-8.371c-0.592-0.391-1.191-0.776-1.748-1.196
		c-2.248-1.695-4.294-3.945-5.702-6.451c-4.157,1.74-7.138,4.491-8.323,9.078c-0.909,3.524-1.513,11.915,1.102,14.909
		C966.084,614.829,970.247,604.231,971.532,601.473z"/>
	<path fill="#E8D7C7" d="M938.276,651.538c4.561,5.132,11.075,5.029,16.93,7.4c1.148-1.199,2.458-2.269,3.487-3.582
		c0.759-0.968,1.398-1.995,2.038-3.041c0.064-0.104,0.122-0.208,0.183-0.313c-0.014-0.047-0.049-0.077-0.061-0.126
		c-1.369-5.378-2.432-10.788-6.383-14.995c-1.949-2.076-4.471-3.641-7.266-4.274c-1.651-0.374-3.308-0.249-4.96-0.423
		c-0.058,0.025-0.112,0.056-0.169,0.079C937.142,637.577,932.523,645.066,938.276,651.538z"/>
	<path fill="#FFF7EA" d="M1004.593,656.435c3.99,1.242,7.819,2.763,11.573,4.422c11.519-1.66,23.164-8.293,28.743-18.451
		c1.24-2.258,4.759-1.612,5.384,0.771c9.998-0.108,15.505-4.373,16.522-12.795c0.481-2.221,3.179-2.389,4.638-1.164
		c8.483,7.119,11.178-14.62,12.684-25.155c-0.153-0.297-0.261-0.63-0.242-1.035c0.675-15.002,13.883-25.002,18.529-38.9
		c3.235-9.677,4.568-20.395,5.92-30.472c0.795-5.922,1.845-12.272,1.473-18.273c-0.357-5.745-3.294-20.375-8.002-24.596
		c-0.069,0.007-0.117,0.039-0.188,0.041c-11.756,0.379-16.355,25.234-21.23,34.204c-0.749,1.378-1.54,2.648-2.351,3.876
		c-0.526,8.865-1.852,17.683-3.458,26.42c-1.681,9.14-5.38,15.457-14.801,17.615c-0.063,0.025-0.129,0.035-0.194,0.055
		c-0.099,0.022-0.177,0.058-0.278,0.079c-0.036,0.008-0.064-0.005-0.1,0.001c-0.957,0.165-2.008-0.104-2.577-1.033
		c-8.834-14.415-3.768-22.956,4.014-31.625c-18.358-13.028-40.279-15.469-58.711-1.184c-8.484,6.575-15.491,14.718-25.295,18.653
		c4.22,2.011,3.005,6.911,1.213,10.715c-1.109,2.352-3.239,4.404-5.686,5.234c0.067,0.296,0.092,0.612,0.009,0.961
		c-3.34,14.157,16.211,17.78,25.953,20.15c1.518,0.369,1.463,2.708-0.038,3.055c-6.102,1.407-12.717,0.06-18.404-2.771
		c-1.693,7.334-8.302,20.387-15.254,21.445c-0.649,5.306-2.364,11.435-6.23,15.054c4.633,4.187,7.426,10.276,8.464,16.435
		C978.414,652.874,992.339,652.621,1004.593,656.435z M1009.111,567.057c3.684-3.921,9.188-5.781,14.455-4.301
		c4.789,1.345,9.359,5.572,9.347,10.798c-0.005,2.099-2.643,2.485-3.701,0.954c-1.962-2.838-3.507-5.755-7.064-6.845
		c-3.596-1.102-7.128,0.247-9.674,2.841C1010.292,572.726,1006.997,569.308,1009.111,567.057z M983.284,634.149
		c1.406,1.329,2.813,2.657,4.219,3.986c0.649-1.183,1.29-2.369,1.961-3.541c1.108-1.935,4.038-0.959,4.064,1.155
		c0.041,3.13,1.449,5.367,3.774,6.904c4.789-4.222,9.687-9.116,15.39-11.828c1.293-0.615,3.099,0.788,2.119,2.172
		c-4.007,5.65-10.31,9.858-15.606,14.257c-0.869,0.721-1.846,0.836-2.867,0.334c-2.884-1.419-4.902-3.5-6.054-6.081
		c-0.189,0.296-0.373,0.594-0.561,0.891c-0.701,1.103-2.218,1.288-3.153,0.367c-2.011-1.979-4.021-3.959-6.03-5.938
		C978.773,635.087,981.495,632.46,983.284,634.149z"/>
	<path fill="#ADCEEA" d="M372.044,981.866c-12.606-8.91-20.302-23.841-33.955-31.16c-22.305-11.957-39.345,1.726-60.93,5.192
		c-12.064,1.937-24.58,0.08-35.624-5.059c-16.181-7.529-26.686-25.164-44.448-29.363c-43.648-10.317-79.42,36.674-82.554,75.139
		c96.351-2.082,192.812,0.328,289.247,0.294C392.421,993.488,381.605,988.624,372.044,981.866z"/>
	<path fill="#A15B4F" d="M574.865,400.207c-3.745,0.852-7.92,1.336-11.476,0.598c-11.326,81.273-15.908,163.39-26.447,244.699
		c3.724-3.067,7.444-6.139,11.17-9.198C556.135,557.557,563.848,478.599,574.865,400.207z"/>
	<path fill="#A15B4F" d="M395.433,728.092c-0.271,12.926,6.655,22.089,16.432,29.663c1.483,1.149,0.65,4.049-1.432,3.283
		c-13.046-4.796-19.874-19.812-19.023-32.996c0.017-0.257,0.095-0.469,0.178-0.674c-11.268,0.581-22.536,1.166-33.808,1.72
		c-13.74,32.745,27.948,45.291,52.142,46.295c14.969,0.621,30.007,0.314,44.98,0.024c18.657-0.362,37.446-1.427,56.212-2.051
		c-5.242-4.435-8.833-11.993-10.525-17.898c-0.802-2.797,3.528-3.906,4.352-1.142c1.175,3.939,2.933,7.548,5.307,10.903
		c2.106,2.976,5.01,5.148,7.227,7.941c11.645-0.314,23.274-0.412,34.848,0.007c0.52,0.019,0.967,0.133,1.357,0.304
		c2.699-2.317,5.51-4.521,8.578-6.458c14.378-9.079,31.946-12.999,48.363-7.416c4.71,1.602,8.676,4.246,12.282,7.352
		c14.527-2.734,28.134-8.107,40.047-16.487c-36.129,5.825-97.146,5.189-111.921-29.62c-32.131,3.252-64.911,2.47-97.182,3.649
		c-19.548,0.715-39.077,1.686-58.605,2.69C395.363,727.439,395.44,727.736,395.433,728.092z"/>
	<path fill="#C6877D" d="M551.123,716.213c1.396,0.088,2.08,1.015,2.163,2.015c14.78,12.179,28.366,20.541,47.48,24.306
		c24.554,4.837,48.489,2.679,73.052-0.583c0.616-0.216,1.229-0.159,1.809,0.018c19.658-24.175,41.412-46.954,63.275-69.498
		c-2.594-21.916-2.915-44.239-3.222-66.419c-6.62,22.151-13.444,44.961-23.178,65.59c0.383,1.111-0.096,2.51-1.446,2.871
		c-20.981,5.607-48.506,0.624-70.012,0.314c-25.072-0.362-51.653,1.659-76.503-2.041c-1.399-0.208-1.858-1.858-1.428-3.074
		c-2.933-16.815,7.296-33.027,22.387-39.525c0.95-6.756,1.905-13.539,2.866-20.339c-37.111,39.908-83.648,73.381-127.341,105.934
		C491.341,714.487,521.626,714.356,551.123,716.213z"/>
	<path fill="#FDB4B1" d="M589.686,388.052c6.55-4.134,6.465-8.94,6.639-15.972c0.17-6.87-0.732-15.154-9.511-15.378
		c-10.376-0.265-16.939,4.881-24.968,10.288c-1.531,6.855-3.577,18.757-0.742,24.603
		C565.201,400.037,583.795,391.771,589.686,388.052z"/>
	<path fill="#A15B4F" d="M692.321,317.123c-2.318,1.264-2.423,3.912-2.423,6.244c-0.001,0.042-0.028,0.067-0.03,0.107
		c0.831,2.106,5.749,1.852,7.363,1.251c2.193-0.816,5.651-3.458,3.713-5.974C699.286,316.601,694.626,315.866,692.321,317.123z"/>
	<path fill="#FFF7EA" d="M594.968,352.178c0.07,0.031,0.124,0.071,0.193,0.102c-0.175-1.259-0.34-2.52-0.534-3.776
		c-5.746-7.408-10.961-8.344-15.644-2.809c-1.497,1.322-3.425,0.918-4.527-0.64c-6.884-9.739-15.165,3.514-15.809,10.209
		c-0.154,1.6-1.279,2.877-2.958,2.886c-6.397,0.034-6.822,15.31-6.275,19.253c0.618,4.458,2.358,6.41,4.894,7.996
		c-0.024-7.09,1.799-14.941,3.491-19.716c-0.236-0.673-0.242-1.42,0.192-2.093C564.756,353.07,583.256,347.044,594.968,352.178z"/>
	<path fill="#B37262" d="M633.808,322.952c-6.659-2.227-12.845-5.97-17.883-10.787c-6.544,4.465-13.992,7.758-20.674,12.03
		c-6.832,4.369-13.321,9.187-19.665,14.217c0.581,0.392,1.136,0.832,1.666,1.319c12.311-8.848,24.478-1.573,22.66,14.761
		c-0.045,0.4-0.221,0.738-0.443,1.042c0.195,0.244,0.354,0.512,0.527,0.77c9.003-4.024,20.29-6.979,31.94-8.298
		c1.119-2.763,2.407-5.314,3.625-7.777C629.642,336.7,630.082,329.615,633.808,322.952z"/>
	<path fill="#D6998C" d="M704.015,328.873c-2.445,1.873-5.52,3.032-8.464,3.142c-3.061,0.114-6.365-1.056-8.583-3.058
		c-10.596,9.738-33.283,15.602-46.422,13.067c-2.009-0.388-3.654-1.004-4.985-1.797c-1.218,2.464-2.506,5.014-3.625,7.777
		c16.911-1.915,34.594-0.35,47.226,6.662c3.531-1.346,7.827-1.771,12.398-1.458c0.109-0.175,0.222-0.35,0.407-0.512
		c5.475-4.79,12.226-9.255,19.89-8.461c1.536,0.159,2.873,0.637,4.111,1.247c1.92-1.492,3.873-2.935,5.827-4.377
		C714.797,339.426,707.775,334.714,704.015,328.873z"/>
	<path fill="#D6998C" d="M74.575,797.523c-1.623-2.798-3.244-5.596-4.863-8.396c-1.502-6.575-5.338-7.802-11.477-3.748
		c0.002,0.003,0.005,0.005,0.006,0.008c3.248,6.805,6.637,13.494,10.113,20.113c3.267-0.608,6.536-1.207,9.809-1.799
		C76.968,801.64,75.77,799.583,74.575,797.523z"/>
	<path fill="#ADCEEA" d="M982.927,886.112c-9.121,3.497-19.129,4.601-28.778,2.921c-14.982-2.609-26.585-12.809-42.785-9.679
		c-15.709,3.035-31.775,14.868-45.571,22.328c-8.99,4.862-17.929,9.945-27.042,14.637c12-0.001,23.953-0.059,35.825-0.273
		c69.08-1.244,138.161-2.476,207.232-4.153c0.1-0.003,0.166,0.044,0.263,0.047c25.409-26.148,12.098-67.884-25.861-71.511
		C1019.34,836.906,1012.371,874.825,982.927,886.112z"/>
	<path fill="#FFF7EA" d="M1114.712,729.379c-2.196,1.356-4.054-1.296-3.168-3.247c2.468-4.648,3.948-9.512,4.644-14.546
		c-11.877,16.443-29.377,27.379-49.592,30.668c1.804,12.036,2.976,24.162,3.489,36.384c0.045,1.041,0.063,2.089,0.089,3.135
		c14.523,0.396,27.402-1.68,38.133-11.252c-3.377,0.06-6.606-0.436-10.58-1.706c-2.127-0.68-2.374-3.448-0.546-4.622
		c31.096-19.975,43.747-48.518,46.844-80.764C1139.356,702.11,1130.632,719.551,1114.712,729.379z"/>
	<path fill="#87AFD6" d="M739.934,989.159c-8.272,4.382-19.487,4.979-28.085,5.924c-17.178,1.888-34.583,2.32-51.833,3.163
		c-8.057,0.394-16.119,0.703-24.178,1.061c0.06,2.508,0.077,5.016,0.038,7.528c-0.058,3.664,0.234,7.354-1.288,10.736
		c-0.573,1.273-2.855,1.259-3.392-0.042c-1.427-3.46-0.918-7.077-0.752-10.761c0.109-2.412,0.165-4.822,0.182-7.233
		c-26.54,1.154-53.086,2.185-79.639,2.994c-46.446,1.415-92.914,2.227-139.384,2.612c0.193,6.61,0.367,13.329-0.962,19.768
		c-0.416,2.021-3.726,1.979-4.093-0.05c-1.162-6.432-0.834-13.106-0.481-19.671c-25.556,0.19-51.113,0.289-76.669,0.197
		c-50.063-0.179-100.419,0.118-150.616-1.363c1.206,7.649,1.733,15.999,0.427,23.351c-0.325,1.834-3.004,1.528-3.451-0.042
		c-2.035-7.138-2.455-15.738-2.046-23.458c-20.012-0.641-39.995-1.569-59.922-2.963c0.821,18.842-4.276,42.628,22.417,47.018
		c13.737,2.259,30.492-0.105,44.436-0.153c24.284-0.083,48.569-0.119,72.852-0.178c-0.696-6.951,0.355-14.032,0.986-20.954
		c0.237-2.598,3.914-2.568,4.055,0.05c0.373,6.932,0.444,13.929,0.449,20.89c2.344-0.006,4.688-0.011,7.031-0.017
		c59.548-0.169,119.099-0.451,178.643-1.225c26.396-0.343,52.792-0.81,79.185-1.337c-0.381-7.344-0.395-15.207,1.473-22.142
		c0.429-1.595,2.848-1.564,3.237,0.04c1.685,6.927,1.491,14.72,0.939,22.007c31.225-0.64,62.449-1.398,93.666-2.321
		c25.69-0.759,51.379-1.615,77.061-2.6c0.149-4.096,0.294-8.203,0.857-12.254c0.351-2.521,3.641-2.475,3.929,0.048
		c0.453,3.977,0.505,7.997,0.552,12.009c2.166-0.085,4.332-0.152,6.499-0.24c9.229-0.372,25.947,1.621,29.456-10.872
		c1.127-4.011-0.6-10.547-0.82-14.712C740.264,1005.698,740.066,997.431,739.934,989.159z"/>
	<path fill="#E8D7C7" d="M740.071,297.175c-9.706,3.518-20.183,5.393-31.099,5.259c-16.31-0.201-31.534-4.849-44.565-12.749
		c-32.603-9.579-60.42-28.836-70.58-63.036c-0.078,1.576-0.229,3.029-0.458,4.239c-0.363,1.922-2.826,1.357-3.39-0.042
		c-1.013-2.511-2.903-16.447-5.004-17.392c-12.568-5.654-7.777,20.507-6.957,24.162c3.106,13.843,12.292,33.366,26.199,39.63
		c0.183-0.813,0.376-1.627,0.623-2.445c0.889-2.953,5.225-1.646,4.567,1.32c-2.996,13.51,3.339,27.172,14.831,34.707
		c12.174,7.982,24.521,5.925,38.12,7.032c1.893,0.154,3.028,2.957,1.007,3.909c-7.929,3.734-16.609,4.284-24.846,2.486
		c-7.03,21.336,32.467,4.509,45.967,0.488c-0.148-0.843-0.109-1.743,0.114-2.68c-1.8-4.09,2.156-10.195,6.098-11.763
		c6.157-2.448,16.313,0.599,17.853,7.777c0.538,2.504,0.057,4.831-1.057,6.845c5.118,5.885,13.901,9.367,21.197,11.267
		c20.457-14.184,42.618-25.658,66.286-33.757c10.771-3.686,21.556-6.531,30.7-5.089c4.746-5.779,10.703-9.904,14.078-17.077
		c1.651-3.509,2.713-7.295,2.916-11.196c0.243-4.653-2.351-10.933-7.774-11.051c-2.961,2.431-6.052,4.585-9.275,6.304
		c-1.243,0.663-2.901-0.641-2.356-1.94c-21.012,15.693-43.009,28.095-69.456,33.631
		C749.361,296.514,744.761,296.897,740.071,297.175z"/>
	<path fill="#FFF7EA" d="M849.844,227.265c4.699-8.838,8.977-19.707,9.554-29.904c0.901-15.933-14.883-13.822-24.907-7.295
		c-2.857,1.86-5.288-2.644-2.583-4.546c2.587-1.819,6.173-4.114,10.079-5.918c6.562-20.793,10.954-41.983,5.979-63.777
		c-7.21-31.585-31.35-34.99-59.314-31.037c-4.107,5.337-11.232,9.531-17.305,10.279c-2.375,0.292-3.863-2.613-1.635-4.016
		c7.229-4.551,25.296-12.728,7.397-20.872c-5.251-2.389-13.933-1.318-19.565-0.69c-9.651,1.077-18.856,3.969-27.954,7.221
		c1.536,7.271-5.611,16.339-16.535,19.174c-2.018,0.524-3.746-2.197-2.067-3.653c7.759-6.723,15.817-17.96-0.901-18.34
		c-7.789-0.178-15.799,1.73-23.199,4.011c-14.725,4.541-27.916,12.508-40.076,21.807c0.091,0.09,0.193,0.152,0.284,0.247
		c9.007,9.498-1.209,28.692-7.853,36.346c-1.396,1.607-4.307-0.159-3.574-2.14c1.666-4.505,9.158-20.241,7.144-23.82
		c-2.955-5.252-13.54-2.364-17.553-1.041c-9.717,3.202-19.289,15.238-25.067,23.337c-14.601,20.466-16.374,44.073-18.305,68.142
		c1.075,0.035,2.218,0.308,3.452,0.954c6.9,3.614,8.913,16.345,8.487,24.915c10.16,34.2,37.977,53.457,70.58,63.036
		c-25.888-15.694-43.083-44.275-42.684-76.675c0.599-48.712,40.713-87.852,89.423-87.253c30.754,0.378,57.68,16.519,73.212,40.62
		c0.185,0.196,0.32,0.414,0.409,0.654c8.811,13.937,13.85,30.472,13.632,48.153c-0.465,37.793-24.727,69.812-58.327,81.992
		c4.69-0.278,9.29-0.66,13.737-1.161c26.447-5.536,48.443-17.938,69.456-33.631c0.045-0.107,0.075-0.214,0.152-0.319
		C832.026,250.151,842.828,240.463,849.844,227.265z M618.543,150.848c-7.446,7.173-11.589,19.03-11.994,29.211
		c-0.131,3.279-5.218,3.221-5.101-0.063c0.412-11.49,5.144-25.169,15.226-31.634C618.203,147.381,619.799,149.638,618.543,150.848z
		 M810.159,162.247c-1.1,1.475-3.88,0.609-3.168-1.382c2.275-6.367,5.717-12.127,8.903-18.081c1.848-3.454,4.923-7.945-1.229-9.378
		c-0.91-0.212-6.676,2.395-7.242,2.567c-1.65,0.499-3.679-1.306-2.961-3.035c1.621-3.902,8.067-18.424,5.061-21.904
		c-5.927-6.86-15.709,9.764-17.475,12.449c-1.452,2.207-4.96,0.125-3.53-2.122c3.346-5.26,12.799-21.544,20.939-18.911
		c8.534,2.761,4.652,17.993,1.583,26.824c5.197-2.238,11.603-4.509,13.889,1.98c0.99,2.807-0.668,5.787-1.806,8.238
		C819.557,147.183,815.208,155.48,810.159,162.247z"/>
	<path fill="#D6998C" d="M149.818,924.013c-15.164-23.193-28.853-47.333-42.901-71.211c-7.473-12.703-14.962-25.397-22.38-38.133
		c-1.22-2.094-2.434-4.191-3.651-6.286c-3.471,0.369-6.935,0.718-10.397,1.054c21.981,41.185,47.75,79.346,72.063,119.455
		C144.866,927.145,147.305,925.534,149.818,924.013z"/>
	<path fill="#87AFD6" d="M1023.055,921.235c0.49,6.901,0.607,14.602-1.384,20.873c-0.571,1.801-3.416,1.947-3.848-0.047
		c-1.419-6.557-0.389-13.8-0.318-20.706c-46.498,0.968-92.999,1.854-139.5,2.686c-21.347,0.382-42.693,0.783-64.039,1.178
		c0.411,7.927,0.894,16.315-0.887,23.888c-0.429,1.823-3.313,1.786-3.697-0.046c-1.585-7.567-0.913-15.882-0.31-23.753
		c-10.948,0.203-21.896,0.394-32.844,0.604c-30.596,0.587-61.811,2.646-92.466,1.169c17.374,10.573,33.93,22.507,51.186,33.264
		c6.671,4.158,14.075,9.111,14.99,15.076c50.227-1.264,100.499-1.491,150.753-1.717c0.658-9.263-0.161-19.982,3.375-28.405
		c0.588-1.4,3.131-1.9,3.421,0.042c1.343,8.981-0.203,19.177-1.524,28.337c10.349-0.047,20.699-0.091,31.045-0.152
		c31.902-0.189,63.804-0.343,95.706-0.481c17.473-0.076,43.889,5.246,46.909-18.479c1.422-11.16,0.428-23.16,0.107-34.552
		C1060.839,920.468,1041.947,920.837,1023.055,921.235z"/>
	<path fill="#FD8580" d="M783.842,241.753c-4.537,0.073-7.26,1.649-10.025,4.367c0.969,0.634,4.868,0.824,4.991,0.81
		c1.354-0.162,2.616-0.491,3.882-1c1.011-0.407,2.787-0.979,3.435-1.914C787.441,242.116,785.539,241.725,783.842,241.753z"/>
	<path fill="#B37262" d="M765.156,322.595c-15.428,7.536-30.195,16.263-44.496,25.744c1.512,0.946,3.041,1.74,4.805,1.949
		c6.873,0.815,11.643-2.252,17.077,3.941c2.895,3.299,3.714,7.158,3.292,11.133c10.839,1.812,15.678,10.897,13.542,21.292
		c15.117-0.276,30.832-2.313,44.809-8.297c-2.2-4.709-2.949-10.438-2.533-16.115c-2.64-0.885-5.268-1.82-7.915-2.742
		c-2.68-0.934-1.497-5.152,1.231-4.262c2.436,0.795,4.864,1.576,7.278,2.386c0.851-4.504,2.389-8.757,4.578-12.099
		c2.686-4.1,6.613-7.033,11.095-8.958c-0.328-3.549,0.005-7.164,0.859-10.078c0.849-2.895,4.842-1.553,4.384,1.267
		c-0.396,2.433-0.559,4.788-0.371,7.165c6.203-1.572,12.95-1.483,18.857,0.042c1.111-7.189-0.038-14.495-4.582-21.28
		C822.392,291.771,782.565,314.091,765.156,322.595z"/>
	<path fill="#774346" d="M661.492,194.593c5.699-1.652,10.644-4.36,15.565-7.188c-7.947,0.174-15.706-2.296-20.996-9.015
		c-2.104-2.672,1.43-6.361,3.868-3.774c7.951,8.44,19.743,5.524,30.028,5.584c2.512,0.014,2.841,3.006,1.17,4.23
		c-0.063,0.241-0.149,0.484-0.303,0.727c-2.803,4.432-6.62,8.001-11.031,10.839c26.484,6.224,49.921,2.654,74.258-8.397
		c-11.428-2.265-22.194-9.787-26.331-20.632c-0.937-2.457,2.99-3.909,4.18-1.702c2.671,4.953,6.316,8.065,10.456,10.368
		c6.336,0.639,12.722,0.421,18.94-1.128c6.02-1.499,11.06-4.5,16.436-7.122c-14.664-21.181-38.995-35.222-66.659-35.562
		c-39.384-0.485-72.721,26.936-81.194,63.86c0.003,0.001,0.006-0.001,0.008,0C640.535,197.505,651.015,197.63,661.492,194.593z"/>
	<path fill="#D6998C" d="M756.614,394.321c-2.904,5.573-8.522,9.401-14.703,10.994c7.037,21.921,9.034,45.564,9.559,69.273
		c7.602,0.755,15.3,3.222,22.375,5.806c5.335,1.949,13.935,4.536,17.305,9.452c0.124,0.18,0.188,0.351,0.293,0.528
		c14.244-10.269,15.155-49.54,16.811-63.206c1.853-15.304,3.123-30.685,5.245-45.953c-17.891,9.004-39.357,13.26-56.605,12.504
		C756.794,393.921,756.718,394.121,756.614,394.321z M772.49,441.869c2.899-6.183,6.779-10.899,8.144-17.907
		c1.019-2.93,5.138-1.662,4.573,1.321c-0.14,0.733-0.306,1.489-0.483,2.25c3.719-5.721,6.903-11.701,9.494-18.074
		c0.953-2.34,4.749-1.32,3.836,1.109c-3.141,8.356-7.142,16.181-12.14,23.584c-0.864,1.279-2.421,1.37-3.491,0.478
		c-1.684,3.937-4.067,7.546-7.495,9.741C773.26,445.439,771.792,443.356,772.49,441.869z"/>
	<path fill="#FD8580" d="M709.543,269.812c1.135-0.456,3.128-1.099,3.856-2.148c1.477-2.132-0.657-2.57-2.562-2.539
		c-5.092,0.082-8.147,1.851-11.25,4.901c1.088,0.712,5.464,0.925,5.601,0.908C706.707,270.752,708.124,270.382,709.543,269.812z"/>
	<path fill="#FDB4B1" d="M709.046,296.368c32.036,0.394,60.061-17.681,73.973-44.305c-2.711,0.705-5.5,0.878-7.709,0.465
		c-2.614-0.489-5.339-1.83-6.126-4.596c-0.376-1.323-0.222-2.631,0.307-3.764c0.559-4.759,7.844-7.13,11.909-7.677
		c2.219-0.299,5.178-0.072,7.557,0.893c2.092-7.077,3.28-14.542,3.375-22.276c0.192-15.569-3.977-30.195-11.369-42.715
		c-6.342,5.629-15.132,8.419-24.017,9.102c2.055,0.742,4.112,1.531,6.13,2.458c1.718,0.789,1.326,2.885,0.095,3.851
		c-0.124,0.319-0.312,0.628-0.652,0.902c-24.217,19.503-59.078,22.858-87.579,11.127c-0.404-0.166-0.707-0.405-0.956-0.675
		c-14.011,6.358-31.914,6.599-45.192,2.138c-0.604,3.848-0.955,7.781-1.004,11.788C627.23,258.447,663.684,295.81,709.046,296.368z
		 M758.672,222.956c1.436-5.703,6.615-9.696,12.567-9.399c5.05,0.252,11.682,4.622,10.432,10.323
		c-0.321,1.463-2.271,2.171-3.49,1.37c-2.326-1.528-3.544-4.21-6.444-4.918c-3.112-0.76-6.387,1.329-7.634,4.193
		C762.691,227.77,757.756,226.592,758.672,222.956z M754.502,263.494c-0.474,3.094-3.138,5.619-6.383,4.411
		c-3.427-1.275-4.199-5.762-2.248-8.587c0.106-0.153,0.278-0.216,0.411-0.335c0.556-1.43,2.083-2.606,3.896-2.512
		C753.715,256.654,754.956,260.528,754.502,263.494z M740.106,239.469c3.455,0.383,7.181-1.264,9.798-3.462
		c1.146-0.963,3.315-0.033,2.713,1.625c-0.984,2.712-2.41,4.475-5.123,5.643c-2.577,1.109-5.326,1.14-8.007,0.378
		C737.226,243.008,737.676,239.2,740.106,239.469z M711.047,232.377c5.186-1.937,12.047-1.028,14.263,4.592
		c0.447,1.137-0.736,2.451-1.864,2.385c-3.166-0.187-6.503-1.546-9.637-0.621c-3.587,1.059-5.778,4.521-6.475,8.018
		c-0.642,3.223-5.469,2.222-5.507-0.815C701.75,239.829,705.284,234.531,711.047,232.377z M694.733,267.835
		c0.627-5.341,8.803-8.002,13.364-8.616c5.572-0.749,15.322,1.419,12.577,9.336c-2.37,6.833-13.05,9.85-19.412,8.66
		c-2.933-0.549-5.991-2.054-6.873-5.158C693.966,270.574,694.138,269.107,694.733,267.835z"/>
	<path fill="#FFF7EA" d="M823.661,339.473c0.735,2.318,1.825,4.491,2.441,6.849c0.503,1.93-1.811,2.979-3.173,1.795
		c-1.978-1.719-3.293-4.131-4.112-6.804c-4.364,2.154-7.979,5.493-9.964,10.25c-0.962,2.305-1.686,4.906-2.197,7.629
		c2.663,0.993,5.296,2.065,7.855,3.374c1.693,0.866,0.363,3.109-1.231,2.822c-2.458-0.443-4.849-1.077-7.221-1.772
		c-0.409,4.57-0.18,9.257,0.814,13.454c1.158-0.548,2.337-1.051,3.466-1.658c12.385-6.662,26.237-20.941,30.435-36.345
		C835.343,337.903,829.205,337.929,823.661,339.473z"/>
	<path fill="#182D5C" d="M708.972,302.433c48.71,0.599,88.827-38.541,89.426-87.251c0.218-17.681-4.821-34.216-13.632-48.153
		c-0.089-0.24-0.224-0.458-0.409-0.654c-15.532-24.101-42.458-40.241-73.212-40.62c-48.71-0.599-88.823,38.541-89.423,87.253
		C621.123,261.718,660.262,301.834,708.972,302.433z M786.125,244.015c-0.649,0.935-2.424,1.508-3.435,1.914
		c-1.266,0.508-2.528,0.838-3.882,1c-0.122,0.015-4.022-0.175-4.991-0.81c2.765-2.718,5.488-4.294,10.025-4.367
		C785.539,241.725,787.441,242.116,786.125,244.015z M711.071,131.822c27.664,0.34,51.996,14.381,66.659,35.562
		c-5.377,2.622-10.416,5.622-16.436,7.122c-6.218,1.548-12.604,1.767-18.94,1.128c-4.14-2.303-7.785-5.415-10.456-10.368
		c-1.19-2.207-5.117-0.755-4.18,1.702c4.138,10.845,14.903,18.368,26.331,20.632c-24.337,11.05-47.774,14.621-74.258,8.397
		c4.411-2.838,8.229-6.408,11.031-10.839c0.154-0.243,0.24-0.487,0.303-0.727c1.671-1.224,1.342-4.215-1.17-4.23
		c-10.284-0.06-22.076,2.856-30.028-5.584c-2.438-2.587-5.972,1.102-3.868,3.774c5.289,6.718,13.049,9.189,20.996,9.015
		c-4.921,2.828-9.866,5.536-15.565,7.188c-10.477,3.037-20.957,2.912-31.606,1.089c-0.003-0.001-0.006,0.001-0.008,0
		C638.35,158.758,671.687,131.337,711.071,131.822z M628.793,201.296c13.277,4.461,31.18,4.221,45.192-2.138
		c0.249,0.27,0.553,0.509,0.956,0.675c28.501,11.73,63.362,8.376,87.579-11.127c0.339-0.274,0.528-0.583,0.652-0.902
		c1.23-0.966,1.623-3.062-0.095-3.851c-2.018-0.927-4.075-1.715-6.13-2.458c8.885-0.683,17.675-3.473,24.017-9.102
		c7.392,12.52,11.561,27.146,11.369,42.715c-0.095,7.734-1.283,15.199-3.375,22.276c-2.38-0.965-5.338-1.192-7.557-0.893
		c-4.065,0.547-11.35,2.918-11.909,7.677c-0.53,1.133-0.684,2.441-0.307,3.764c0.786,2.766,3.511,4.107,6.126,4.596
		c2.209,0.413,4.998,0.24,7.709-0.465c-13.911,26.624-41.937,44.699-73.973,44.305c-45.362-0.558-81.816-37.92-81.258-83.284
		C627.838,209.077,628.189,205.144,628.793,201.296z"/>
	<path fill="#182D5C" d="M707.334,246.752c0.698-3.497,2.888-6.959,6.475-8.018c3.133-0.925,6.47,0.434,9.637,0.621
		c1.129,0.066,2.312-1.248,1.864-2.385c-2.216-5.62-9.077-6.53-14.263-4.592c-5.763,2.153-9.297,7.452-9.221,13.56
		C701.865,248.973,706.691,249.974,707.334,246.752z"/>
	<path fill="#182D5C" d="M764.104,224.526c1.247-2.863,4.522-4.952,7.634-4.193c2.9,0.708,4.118,3.39,6.444,4.918
		c1.219,0.801,3.169,0.093,3.49-1.37c1.25-5.701-5.381-10.071-10.432-10.323c-5.952-0.298-11.131,3.696-12.567,9.399
		C757.756,226.592,762.691,227.77,764.104,224.526z"/>
	<path fill="#182D5C" d="M739.487,243.652c2.681,0.763,5.431,0.731,8.007-0.378c2.713-1.167,4.139-2.931,5.123-5.643
		c0.602-1.657-1.567-2.587-2.713-1.625c-2.617,2.199-6.343,3.845-9.798,3.462C737.676,239.2,737.226,243.008,739.487,243.652z"/>
	<path fill="#182D5C" d="M746.283,258.984c-0.134,0.119-0.306,0.182-0.411,0.335c-1.951,2.824-1.179,7.311,2.248,8.587
		c3.245,1.208,5.909-1.317,6.383-4.411c0.454-2.965-0.787-6.84-4.324-7.022C748.366,256.378,746.839,257.554,746.283,258.984z"/>
	<path fill="#182D5C" d="M701.262,277.216c6.362,1.19,17.042-1.827,19.412-8.66c2.745-7.917-7.005-10.086-12.577-9.336
		c-4.561,0.614-12.737,3.275-13.364,8.616c-0.595,1.272-0.767,2.738-0.345,4.223C695.271,275.162,698.329,276.667,701.262,277.216z
		 M710.837,265.125c1.905-0.031,4.039,0.407,2.562,2.539c-0.728,1.049-2.721,1.692-3.856,2.148c-1.419,0.57-2.836,0.94-4.355,1.122
		c-0.136,0.016-4.512-0.197-5.601-0.908C702.69,266.976,705.745,265.206,710.837,265.125z"/>
	<path fill="#182D5C" d="M1012.474,570.503c2.547-2.594,6.079-3.943,9.674-2.841c3.557,1.09,5.101,4.008,7.064,6.845
		c1.059,1.531,3.697,1.145,3.701-0.954c0.011-5.226-4.559-9.454-9.347-10.798c-5.268-1.48-10.771,0.38-14.455,4.301
		C1006.997,569.308,1010.292,572.726,1012.474,570.503z"/>
	<path fill="#182D5C" d="M1143.761,643.42c-1.573,24.333-5.843,58.779-25.106,76.87c1.708-5.545,2.62-11.104,2.68-17.378
		c0.022-2.297-3.215-3.311-4.384-1.245c-11.021,19.471-29.275,32.46-50.931,36.944c-0.753-4.675-1.598-9.336-2.547-13.983
		c17.384-0.741,28.852-8.831,31.319-27.784c2.53-19.439-1.817-45.237-9.955-63.462c3.677-8.112,3.458-22.435,3.705-30.54
		c3.76-11.793,12.7-19.92,17.619-31.137c5.468-12.474,7.131-27.238,8.725-40.673c1.329-11.203,4.611-41.311-11.571-43.98
		c-0.365-0.431-0.908-0.745-1.633-0.815c-14.802-1.429-19.478,23.94-24.487,33.653c-3.141,6.091-7.646,11.024-11.982,15.627
		c-0.232-0.355-0.509-0.697-0.905-0.986c-11.114-8.141-24.632-13.095-38.346-12.1c0.024-0.192,0.019-0.397-0.032-0.616
		c-2.341-10.037-7.172-19.828-11.42-29.176c-2.25-4.951-4.619-9.324-8.808-12.245c-0.024-0.03-0.031-0.064-0.056-0.094
		c-3.871-4.456-9.233-8.01-15.093-4.701c-5.871,3.315-6.202,11.84-7.631,17.798c-3.761,15.69-9.615,37.976,2.726,50.881
		c-4.984,4.32-9.972,8.552-15.302,11.897c-0.266,0.166-0.444,0.377-0.584,0.602c-3.033,0.13-5.972,1.073-6.6,3.78
		c-0.08,0.345-0.019,0.727,0.131,1.071c-0.711,2.139-0.899,4.519-0.358,6.665c-3.088,1.69-4.85,5.095-5.304,8.631
		c-0.338,2.633-0.19,6.56,1.35,9.172c-5.644,7.114-6.452,19.846-1.745,26.575c1.014,1.45,2.059,2.454,3.115,3.115
		c-0.547,2.599-1.29,5.172-2.413,7.568c-1.002,2.137-2.419,3.77-3.826,5.454c-3.126-1.729-6.874-2.871-10.201-2.296
		c-16.3-27.655-6.253-66.063-27.399-91.727c-10.94-13.278-32.301-13.551-43.788-1.729c-38.26-2.076-77.132,0.559-115.529,0.03
		c3.306-9.677,6.146-19.628,9.014-29.496c6.932,0.204,15.611-2.655,21.866-5.211c1.44-0.589,2.603-1.409,3.355-2.407
		c14.907-6.635,16.453-27.374,18.987-41.647c4.487-25.28,7.63-51.071,9.564-76.676c21.641-13.054,35.756-33.847,25.733-61.846
		c-2.944-8.225-7.266-13.193-12.468-15.967c9.38-5.959,15.469-19.432,16.143-29.538c0.472-7.087-3.049-14.88-9.174-17.101
		c14.007-14.129,23.817-35.156,25.577-53.245c0.666-6.847,0.965-16.852-5.427-21.263c-2.967-2.048-6.549-2.366-10.236-1.74
		c9.297-23.585,11.027-53.542,0.361-76.365c-11.09-23.73-35.841-27.663-58.818-21.811c1.043-4.331-0.322-8.848-5.866-12.642
		c-15.692-10.741-42.143-1.559-58.535,6.152c-2.2-2.401-5.893-4.259-11.431-5.064c-26.774-3.891-54.433,12.279-73.804,29.817
		c-8.198-1.966-19.255,5.276-24.961,9.11c-30.506,20.492-44.916,60.916-40.103,96.581c-3.147,2.808-5.112,8.01-5.933,11.636
		c-4.741,20.95,7.742,63.413,32.482,67.352c-0.88,9.788,2.593,18.975,8.632,26.371c-15.11,5.167-29.95,17.457-41.264,28.353
		c-2.297-0.45-4.758-0.293-7.267,0.64c-6.631,2.467-9.457,9.075-10.492,15.573c-15.792,3.761-11.446,40.13,1.891,39.419
		c0.723,2.997,2.041,5.503,4.202,7.053c0.189,0.135,0.421,0.206,0.619,0.327c-6.956,41.012-11.468,82.493-16.01,123.823
		c-4.568,41.556-11.456,84.281-11.744,126.231c-26.671,22.002-53.217,44.183-79.306,66.651c-8.384,0.416-16.764,0.917-25.125,1.486
		c-4.051-20.343-22.677-29.125-42.798-27.824c-33.171,2.143-57.654,31.748-84.303,48.16
		c-66.003,40.647-141.969,51.342-216.742,64.705c-0.988-1.658-1.987-3.312-2.968-4.972c-3.38-5.709-11.491-27.318-21.412-26.173
		c-8.092,0.934-7.791,9.086-5.363,14.804c-0.057,0.416-0.041,0.854,0.174,1.317c3.401,7.322,6.89,14.71,10.463,22.115
		c0.293,14.949-4.525,30.072-8.107,44.415c-2.658,10.638-8.256,24.099-6.129,35.166c0.258,1.342,2.069,1.12,2.475,0.03
		c4.877-13.087,6.543-28.848,9.702-42.517c1.686-7.292,3.514-14.814,4.61-22.382c4.485,33.681,1.634,68.847,11.499,101.38
		c0.544,1.793,3.016,1.06,2.759-0.724c-4.666-32.335-3.022-66.751-8.857-99.188c18.739,37.325,40.221,74.334,66.773,105.445
		c-19.787,16.453-31.401,41.151-31.24,67.276c0.005,0.718,0.245,1.263,0.567,1.725c-1.209,17.912-6.568,42.724,13.08,52.125
		c13.286,6.358,33.314,2.433,47.602,2.446c17.305,0.016,34.611,0.024,51.917,0.001c73.165-0.097,146.329-0.352,219.489-1.1
		c73.115-0.748,146.23-1.972,219.302-4.672c17.276-0.639,34.55-1.352,51.821-2.121c9.602-0.427,25.21,2.224,32.765-5.78
		c3.964-4.198,3.953-8.872,4.117-14.227c0.436-14.275-1.326-29-1.937-43.4c1.297-1.486,2.16-2.921,2.631-4.305
		c73.987,0.874,148.039-0.358,222.025-0.984c18.137-0.153,36.275-0.339,54.413-0.51c14.151-0.134,32.831,2.961,46.505-0.506
		c8.148-2.066,10.484-6.045,11.384-14.272c1.563-14.316,0.432-29.43,0.077-43.919c0.898-0.656,1.431-1.625,1.594-2.694
		c17.543-12.879,22.987-38.608,12.911-58.245c-4.982-9.709-13.728-16.802-23.882-21.086c-0.53-6.283-2.164-12.263-3.082-18.553
		c-1.535-10.527-1.157-21.432-1.237-32.175c17.229,4.083,35.535-3.933,46.578-17.443c1.546-1.893,0.225-4.876-2.416-4.27
		c-2.753-0.134-5.505-0.268-8.257-0.402c40.768-28.694,46.807-72.64,42.785-120.821
		C1148.667,640.197,1143.98,640.043,1143.761,643.42z M1088.15,669.792c2.126,13.663,3.53,26.69-4.013,38.724
		c-5.596,8.928-12.45,10.76-21.522,12.038c-0.784-3.61-1.606-7.214-2.51-10.807c-0.082-0.323-0.255-0.54-0.386-0.804
		c2.014-7.854-0.899-17.251-5.666-23.435c-3.626-4.704-9.995-10.127-16.429-10.341c-0.15-0.953-0.625-1.88-1.555-2.6
		c-3.558-2.754-7.298-5.113-11.129-7.289c8.881-2.553,17.055-8.089,22.356-15.514c6.354,6.449,18.602-5.013,23.198-13.684
		c3.072,3.275,5.806,6.009,10.547,2.284C1082.931,648.889,1086.503,659.205,1088.15,669.792z M1053.348,707.798
		c-6.004,3.186-8.151,11.082-16.335,4.023c-10.019-8.641-8.959-21.121-2.401-31.363c5.889,2.571,11.083,4.35,14.978,10.22
		C1053.288,696.253,1052.945,701.809,1053.348,707.798z M1066.496,542.959c2.756-3.15,5.379-5.973,7.818-8.979
		c-0.752,4.377-1.5,8.754-2.26,13.13c-1.539,8.874-2.467,17.921-11.729,20.949C1056.92,557.834,1059.15,551.351,1066.496,542.959z
		 M989.661,490.86c1.965-6.231,5.361-11.011,13.021-6.817c0.51,0.279,1.005,0.333,1.468,0.28c4.484,4.24,6.293,11.154,8.632,16.707
		c3.089,7.332,5.82,14.933,9.973,21.743c-1.823,0.258-3.645,0.605-5.463,1.087c-7.032,1.865-13.228,5.559-19.074,9.959
		c-0.037-0.074-0.058-0.154-0.11-0.221C988.186,520.575,988.655,506.009,989.661,490.86z M984.715,512.884
		c0.933,8.8,4.156,16.963,11.327,22.62c-2.382,1.885-4.718,3.864-7.035,5.865C983.002,533.311,983.044,522.808,984.715,512.884z
		 M969.863,562.275c1.392-0.08,2.579,0.174,3.926,0.444c0.068,0.014,0.103,0.022,0.158,0.033c-0.231,0.537-0.309,1.223-0.474,1.766
		c-0.5,1.64-2.004,5.296-4.331,4.267c-1.84-0.813-2.344-4.034-2.295-6.079C967.81,562.59,968.786,562.337,969.863,562.275z
		 M964.776,571.771c0.553,0.618,1.183,1.188,1.98,1.634c0.452,0.253,0.91,0.409,1.366,0.546c-1.31,2.369-1.629,4.826-1.164,7.206
		c-1.587,0.268-3.029,0.837-4.328,1.646c-0.278-1.28-0.593-2.563-0.624-3.815C961.929,575.886,962.99,573.789,964.776,571.771z
		 M960.277,594.533c1.184-4.587,4.165-7.337,8.323-9.078c1.408,2.506,3.453,4.756,5.702,6.451c0.557,0.42,1.156,0.805,1.748,1.196
		c-1.956,2.481-3.16,5.458-4.518,8.371c-1.286,2.758-5.448,13.355-10.153,7.968C958.764,606.448,959.368,598.057,960.277,594.533z
		 M964.436,616.677c6.952-1.059,13.561-14.111,15.254-21.445c5.687,2.831,12.302,4.178,18.404,2.771
		c1.5-0.346,1.555-2.685,0.038-3.055c-9.742-2.37-29.293-5.993-25.953-20.15c0.083-0.349,0.058-0.665-0.009-0.961
		c2.447-0.83,4.578-2.881,5.686-5.234c1.792-3.804,3.007-8.704-1.213-10.715c9.805-3.934,16.811-12.078,25.295-18.653
		c18.433-14.285,40.354-11.844,58.711,1.184c-7.782,8.669-12.848,17.21-4.014,31.625c0.569,0.929,1.62,1.198,2.577,1.033
		c0.036-0.006,0.064,0.007,0.1-0.001c0.1-0.021,0.178-0.057,0.278-0.079c0.065-0.02,0.131-0.031,0.194-0.055
		c9.421-2.158,13.12-8.476,14.801-17.615c1.607-8.736,2.933-17.554,3.458-26.42c0.811-1.227,1.602-2.498,2.351-3.876
		c4.875-8.97,9.474-33.825,21.23-34.204c0.071-0.002,0.12-0.034,0.188-0.041c4.708,4.22,7.645,18.85,8.002,24.596
		c0.372,6.001-0.678,12.351-1.473,18.273c-1.352,10.078-2.685,20.795-5.92,30.472c-4.646,13.898-17.854,23.898-18.529,38.9
		c-0.019,0.406,0.089,0.738,0.242,1.035c-1.506,10.535-4.202,32.274-12.684,25.155c-1.459-1.225-4.157-1.057-4.638,1.164
		c-1.016,8.422-6.523,12.687-16.522,12.795c-0.625-2.383-4.144-3.029-5.384-0.771c-5.578,10.158-17.224,16.791-28.743,18.451
		c-3.754-1.659-7.583-3.18-11.573-4.422c-12.254-3.815-26.18-3.561-37.923-8.269c-1.038-6.159-3.832-12.248-8.464-16.435
		C962.073,628.111,963.788,621.983,964.436,616.677z M942.242,632.182c1.652,0.174,3.309,0.049,4.96,0.423
		c2.795,0.633,5.316,2.199,7.266,4.274c3.951,4.207,5.014,9.617,6.383,14.995c0.012,0.049,0.047,0.079,0.061,0.126
		c-0.061,0.105-0.118,0.209-0.183,0.313c-0.641,1.047-1.279,2.073-2.038,3.041c-1.029,1.313-2.339,2.383-3.487,3.582
		c-5.855-2.37-12.369-2.268-16.93-7.4c-5.753-6.472-1.134-13.961,3.797-19.277C942.131,632.239,942.185,632.208,942.242,632.182z
		 M872.539,541.438c12.609-14.282,32.898-12.827,42.203,3.98c4.65,8.4,6.959,19.125,8.605,28.493
		c3.636,20.702,2.925,38.007,14.069,56.781c0.039,0.064,0.086,0.11,0.127,0.171c-5.025,5.551-9.048,12.767-5.67,20.141
		c3.752,8.192,14.641,12.775,23.272,12.174c0.906-0.063,1.514-0.517,1.808-1.109c2.014-0.782,3.797-2.481,5.138-4.023
		c0.602-0.692,1.385-1.636,2.018-2.666c10.795,4.482,22.862,4.112,34.131,7.262c12.205,3.412,23.287,8.562,33.32,16.282
		c-9.536,9.88-8.517,26.375,1.298,35.88c3.264,3.162,8.672,7.411,13.331,5.569c2.141-0.846,4.837-2.894,7.151-5.226
		c5.451,22.746,8.385,45.748,9.096,69.151c0.316,10.379-0.435,21.04,0.672,31.359c0.678,6.332,2.6,12.497,3.624,18.785
		c-13.063-3.45-27.391-2.568-38.832,3.219c-16.594,8.394-23.712,27.051-39.135,36.785c-11.471,7.239-25.722,9.176-38.753,5.54
		c-9.207-2.569-17.312-8-26.963-9.128c-15.622-1.825-29.813,7.019-42.971,14.119c-18.865,10.18-38.67,19.629-56.68,31.322
		c-50.023-0.132-100.654-0.588-149.671,5.417c-0.549,0.067-0.921,0.305-1.211,0.602c-2.423,1.179-3.548,4.924-0.529,6.707
		c17.616,10.395,34.536,21.909,51.886,32.733c3.306,2.062,8.145,3.867,10.8,6.591c8.097,8.307-1.657,14.237-9.401,17.126
		c-14.366,5.359-34.869,3.291-50.106,4.04c-62.612,3.076-125.264,5.267-187.938,6.609c-13.022,0.279-26.045,0.433-39.069,0.563
		c-17.395-2.163-34.93-4.504-51.349-10.839c-11.158-4.305-21.427-10.357-29.952-18.815c-6.488-6.438-11.401-14.15-18.916-19.566
		c-36.263-26.134-73.256,15.678-110.204-7.901c-10.307-6.578-17.92-15.195-27.582-20.911c29.466-15.24,49.86-49.302,70.055-73.988
		c11.75-14.364,23.139-29.548,37.026-41.964c18.462-16.505,38.93-23.372,62.729-25.395c10.508,3.591,22.257,4.528,32.938,4.997
		c44.013,1.935,89.606,1.246,133.655-2.073c-8.018,8.548-14.642,18.461-21.277,28.14c-16.856,24.592-35.889,42.941-64.053,53.876
		c-3.059,1.188-1.925,6.138,1.328,5.057c35.709-11.869,54.798-35.989,76.15-65.314c15.271-20.973,38.412-43.869,67.115-35.804
		c19.62,5.513,24.84,27.652,42.973,34.584c12.069,4.614,24.962,0.211,35.071-6.901c17.157-12.071,27.967-29.021,48.002-37.443
		c47.806-20.098,91.276,5.62,114.772,47.535c1.528,2.725,6.09,0.996,5.151-2.097c-9.993-32.91-42.772-56.509-76.427-59.978
		c-17.795-1.835-36.28,1.579-52.286,9.567c-22.242,11.099-39.929,44.457-65.905,41.385c-13.27-1.569-20.818-12.596-29.97-21.845
		c18.847-2.29,35.573-10.588,49.683-23.622c0.021-0.016,0.037-0.034,0.058-0.05c0.052-0.047,0.107-0.088,0.157-0.135
		c0.097-0.09,0.124-0.194,0.205-0.287c0.119-0.145,0.272-0.271,0.354-0.433c35.832-32.41,67.908-69.844,101.12-104.906
		c31.164-32.9,64.034-64.988,93.243-99.726C872.199,541.718,872.378,541.62,872.539,541.438z M736.074,484.974
		c-54.578-11.022-111.622-12.815-166.301-1.274c0.34-3.423,0.684-6.844,1.025-10.267c54.932-8.413,105.208-13.072,160.398-1.108
		c3.864,0.838,5.836-4.268,3.243-6.153c2.093-20.634-1.458-42.106-7.871-61.842c3.8,1.69,8.146,2.146,12.396,1.557
		c10.277,41.692,6.766,87.553,7.796,130.245c1.003,41.563,1.825,83.136,3.447,124.68c-2.684,2.766-5.367,5.538-8.055,8.308
		c1.506-29.029-0.795-58.533-1.692-87.511c-0.938-30.361-1.856-60.719-3.42-91.054C738.888,489.01,739.043,485.574,736.074,484.974z
		 M668.604,627.718c-9.257,0.593-17.686,4.802-24.019,11.075c2.265-10.933,4.22-21.95,6.061-32.99
		c25.69-6.321,52.545-0.628,74.886,12.624c-6.208,16.968-12.038,34.23-15.989,51.466c-2.125-0.564-4.296-1.054-6.54-1.43
		C705.099,647.623,691.242,626.266,668.604,627.718z M633.244,668.099c-0.514-0.014-1.02-0.016-1.536-0.031
		c1.371-20.495-11.074-42.208-34.072-40.813c-2.173,0.132-4.283,0.51-6.349,1.016c1.887-8.721,3.714-17.546,5.471-26.453
		c11.181-2.795,22.538-3.302,33.925-0.896c4.615,0.975,9.121,3.139,13.658,4.4c-3.015,15.257-5.958,30.534-8.227,45.888
		C633.86,656.466,632.765,662.217,633.244,668.099z M601.109,494.884c1.583,1.043,3.592,1.735,5.526,1.725
		c-6.817,34.862-12.197,70.555-17.224,105.891c-12.331,10.064-24.681,20.161-37.029,30.29
		c7.258-47.815,12.114-95.994,16.899-144.167c9.02-1.233,17.982-2.293,26.908-3.175c-0.016,0.07-0.054,0.128-0.063,0.201
		C595.681,489.382,598.108,492.906,601.109,494.884z M600.552,485.02c2.855-0.263,5.706-0.505,8.555-0.726
		c-0.508,2.448-0.988,4.912-1.479,7.37c-3.547-0.77-6.307-2.253-7.045-6.563C600.577,485.069,600.559,485.051,600.552,485.02z
		 M600.628,581.328c11.492-1.66,22.313-2.856,34.039-0.695c4.639,0.855,9.171,2.608,13.759,3.668
		c-0.913,4.785-1.828,9.571-2.773,14.356c-4.142-2.353-10.248-3.354-13.182-3.924c-11.626-2.257-23.326-2.195-34.529,1.147
		C598.872,591.051,599.753,586.19,600.628,581.328z M624.819,667.835c-18.907-0.678-38.222-1.655-56.776,0.252
		c1.674-17.586,12.916-35.746,33.29-33.869C620.622,635.995,622.752,652.727,624.819,667.835z M665.701,635.117
		c22.713-4.194,27.926,15.167,30.036,32.443c-17.912-1.616-38.097,0.868-54.612,0.7c-0.773-0.008-1.559-0.035-2.335-0.048
		C640.589,652.416,648.362,638.319,665.701,635.117z M651.582,600.15c0.877-5.329,1.75-10.657,2.63-15.98
		c28.547-8.83,54.332-2.843,80.608,9.281c-2.404,6.463-4.862,12.994-7.303,19.579C710.653,595.308,674.536,593.944,651.582,600.15z
		 M655.178,578.425c0.91-5.399,1.838-10.792,2.83-16.161c1.909-10.327,5.799-21.647,5.448-32.208
		c-0.364-10.954-8.038-14.402-10.852-24.542c-0.693-2.5-4.32-1.493-3.861,1.014c2.273,12.432,10.419,18.706,8.168,32.886
		c-2.029,12.787-4.822,25.523-7.207,38.254c-4.573-2.598-11.216-3.355-15.456-4.019c-10.45-1.638-22.17-1.982-32.484,1.328
		c5.289-30.325,9.385-61.086,11.298-90.965c40.197-2.85,79.809-1.424,120.376,7.071c0.181,31.057,1.033,62.1,1.848,93.146
		c0.021,0.819,0.032,1.644,0.051,2.464C716.08,569.492,678.466,570.874,655.178,578.425z M578.666,399.211
		c0.613-0.183,1.227-0.367,1.771-0.544c6.108-1.986,16.029-5.001,19.812-10.534c0.904-1.322,1.503-3.002,1.913-4.853
		c4.677,0.136,9.19-1.141,12.855-4.152c2.598-2.134,6.084-6.127,5.843-9.835c2.246-0.246,4.49-0.487,6.733-0.646
		c-8.791,28.925-15.072,60.69-20.324,90.425c-0.052,0.291-0.045,0.56,0.002,0.808c-12.273,1.915-24.307,4.75-35.972,8.535
		c2.304-22.978,4.676-45.941,7.396-68.846C578.713,399.432,578.675,399.332,578.666,399.211z M742.112,371.234
		c13.766,0.28,13.229,18.479,4.089,24.847c-7.029,4.898-14.381,3.275-21.677,0.319c4.51-8.268,5.395-19.721,1.117-26.274
		c-4.956-7.59-16.212-13.607-27.304-15.956c6.799-3.259,16.008-7.064,20.743,2.241c0.588,1.154,2.315,1.967,3.58,1.508
		c6.883-3.962,12.383-0.849,16.501,9.338C738.606,369.215,740.086,371.192,742.112,371.234z M655.124,380.334
		c2.992,1.958,7.485,2.852,10.852,1.274c0.108,4.138,1.117,8.06,3.265,11.135c4.224,6.049,12.326,4.741,18.686,6.503
		c7.904,2.19,17.524,8.947,26.067,6.568c2.609-0.727,4.903-2.287,6.874-4.344c5.883,21.055,7.879,41.759,9.054,63.47
		c-37.935-7.919-79.334-11.139-118.703-5.608c9.667-28.15,17.518-61.102,19.386-90.836c6.198-0.341,12.405-0.41,18.644-0.292
		C649.017,373.021,651.02,377.648,655.124,380.334z M653.321,368.287c4.961,0.147,9.961,0.38,14.996,0.645
		c-1.023,2.57-1.733,5.305-2.088,8.053c-2.699-0.153-5.357,0.243-7.898-1.082C655.493,374.422,653.606,371.448,653.321,368.287z
		 M714.971,368.508c8.445,5.591,8.716,15.404,4.055,23.551c-1.088,1.903-2.968,5.747-4.785,6.861
		c-3.202,1.964-9.758-0.251-12.893-1.415c-4.442-1.649-8.721-3.754-13.307-4.996c-3.882-1.051-8.979-0.703-11.986-3.294
		c-8.722-7.514,0.769-21.923,4.721-29.387c0.165-0.313,0.222-0.632,0.235-0.948C692.676,357.695,705.271,362.085,714.971,368.508z
		 M670.639,364.275c-21.721-5.372-46.531-2.955-68.091,2.798c-0.07-0.995-0.137-1.932-0.19-2.773
		c-0.074-1.192-0.234-2.32-0.47-3.398c12.722-3.009,25.158-5.541,38.397-5.726c11.973-0.167,23.514,2.562,35.296,3.298
		C673.695,360.008,672.033,361.997,670.639,364.275z M602.844,372.372c4.083-0.962,8.148-1.729,12.199-2.324
		c-0.988,1.556-1.898,3.228-3.184,4.441c-2.5,2.357-5.703,4.025-9.103,4.561C602.92,376.85,602.926,374.579,602.844,372.372z
		 M867.193,538.469c-32.728,30.887-62.66,65.207-93.495,97.881c-6.535,6.924-13.174,13.808-19.838,20.689
		c-0.222-36.775-0.999-73.548-1.776-110.316c1.154-2.771,2.232-5.592,3.271-8.436C791.554,540.56,830.947,543.276,867.193,538.469z
		 M751.74,530.117c-0.314-16.265,0.05-33.165-0.18-50.1c5.283,2.097,10.825,3.529,16.275,5.236
		C761.931,499.434,755.715,514.741,751.74,530.117z M778.644,494.812c-3.548,1.121-7.282,1.763-10.751,3.048
		c1.137-3.843,2.291-7.667,3.502-11.435c2.417,0.842,4.804,1.773,7.12,2.9c0.128,0.062,7.464,3.636,7.309,2.99
		C785.868,492.499,779.638,494.498,778.644,494.812z M808.253,427.169c-1.655,13.665-2.566,52.937-16.811,63.206
		c-0.104-0.177-0.169-0.348-0.293-0.528c-3.37-4.916-11.97-7.503-17.305-9.452c-7.075-2.584-14.773-5.051-22.375-5.806
		c-0.526-23.709-2.523-47.353-9.559-69.273c6.181-1.594,11.8-5.422,14.703-10.994c0.104-0.2,0.18-0.401,0.28-0.601
		c17.248,0.755,38.714-3.5,56.605-12.504C811.376,396.484,810.106,411.865,808.253,427.169z M810.339,375.413
		c-1.129,0.607-2.308,1.11-3.466,1.658c-0.994-4.197-1.223-8.884-0.814-13.454c2.372,0.695,4.762,1.33,7.221,1.772
		c1.594,0.287,2.924-1.957,1.231-2.822c-2.559-1.309-5.192-2.38-7.855-3.374c0.51-2.723,1.235-5.324,2.197-7.629
		c1.984-4.757,5.599-8.096,9.964-10.25c0.819,2.672,2.134,5.085,4.112,6.804c1.362,1.184,3.676,0.135,3.173-1.795
		c-0.615-2.358-1.705-4.531-2.441-6.849c5.545-1.544,11.683-1.57,17.114-0.406C836.577,354.472,822.724,368.75,810.339,375.413z
		 M837.066,313.683c4.544,6.785,5.693,14.092,4.582,21.28c-5.907-1.524-12.654-1.614-18.857-0.042
		c-0.188-2.378-0.025-4.733,0.371-7.165c0.458-2.82-3.536-4.162-4.384-1.267c-0.854,2.914-1.187,6.529-0.859,10.078
		c-4.482,1.925-8.41,4.858-11.095,8.958c-2.189,3.341-3.728,7.595-4.578,12.099c-2.414-0.809-4.841-1.591-7.278-2.386
		c-2.728-0.89-3.911,3.328-1.231,4.262c2.647,0.922,5.275,1.857,7.915,2.742c-0.416,5.677,0.333,11.406,2.533,16.115
		c-13.977,5.983-29.692,8.021-44.809,8.297c2.136-10.396-2.704-19.48-13.542-21.292c0.422-3.976-0.396-7.834-3.292-11.133
		c-5.434-6.193-10.204-3.126-17.077-3.941c-1.763-0.209-3.292-1.003-4.805-1.949c14.301-9.48,29.068-18.208,44.496-25.744
		C782.565,314.091,822.392,291.771,837.066,313.683z M609.405,276.121c0.658-2.966-3.678-4.272-4.567-1.32
		c-0.246,0.818-0.44,1.632-0.623,2.445c-13.907-6.264-23.092-25.788-26.199-39.63c-0.82-3.655-5.611-29.816,6.957-24.162
		c2.101,0.945,3.992,14.882,5.004,17.392c0.564,1.399,3.028,1.964,3.39,0.042c1.474-7.795,0.14-24.876-8.029-29.155
		c-1.234-0.646-2.378-0.92-3.452-0.954c1.931-24.068,3.704-47.676,18.305-68.142c5.778-8.099,15.35-20.134,25.067-23.337
		c4.013-1.323,14.599-4.211,17.553,1.041c2.014,3.579-5.478,19.315-7.144,23.82c-0.733,1.981,2.179,3.747,3.574,2.14
		c6.645-7.654,16.86-26.848,7.853-36.346c-0.091-0.095-0.193-0.157-0.284-0.247c12.16-9.3,25.352-17.266,40.076-21.807
		c7.399-2.282,15.409-4.189,23.199-4.011c16.718,0.381,8.66,11.617,0.901,18.34c-1.679,1.455,0.05,4.176,2.067,3.653
		c10.924-2.835,18.071-11.903,16.535-19.174c9.098-3.251,18.303-6.143,27.954-7.221c5.632-0.629,14.314-1.699,19.565,0.69
		c17.898,8.144-0.168,16.32-7.397,20.872c-2.228,1.402-0.74,4.308,1.635,4.016c6.073-0.748,13.197-4.942,17.305-10.279
		c27.964-3.954,52.103-0.548,59.314,31.037c4.975,21.794,0.583,42.983-5.979,63.777c-3.906,1.804-7.492,4.098-10.079,5.918
		c-2.705,1.902-0.274,6.406,2.583,4.546c10.023-6.527,25.807-8.638,24.907,7.295c-0.577,10.198-4.854,21.066-9.554,29.904
		c-7.017,13.198-17.818,22.886-26.429,34.798c-1.006,1.392,0.86,2.977,2.205,2.26c3.224-1.72,6.314-3.873,9.275-6.304
		c5.423,0.118,8.017,6.398,7.774,11.051c-0.204,3.901-1.265,7.687-2.916,11.196c-3.375,7.174-9.332,11.298-14.078,17.077
		c-9.144-1.442-19.929,1.403-30.7,5.089c-23.668,8.099-45.829,19.573-66.286,33.757c-7.296-1.9-16.079-5.381-21.197-11.267
		c1.115-2.014,1.595-4.341,1.057-6.845c-1.539-7.178-11.696-10.225-17.853-7.777c-3.942,1.568-7.898,7.673-6.098,11.763
		c-0.223,0.937-0.261,1.836-0.114,2.68c-13.5,4.022-52.997,20.848-45.967-0.488c8.237,1.798,16.917,1.248,24.846-2.486
		c2.021-0.952,0.885-3.755-1.007-3.909c-13.599-1.107-25.946,0.95-38.12-7.032C612.744,303.293,606.409,289.631,609.405,276.121z
		 M697.231,324.726c-1.614,0.6-6.533,0.855-7.363-1.251c0.002-0.041,0.029-0.065,0.03-0.107c0-2.332,0.105-4.98,2.423-6.244
		c2.305-1.257,6.965-0.523,8.623,1.629C702.882,321.268,699.424,323.91,697.231,324.726z M595.252,324.195
		c6.682-4.273,14.131-7.565,20.674-12.03c5.038,4.818,11.223,8.561,17.882,10.787c-4.564,8.161-4.209,16.961,6.737,19.073
		c13.14,2.535,35.826-3.329,46.422-13.067c2.218,2.002,5.522,3.172,8.582,3.058c2.945-0.11,6.019-1.269,8.464-3.142
		c3.76,5.841,10.782,10.553,17.78,12.233c-1.954,1.442-3.907,2.885-5.827,4.377c-1.239-0.611-2.575-1.088-4.111-1.247
		c-7.664-0.794-14.415,3.67-19.89,8.461c-0.185,0.162-0.299,0.338-0.407,0.512c-4.571-0.313-8.867,0.112-12.398,1.458
		c-21.334-11.842-57.094-8.23-79.166,1.636c-0.173-0.258-0.331-0.526-0.527-0.77c0.222-0.304,0.399-0.642,0.443-1.042
		c1.818-16.334-10.349-23.609-22.66-14.761c-0.53-0.487-1.085-0.927-1.666-1.319C581.931,333.382,588.419,328.563,595.252,324.195z
		 M557.991,363.59c-0.433,0.673-0.428,1.42-0.192,2.093c-1.692,4.775-3.514,12.626-3.491,19.716
		c-2.536-1.586-4.276-3.537-4.894-7.996c-0.547-3.943-0.123-19.219,6.275-19.253c1.679-0.009,2.804-1.286,2.958-2.886
		c0.644-6.694,8.926-19.947,15.809-10.209c1.102,1.558,3.03,1.962,4.527,0.64c4.683-5.536,9.898-4.599,15.644,2.809
		c0.194,1.257,0.359,2.517,0.534,3.776c-0.069-0.031-0.123-0.071-0.193-0.102C583.256,347.044,564.756,353.07,557.991,363.59z
		 M561.846,366.99c8.028-5.407,14.591-10.553,24.968-10.288c8.779,0.224,9.681,8.508,9.511,15.378
		c-0.174,7.032-0.089,11.838-6.639,15.972c-5.892,3.719-24.486,11.985-28.582,3.54C558.269,385.746,560.316,373.844,561.846,366.99z
		 M563.39,400.805c3.556,0.738,7.731,0.254,11.476-0.598c-11.017,78.392-18.73,157.351-26.752,236.099
		c-3.726,3.06-7.447,6.131-11.17,9.198C547.482,564.195,552.064,482.079,563.39,400.805z M588.366,609.849
		c-0.96,6.8-1.916,13.582-2.866,20.339c-15.091,6.498-25.319,22.71-22.387,39.525c-0.43,1.216,0.029,2.866,1.428,3.074
		c24.85,3.699,51.432,1.679,76.503,2.041c21.506,0.31,49.031,5.293,70.012-0.314c1.351-0.361,1.829-1.76,1.446-2.871
		c9.734-20.629,16.557-43.44,23.178-65.59c0.308,22.18,0.628,44.503,3.222,66.419c-21.864,22.544-43.617,45.322-63.275,69.498
		c-0.58-0.177-1.193-0.234-1.809-0.018c-24.564,3.263-48.499,5.421-73.052,0.583c-19.114-3.766-32.7-12.127-47.48-24.306
		c-0.083-1-0.767-1.927-2.163-2.015c-29.497-1.856-59.782-1.726-90.099-0.43C504.718,683.229,551.255,649.757,588.366,609.849z
		 M453.848,724.49c32.271-1.18,65.051-0.397,97.182-3.649c14.775,34.809,75.792,35.445,111.921,29.62
		c-11.913,8.38-25.52,13.753-40.047,16.487c-3.606-3.106-7.573-5.75-12.282-7.352c-16.417-5.583-33.985-1.663-48.363,7.416
		c-3.068,1.937-5.88,4.141-8.578,6.458c-0.391-0.17-0.837-0.285-1.357-0.304c-11.574-0.42-23.203-0.322-34.848-0.007
		c-2.217-2.792-5.121-4.965-7.227-7.941c-2.374-3.355-4.133-6.964-5.307-10.903c-0.824-2.763-5.154-1.654-4.352,1.142
		c1.692,5.905,5.282,13.463,10.525,17.898c-18.766,0.624-37.556,1.689-56.212,2.051c-14.973,0.29-30.011,0.597-44.98-0.024
		c-24.193-1.004-65.881-13.55-52.142-46.295c11.272-0.554,22.54-1.139,33.808-1.72c-0.083,0.205-0.161,0.417-0.178,0.674
		c-0.851,13.184,5.977,28.2,19.023,32.996c2.082,0.766,2.915-2.134,1.432-3.283c-9.777-7.574-16.703-16.737-16.432-29.663
		c0.007-0.355-0.07-0.652-0.191-0.912C414.771,726.176,434.3,725.205,453.848,724.49z M257.178,767.568
		c29.167-12.12,55.278-28.256,80.165-47.562c22.719-17.624,70.718-41.551,83.894-1.912c-21.712,1.567-43.272,3.554-64.393,5.691
		c-1.828,0.185-2.685,1.807-2.552,3.221c-6.687,12.298-3.782,26.228,5.291,37.012c2.436,2.895,5.196,5.316,8.195,7.351
		c-28.823,2.516-53.066,21.004-72.412,43.148c-29.213,33.437-53.902,76.411-91.704,100.931c-3.267-1.29-6.807-2.23-10.776-2.646
		c-13.665-1.431-27.813,2.74-39.75,9.257c-20.177-39.071-43.709-76.57-66.306-114.327
		C144.74,801.251,203.485,789.878,257.178,767.568z M58.241,785.386c-0.002-0.003-0.005-0.005-0.006-0.008
		c6.139-4.054,9.974-2.826,11.477,3.748c1.619,2.8,3.24,5.599,4.863,8.396c1.195,2.06,2.394,4.117,3.589,6.177
		c-3.273,0.592-6.542,1.191-9.809,1.799C64.879,798.88,61.489,792.191,58.241,785.386z M70.488,809.438
		c3.461-0.336,6.926-0.685,10.397-1.054c1.217,2.095,2.432,4.192,3.651,6.286c7.418,12.736,14.907,25.43,22.38,38.133
		c14.048,23.878,27.737,48.017,42.901,71.211c-2.513,1.522-4.951,3.132-7.266,4.881C118.238,888.784,92.47,850.623,70.488,809.438z
		 M197.087,921.477c17.762,4.198,28.267,21.834,44.448,29.363c11.044,5.139,23.56,6.996,35.624,5.059
		c21.585-3.466,38.625-17.149,60.93-5.192c13.653,7.319,21.35,22.25,33.955,31.16c9.561,6.757,20.378,11.622,31.737,15.044
		c-96.435,0.034-192.896-2.376-289.247-0.294C117.667,958.151,153.44,911.16,197.087,921.477z M741.519,1028.681
		c-3.509,12.493-20.227,10.5-29.456,10.872c-2.167,0.087-4.333,0.155-6.499,0.24c-0.047-4.011-0.099-8.032-0.552-12.009
		c-0.287-2.523-3.578-2.569-3.929-0.048c-0.563,4.051-0.709,8.157-0.857,12.254c-25.683,0.985-51.371,1.841-77.061,2.6
		c-31.217,0.922-62.44,1.681-93.666,2.321c0.552-7.286,0.746-15.08-0.939-22.007c-0.39-1.603-2.809-1.635-3.237-0.04
		c-1.869,6.934-1.854,14.797-1.473,22.142c-26.394,0.527-52.789,0.994-79.185,1.337c-59.544,0.774-119.095,1.056-178.643,1.225
		c-2.344,0.007-4.687,0.011-7.031,0.017c-0.005-6.961-0.076-13.958-0.449-20.89c-0.141-2.618-3.818-2.648-4.055-0.05
		c-0.631,6.922-1.682,14.003-0.986,20.954c-24.283,0.059-48.568,0.095-72.852,0.178c-13.944,0.048-30.699,2.411-44.436,0.153
		c-26.693-4.39-21.596-28.176-22.417-47.018c19.927,1.394,39.91,2.323,59.922,2.963c-0.41,7.72,0.01,16.32,2.046,23.458
		c0.447,1.571,3.126,1.877,3.451,0.042c1.305-7.352,0.778-15.702-0.427-23.351c50.197,1.481,100.553,1.183,150.616,1.363
		c25.556,0.092,51.112-0.007,76.669-0.197c-0.353,6.566-0.68,13.239,0.481,19.671c0.367,2.03,3.677,2.072,4.093,0.05
		c1.328-6.439,1.154-13.159,0.962-19.768c46.47-0.385,92.938-1.197,139.384-2.612c26.553-0.809,53.099-1.84,79.639-2.994
		c-0.018,2.411-0.073,4.82-0.182,7.233c-0.166,3.684-0.675,7.301,0.752,10.761c0.537,1.3,2.819,1.315,3.392,0.042
		c1.521-3.382,1.23-7.071,1.288-10.736c0.039-2.512,0.022-5.02-0.038-7.528c8.059-0.358,16.121-0.667,24.178-1.061
		c17.25-0.843,34.654-1.275,51.833-3.163c8.598-0.945,19.813-1.542,28.085-5.924c0.132,8.272,0.33,16.54,0.765,24.81
		C740.919,1018.133,742.646,1024.669,741.519,1028.681z M1079.623,954.566c-3.021,23.725-29.437,18.403-46.909,18.479
		c-31.902,0.138-63.804,0.292-95.706,0.481c-10.347,0.061-20.696,0.105-31.045,0.152c1.321-9.161,2.867-19.356,1.524-28.337
		c-0.29-1.942-2.833-1.442-3.421-0.042c-3.536,8.423-2.717,19.142-3.375,28.405c-50.254,0.227-100.526,0.453-150.753,1.717
		c-0.915-5.965-8.319-10.917-14.99-15.076c-17.257-10.757-33.812-22.691-51.186-33.264c30.655,1.477,61.87-0.582,92.466-1.169
		c10.948-0.21,21.895-0.4,32.844-0.604c-0.602,7.871-1.274,16.186,0.31,23.753c0.384,1.832,3.268,1.869,3.697,0.046
		c1.781-7.573,1.298-15.961,0.887-23.888c21.346-0.395,42.692-0.795,64.039-1.178c46.501-0.832,93.002-1.718,139.5-2.686
		c-0.071,6.906-1.101,14.149,0.318,20.706c0.432,1.994,3.277,1.849,3.848,0.047c1.991-6.272,1.874-13.972,1.384-20.873
		c18.892-0.398,37.784-0.767,56.675-1.221C1080.052,931.406,1081.045,943.406,1079.623,954.566z M1082.071,911.94
		c-0.097-0.003-0.163-0.05-0.263-0.047c-69.071,1.678-138.152,2.909-207.232,4.153c-11.872,0.214-23.825,0.271-35.825,0.273
		c9.113-4.692,18.052-9.775,27.042-14.637c13.796-7.461,29.862-19.293,45.571-22.328c16.2-3.13,27.803,7.07,42.785,9.679
		c9.648,1.68,19.656,0.576,28.778-2.921c29.444-11.287,36.413-49.206,73.283-45.683
		C1094.169,844.057,1107.48,885.792,1082.071,911.94z M1097.181,764.193c-1.828,1.174-1.581,3.942,0.546,4.622
		c3.974,1.27,7.202,1.767,10.58,1.706c-10.73,9.572-23.609,11.648-38.133,11.252c-0.026-1.046-0.045-2.094-0.089-3.135
		c-0.513-12.222-1.686-24.348-3.489-36.384c20.215-3.289,37.715-14.225,49.592-30.668c-0.695,5.035-2.175,9.898-4.644,14.546
		c-0.886,1.951,0.972,4.603,3.168,3.247c15.92-9.828,24.644-27.268,29.314-45.95
		C1140.928,715.674,1128.277,744.218,1097.181,764.193z"/>
	<path fill="#182D5C" d="M998.924,1023.648c-13.745-2.736-30.129-0.901-44.134-0.962c-30.273-0.133-60.534,0.519-90.78,1.773
		c-1.51,0.063-2.495,0.89-3.052,1.94c-15.838,1.586-30.666,8.356-42.601,19.039c-7.841,7.019-20.653,20.28-17.444,32.238
		c-0.695,6.467,0.217,13.455,0.791,19.731c0.675,7.369,1.557,14.686,4.595,21.49c0.242,0.544,0.664,0.87,1.148,1.03
		c19.563,24.409,64.869,19.299,92.358,16.047c34.902-4.13,78.27-15.194,105.28-39.186c0.454-0.181,0.824-0.542,1.051-1.098
		c0.033-0.061,0.058-0.122,0.084-0.183c0.014-0.046,0.044-0.074,0.055-0.122c4.6-18.187,5.732-38.164,6.207-56.932
		c0.733-2.634,0.429-5.355-1.3-8.161C1008.571,1026.053,1003.433,1024.545,998.924,1023.648z M822.333,1049.512
		c10.949-9.971,24.39-16.349,38.878-18.851c0.579,0.719,1.468,1.198,2.708,1.147c35.288-1.438,70.596-2.031,105.912-1.57
		c5.931,0.078,17.875-2.161,22.698,0.432c19.551,10.513,3.08,13.441-4.538,16.645c-16.826,7.078-34.217,12.697-51.71,17.863
		c-31.001,9.154-63.799,20.504-96.427,20.366c-6.815,0.01-13.579-0.622-20.292-1.897c-5.307-0.058-7.757-3.25-7.351-9.575
		C808.016,1062.213,813.058,1057.957,822.333,1049.512z M1001.88,1093.368c-21.567,8.899-41.359,19.026-62.789,26.254
		c-0.389-4.224-0.722-8.454-1.066-12.683c-0.43-5.258-0.36-11.6-2.242-16.58c-0.881-2.333-3.963-1.949-4.269,0.524
		c-0.715,5.775,0.473,12.211,0.953,17.997c0.345,4.173,0.728,8.342,1.168,12.505c-7.361,2.272-14.937,4.183-22.879,5.542
		c-27.528,4.713-78.541,11.47-100.206-9.974c-0.509-7.571-1.99-15.067-2.671-22.633c-0.228-2.531-0.315-5.153-0.452-7.779
		c9.585,6.631,26.433,6.302,35.891,6.22c11.627-0.1,23.107-1.708,34.476-4.03c-0.211,7.7-0.464,15.404,0.142,23.085
		c0.223,2.831,4.11,2.885,4.403,0.054c0.834-8.043,0.724-16.136,0.708-24.22c12.946-2.901,25.743-6.649,38.421-10.204
		c10.19-2.858,65.989-14.361,85.027-30.696C1004.628,1062.249,1001.328,1077.911,1001.88,1093.368z"/>
	<path fill="#182D5C" d="M643.908,411.457c1.045-2.319-2.316-4.428-3.448-2.073c-3.203,6.656-3.259,13.244-0.257,19.976
		c0.586,1.313,2.604,1.476,3.534,0.499c2.158-2.267,4.302-4.549,6.452-6.824c-0.525,8.98,2.851,17.893,10.565,23.326
		c1.617,1.138,3.035-1.181,1.989-2.513c-6.374-8.121-9.5-17.842-6.208-27.914c0.741-2.271-2.405-4.233-4.053-2.426
		c-3.189,3.497-6.363,7.008-9.534,10.521C641.721,419.855,642.018,415.654,643.908,411.457z"/>
	<path fill="#182D5C" d="M774.93,444.369c3.428-2.195,5.811-5.803,7.495-9.741c1.07,0.892,2.627,0.801,3.491-0.478
		c4.997-7.403,8.999-15.228,12.14-23.584c0.913-2.428-2.883-3.449-3.836-1.109c-2.591,6.373-5.775,12.353-9.494,18.074
		c0.177-0.761,0.344-1.517,0.483-2.25c0.564-2.983-3.554-4.251-4.573-1.321c-1.365,7.008-5.245,11.724-8.144,17.907
		C771.792,443.356,773.26,445.439,774.93,444.369z"/>
	<path fill="#182D5C" d="M616.674,148.362c-10.082,6.465-14.814,20.144-15.226,31.634c-0.117,3.284,4.97,3.342,5.101,0.063
		c0.405-10.18,4.548-22.038,11.994-29.211C619.799,149.638,618.203,147.381,616.674,148.362z"/>
	<path fill="#182D5C" d="M792.049,123.485c1.766-2.685,11.547-19.309,17.475-12.449c3.006,3.48-3.44,18.001-5.061,21.904
		c-0.718,1.729,1.311,3.534,2.961,3.035c0.566-0.172,6.331-2.779,7.242-2.567c6.152,1.432,3.077,5.923,1.229,9.378
		c-3.186,5.955-6.628,11.715-8.903,18.081c-0.711,1.991,2.068,2.856,3.168,1.382c5.049-6.767,9.397-15.065,12.965-22.753
		c1.138-2.451,2.795-5.43,1.806-8.238c-2.286-6.489-8.692-4.218-13.889-1.98c3.069-8.831,6.951-24.063-1.583-26.824
		c-8.141-2.634-17.593,13.651-20.939,18.911C787.089,123.609,790.597,125.692,792.049,123.485z"/>
	<path fill="#182D5C" d="M986.57,642.765c0.935,0.921,2.452,0.736,3.153-0.367c0.188-0.296,0.372-0.594,0.561-0.891
		c1.152,2.581,3.169,4.662,6.054,6.081c1.021,0.502,1.998,0.387,2.867-0.334c5.297-4.399,11.599-8.607,15.606-14.257
		c0.981-1.384-0.826-2.787-2.119-2.172c-5.703,2.712-10.601,7.606-15.39,11.828c-2.326-1.536-3.733-3.774-3.774-6.904
		c-0.027-2.113-2.956-3.09-4.064-1.155c-0.671,1.172-1.312,2.358-1.961,3.541c-1.407-1.329-2.814-2.657-4.219-3.986
		c-1.788-1.689-4.51,0.938-2.744,2.677C982.55,638.806,984.559,640.785,986.57,642.765z"/>
</g>
</svg>
