<?xml version="1.0" encoding="utf-8"?>
<!-- Generator: Adobe Illustrator 23.0.3, SVG Export Plug-In . SVG Version: 6.00 Build 0)  -->
<svg version="1.1" id="Capa_1" xmlns="http://www.w3.org/2000/svg" xmlns:xlink="http://www.w3.org/1999/xlink" x="0px" y="0px"
	 viewBox="0 0 1200 1200" enable-background="new 0 0 1200 1200" xml:space="preserve">
<g>
	<path d="M1146.812,287.521c2.317,14.415,3.702,28.921,3.01,43.577l-6.44-0.301c0-0.15,0-0.331-0.03-0.512
		c-0.933-10.172-1.083-20.464-2.829-30.486c-2.618-15.047-6.169-29.974-10.443-44.721c-3.822-13.242-9.42-25.46-17.395-36.685
		c-7.825-11.045-17.455-20.073-29.011-27.055c-14.626-8.818-29.433-9.119-44.299-0.512c-1.715,0.993-3.34,2.137-5.086,3.1
		c-1.595,0.843-3.28,0.06-4.454-1.324c-1.475-1.715-0.271-4.665-2.799-5.868c-2.347,1.866-1.595,4.725-2.438,7.012
		c-1.023,2.829-2.678,3.431-5.086,1.505c-1.294-1.053-2.408-2.377-3.672-3.491c-7.223-6.38-14.235-13.001-22.631-17.936
		c-9.269-5.447-18.418-11.135-27.747-16.462c-4.183-2.377-8.577-4.454-13.061-6.199c-13.181-5.116-26.273-10.413-40.146-13.844
		c-11.707-2.889-23.504-4.394-35.331-4.454c-10.503-0.06-20.856,0.752-30.967,2.648c-4.364-2.016-8.818-3.942-13.272-5.838
		c10.894-2.889,22.089-4.604,33.676-5.056c26.363-1.083,51.281,4.484,75.507,14.265c5.537,2.227,11.075,4.454,16.432,7.042
		c4.815,2.317,9.69,4.574,14.054,7.885c4.063,3.04,8.607,5.447,13.031,8.005c8.095,4.725,16.07,9.6,22.962,16.071
		c2.077,1.926,4.304,3.672,6.531,5.447c2.347,1.836,4.484,1.174,4.996-1.655c0.632-3.34,1.053-6.711,1.414-10.082
		c0.482-4.875,1.806-9.48,3.912-13.874c0.482-1.023,1.083-1.986,1.806-2.859c1.234-1.535,4.153-1.114,4.966,0.813
		c0.572,1.264,1.023,2.648,1.234,4.033c0.873,5.327,2.227,10.563,2.167,16.01c0,2.588,0.361,5.086,2.167,7.253
		c3.702-1.354,7.373-2.859,11.135-4.003c12.82-3.972,25.279-2.799,36.986,3.702c25.61,14.205,41.741,36.144,50.74,63.59
		C1140.823,259.744,1144.525,273.467,1146.812,287.521z"/>
	<path d="M1149.821,331.098c-0.03,0.722-0.06,1.445-0.12,2.167c-0.06,1.144-0.12,2.257-0.271,3.401
		c-0.421,2.979-1.745,5.327-4.785,6.44c-9.329,3.401-17.997,8.426-27.627,11.105c-9.299,2.558-18.508,5.537-28.139,6.681
		c-1.655,0.211-3.22,0.873-4.875,1.324c-0.813,4.334,0.12,8.095,1.685,11.827c0.843,1.986,2.046,3.25,4.003,3.972l-0.782,6.862
		c-2.227-0.12-4.635,0.09-7.162,0.662c-3.07,0.722-5.989,1.896-8.517,3.762c-5.477,4.033-11.015,8.005-14.205,14.355
		c-0.632,1.264-1.535,2.408-2.498,3.431c-1.083,1.113-2.468,1.204-3.912,0.542c-2.919-1.384-3.732-3.19-2.287-6.079
		c4.966-10.082,12.67-17.214,23.173-21.307c4.063-1.595,4.093-1.866,3.25-6.199c-0.542-2.769-0.722-5.598-1.174-8.396
		c-0.241-1.565-1.294-2.468-2.919-2.468c-1.715-0.03-3.401,0.03-5.116,0.211c-23.564,2.257-47.038,0.06-70.421-2.408
		c-19.23-2.016-37.979-6.591-56.307-12.911c-6.44-2.197-12.941-4.153-19.411-6.29c-7.494-2.468-10.985-7.584-12.429-15.499
		c-4.123-23.052-5.176-46.165-3.04-69.458c0.15-1.625-0.06-3.31-0.181-7.042c-4.785,17.094-6.26,32.592-6.711,48.151
		c-0.271,10.503,0.06,21.036,1.776,31.419c0.632,3.732-0.632,6.5-2.769,9.359c-2.377,3.19-5.778,4.544-9.119,6.019
		c-11.948,5.327-24.407,9.299-36.836,13.181c-29.884,9.239-60.34,15.83-91.668,17.756c-7.042,0.451-7.975,0.06-7.464,4.785
		l-4.875,0.602c-0.06-0.301-0.09-0.632-0.12-0.933c-0.211-1.986-1.234-3.16-3.25-3.16c-7.975,0-15.83-1.384-23.715-2.227
		c-7.373-0.752-14.476-2.859-21.789-3.792c-6.109-0.782-8.095-5.477-9.901-10.322c-0.301-0.782-0.391-1.655-0.391-2.498
		c-0.15-13.874-2.588-27.657-1.294-41.621c0.632-6.801,1.595-13.512,2.919-20.193c3.732-18.809,10.563-36.384,19.381-53.388
		c6.38-12.369,12.339-24.888,20.133-36.475c4.153-6.139,8.547-12.008,13.212-17.726c16.402-20.133,36.114-36.114,59.286-47.61
		c5.688-2.829,11.466-5.327,17.365-7.433c4.093,1.655,8.126,3.371,12.188,5.116c-7.734,2.227-15.288,5.176-22.691,8.878
		c-13.212,6.621-26.182,13.753-37.287,23.564c-15.83,13.964-28.981,30.335-39.966,48.392c-4.394,7.253-8.818,14.506-12.309,22.3
		c-3.04,6.711-6.049,13.422-9.269,20.043c-7.764,16.01-12.008,32.923-13.904,50.559c-1.625,15.318-0.752,30.576,0.331,45.834
		c0.211,3.431,1.144,4.695,4.484,5.116c12.068,1.445,24.136,3.1,36.264,4.033c9.63,0.722,19.23-0.451,28.861-1.174
		c24.166-1.806,47.73-6.862,70.933-13.452c13.904-3.942,27.537-8.878,41.26-13.512c3.732-1.264,7.313-3.04,10.984-4.604
		c2.137-0.933,2.708-2.498,2.317-4.815c-3.19-20.073-2.257-40.146,0.241-60.189c1.414-11.285,4.033-22.15,9.299-32.532
		c4.364-8.577,10.503-16.251,13.211-25.671c0.06-0.241,0.241-0.482,0.391-0.722c0.993-1.505,3.521-1.926,6.29-1.053
		c1.505,0.451,2.347,2.257,1.806,4.183c-0.813,3.009-1.986,5.929-2.618,8.968c-5.176,23.925-8.517,48.031-6.801,72.618
		c0.752,10.473,2.347,20.825,4.394,31.148c0.692,3.521,2.558,5.537,5.778,6.591c0.813,0.271,1.595,0.632,2.408,0.903
		c26.122,8.758,52.425,16.733,80.142,18.899c22.902,1.806,45.804,3.22,68.766,0.782c22.812-2.408,44.48-8.697,64.974-19.05
		c1.806-0.903,2.979-1.986,2.979-4.033L1149.821,331.098z"/>
	<path fill="#2A6172" d="M1143.351,330.286c0.03,0.181,0.03,0.361,0.03,0.512c0,2.046-1.174,3.13-2.979,4.033
		c-20.494,10.353-42.162,16.642-64.974,19.05c-22.962,2.438-45.864,1.023-68.766-0.782c-27.717-2.167-54.02-10.142-80.142-18.899
		c-0.813-0.271-1.595-0.632-2.408-0.903c-3.22-1.053-5.086-3.07-5.778-6.591c-2.046-10.322-3.641-20.675-4.394-31.148
		c-1.715-24.587,1.625-48.693,6.801-72.618c0.632-3.04,1.806-5.959,2.618-8.968c0.542-1.926-0.301-3.732-1.806-4.183
		c-2.769-0.873-5.297-0.451-6.29,1.053c-0.15,0.241-0.331,0.482-0.391,0.722c-2.708,9.42-8.848,17.094-13.211,25.671
		c-5.267,10.383-7.885,21.247-9.299,32.532c-2.498,20.043-3.431,40.116-0.241,60.189c0.391,2.317-0.181,3.882-2.317,4.815
		c-3.672,1.565-7.253,3.341-10.984,4.604c-13.723,4.635-27.356,9.57-41.26,13.512c-23.203,6.591-46.767,11.647-70.933,13.452
		c-9.63,0.722-19.23,1.896-28.861,1.174c-12.128-0.933-24.196-2.588-36.264-4.033c-3.341-0.421-4.273-1.685-4.484-5.116
		c-1.083-15.258-1.956-30.516-0.331-45.834c1.896-17.635,6.139-34.549,13.904-50.559c3.22-6.621,6.23-13.332,9.269-20.043
		c3.491-7.794,7.915-15.047,12.309-22.3c10.985-18.057,24.136-34.428,39.966-48.392c11.105-9.811,24.076-16.943,37.287-23.564
		c7.403-3.702,14.957-6.651,22.691-8.878c1.023,0.451,2.077,0.903,3.1,1.354c1.204-0.391,2.438-0.722,3.641-1.023
		c3.31-0.903,6.651-1.685,9.991-2.287c-0.963-0.451-1.926-0.873-2.889-1.324c10.112-1.896,20.464-2.709,30.967-2.648
		c11.827,0.06,23.624,1.565,35.331,4.454c13.874,3.431,26.965,8.727,40.146,13.844c4.484,1.745,8.878,3.822,13.061,6.199
		c9.329,5.327,18.478,11.015,27.747,16.462c8.396,4.936,15.408,11.556,22.631,17.936c1.264,1.114,2.377,2.438,3.672,3.491
		c2.408,1.926,4.063,1.324,5.086-1.505c0.843-2.287,0.09-5.146,2.438-7.012c2.528,1.204,1.324,4.153,2.799,5.868
		c1.174,1.384,2.859,2.167,4.454,1.324c1.745-0.963,3.371-2.107,5.086-3.1c14.867-8.607,29.673-8.306,44.299,0.512
		c11.556,6.982,21.187,16.01,29.011,27.055c7.975,11.225,13.573,23.444,17.395,36.685c4.273,14.746,7.825,29.673,10.443,44.721
		C1142.267,309.821,1142.418,320.114,1143.351,330.286z M1091.197,307.564c2.287-6.29,2.046-12.76,2.046-19.321
		c0-13.813-2.859-26.965-8.005-39.725c-2.979-7.313-7.945-13.001-14.235-17.605c-1.083-0.813-2.498-1.264-3.822-1.745
		c-0.482-0.181-1.144-0.09-1.655,0.09c-0.481,0.15-1.053,0.512-1.264,0.933c-0.361,0.752-0.451,1.625,0.421,2.227
		c2.528,1.715,6.049,1.896,7.734,4.936c2.498,4.454,5.447,8.697,7.343,13.392c4.604,11.406,6.862,23.293,6.922,35.662
		c0.06,7.855,0.873,15.739,1.414,24.527C1090.535,309.701,1090.806,308.618,1091.197,307.564z M1013.432,307.865
		c0.963-3.07,0.391-6.139,0.15-9.209c-0.512-6.681-2.889-13.181-1.806-20.013c0.211-1.445-2.498-2.678-3.912-1.986
		c-1.655,0.782-2.378,2.287-3.16,3.942c-0.151,0.692-0.512,1.535-0.421,2.347c0.632,7.253,0.692,14.596,2.408,21.728
		c0.391,1.715,1.294,3.1,2.588,4.273C1010.573,310.092,1012.891,309.52,1013.432,307.865z M851.644,263.415
		c0.542-1.625,1.264-3.521-0.933-4.243c-2.077-0.722-2.769,1.234-3.551,2.739c-2.919,5.537-5.206,11.255-6.5,17.395
		c-1.384,6.621-3.581,13.061-3.973,19.862c-0.15,2.799,0.06,5.628,0.211,8.427c0.03,0.421,0.632,0.873,1.053,1.174
		c0.512,0.361,1.053,0.15,1.294-0.542c0.421-1.023,0.782-2.107,1.083-3.16c2.739-9.209,3.762-18.839,6.801-27.988
		C848.634,272.534,850.139,267.96,851.644,263.415z M840.84,185.982c0.692-2.197-1.414-2.829-2.558-3.882
		c-1.655-1.535-3.611-1.445-5.628-0.843c-7.885,2.347-15.499,5.297-22.511,9.781c-10.503,6.711-18.237,16.101-25.37,26.002
		c-7.163,9.901-13.061,20.585-16.552,32.412c-4.544,9.42-5.297,19.652-6.44,29.764c-0.211,1.715-1.023,4.905,1.083,5.297
		c3.1,0.602,2.618-2.949,3.16-4.785c5.357-18.629,12.339-36.505,22.782-52.906c11.767-18.538,26.604-33.074,48.603-38.702
		C838.793,187.758,840.358,187.487,840.84,185.982z"/>
	<path d="M1118.914,448.347c25.58,83.302,29.342,170.967,11.105,255.985l-1.414-0.301c-2.016-1.926-4.033-3.822-6.109-5.688
		c16.101-78.156,13.272-158.508-8.246-235.43c0.09-0.271,0.181-0.512,0.271-0.782
		C1116.506,457.616,1117.951,453.011,1118.914,448.347z"/>
	<path d="M1128.605,704.031l1.414,0.301c-5.778,26.935-13.783,53.629-23.985,79.841c-3.491,8.968-7.223,17.786-11.165,26.423
		c-1.986-2.739-3.882-5.537-5.628-8.457c3.07-6.922,6.019-13.964,8.788-21.096c9.299-23.865,16.733-48.151,22.3-72.679
		c1.926,1.745,3.882,3.521,5.808,5.297C1126.889,710.441,1127.702,707.221,1128.605,704.031z"/>
	<path d="M1128.605,704.031c-0.903,3.19-1.715,6.41-2.468,9.63c-1.926-1.776-3.882-3.551-5.808-5.297
		c0.752-3.34,1.475-6.681,2.167-10.021C1124.572,700.209,1126.588,702.105,1128.605,704.031z"/>
	<path fill="#8DBA92" d="M1114.249,462.913c21.518,76.922,24.347,157.274,8.246,235.43c-1.174-1.083-2.408-2.167-3.611-3.22
		c-8.547-7.464-17.515-14.476-27.958-19.23c-8.517-3.852-17.455-6.741-26.543-9.149c-7.433-1.956-14.897-3.401-22.661-3.22
		c-3.371,0.09-6.801-0.391-10.172-0.752c-2.588-0.301-3.973-1.986-4.394-4.484c-0.963-5.868-0.301-11.225,4.544-15.499
		c2.949-2.618,5.628-5.568,8.366-8.457c2.919-3.1,5.808-6.23,8.577-9.45c3.16-3.641,6.049-7.524,9.269-11.105
		c3.07-3.401,5.357-7.283,7.855-11.075c6.29-9.63,9.359-20.645,13.813-31.028c5.206-12.248,9.209-25.039,13.844-37.558
		c2.949-8.005,5.056-16.311,6.26-24.738c1.324-9.45,3.672-19.02,0.722-28.5c2.558-2.257,5.056-4.123,7.163-6.38
		c2.137-2.257,3.401-5.176,4.845-7.975c0.752-1.445,1.444-2.919,2.107-4.394C1114.43,462.401,1114.34,462.642,1114.249,462.913z"/>
	<path d="M1118.884,695.123c1.204,1.053,2.438,2.137,3.611,3.22c-0.692,3.341-1.414,6.681-2.167,10.021
		c-5.868-5.327-11.797-10.533-18.207-15.228c-6.681-4.875-13.543-9.209-21.397-12.038c-10.202-3.672-20.555-6.621-31.238-8.336
		c-4.153-0.692-8.487-0.451-12.73-0.692c-6.711-0.361-7.193-0.03-6.44,6.139c0.451,3.912-1.264,7.193-3.34,10.262
		c-3.22,4.725-7.163,8.788-11.737,12.249c-9.299,7.042-19.351,12.85-29.553,18.448c-4.334,2.377-8.968,3.702-13.693,4.514
		c-9.51,1.595-19.11,2.648-28.62,4.093c-6.29,0.963-12.489,0.181-18.659-0.782c-6.049-0.933-12.098-2.137-17.997-3.702l1.655-6.531
		c13.272,2.287,26.423,6.079,40.146,2.558c1.896-0.482,3.942-0.271,5.899-0.572c10.172-1.505,20.163-3.852,29.372-8.366
		c10.172-5.026,19.561-11.436,28.439-18.538c2.708-2.137,5.116-4.544,6.922-7.433c2.287-3.641,4.093-7.373,2.468-11.978
		c-0.722-2.077-0.451-4.484-0.722-6.741c-0.301-2.528-0.542-5.056-1.083-7.554c-0.271-1.294-1.655-1.715-2.678-0.993
		c-3.25,2.287-6.32,4.785-9.51,7.163c-7.223,5.357-14.596,10.322-22.33,14.536l-2.678-5.116c1.655-0.963,3.31-1.986,4.875-3.07
		c14.175-9.901,28.319-19.682,39.875-32.954c8.005-9.149,16.311-18.087,24.136-27.416c3.431-4.123,6.38-8.577,8.908-13.422
		c4.093-7.825,7.012-16.101,10.232-24.256c4.604-11.586,8.156-23.594,12.7-35.181c5.327-13.663,8.065-27.747,8.577-42.313
		c0.09-3.13,0.12-6.23-0.06-9.359c-0.09-2.107-0.933-3.762-3.521-3.972c-1.956-0.181-3.912-0.632-5.808-1.144
		c-2.829-0.813-5.116-2.498-6.531-5.086c-0.361-0.632-0.331-1.745,0.03-2.347c0.331-0.602,1.384-1.294,1.956-1.174
		c1.896,0.421,3.732,1.234,5.598,1.836c7.795,2.558,15.679-0.542,19.291-7.855c2.016-4.063,3.942-8.216,5.297-12.519
		c6.169-19.531,4.213-38.611-4.033-57.12c-3.19-7.223-8.487-11.015-15.228-11.496l0.782-6.862c0.271,0.09,0.572,0.181,0.873,0.271
		c10.323,2.528,17.214,9.299,22.24,18.328c3.521,6.32,5.176,13.272,6.35,20.224c1.776,10.714,1.926,21.277-0.241,31.509
		c-0.15-0.602-0.361-1.234-0.542-1.836c-0.782,5.387-2.047,10.593-3.852,15.619c-0.662,1.475-1.354,2.949-2.107,4.394
		c-1.445,2.799-2.708,5.718-4.845,7.975c-2.107,2.257-4.604,4.123-7.163,6.38c2.949,9.48,0.602,19.05-0.722,28.5
		c-1.204,8.427-3.31,16.733-6.26,24.738c-4.635,12.519-8.637,25.31-13.844,37.558c-4.454,10.383-7.524,21.397-13.813,31.028
		c-2.498,3.792-4.785,7.674-7.855,11.075c-3.22,3.581-6.109,7.464-9.269,11.105c-2.769,3.22-5.658,6.35-8.577,9.45
		c-2.739,2.889-5.417,5.838-8.366,8.457c-4.845,4.273-5.507,9.63-4.544,15.499c0.421,2.498,1.806,4.183,4.394,4.484
		c3.371,0.361,6.801,0.843,10.172,0.752c7.764-0.181,15.228,1.264,22.661,3.22c9.089,2.408,18.027,5.297,26.543,9.149
		C1101.369,680.647,1110.337,687.659,1118.884,695.123z"/>
	<path d="M1118.372,446.511c0.181,0.602,0.391,1.234,0.542,1.836c-0.963,4.665-2.408,9.269-4.394,13.783
		C1116.326,457.104,1117.59,451.898,1118.372,446.511z"/>
	<path fill="#DEA794" d="M1104.138,396.373c8.246,18.508,10.202,37.588,4.033,57.12c-1.354,4.304-3.28,8.457-5.297,12.519
		c-3.611,7.313-11.496,10.413-19.291,7.855c-1.866-0.602-3.702-1.414-5.598-1.836c-0.572-0.12-1.625,0.572-1.956,1.174
		c-0.361,0.602-0.391,1.715-0.03,2.347c1.414,2.588,3.702,4.273,6.531,5.086c1.896,0.512,3.852,0.963,5.808,1.144
		c2.588,0.211,3.431,1.866,3.521,3.972c0.181,3.13,0.151,6.23,0.06,9.359c-0.512,14.566-3.25,28.65-8.577,42.313
		c-4.544,11.586-8.095,23.594-12.7,35.181c-3.22,8.156-6.139,16.432-10.232,24.256c-2.528,4.845-5.477,9.299-8.908,13.422
		c-7.825,9.329-16.131,18.267-24.136,27.416c-11.556,13.272-25.701,23.052-39.875,32.954c-1.565,1.083-3.22,2.107-4.875,3.07
		c-5.026,2.829-10.413,4.935-15.95,6.35c-15.138,3.792-30.365,7.403-46.045,7.734c-13.964,0.331-27.807-0.692-41.2-4.364
		c-2.739-0.752-5.447-1.625-8.156-2.618c-5.297-1.956-10.473-4.334-15.138-7.704c-15.499-11.316-28.801-24.557-38.491-41.38
		c-8.637-15.017-17.124-30.095-23.835-46.105c-8.156-19.411-14.355-39.424-17.545-60.31c-2.799-18.207-5.387-36.475-8.065-54.712
		c-1.144-7.855-2.046-15.74-3.491-23.564c-0.843-4.544,0.692-6.26,5.056-7.132c6.621-1.294,13.302-3.1,20.193-1.294
		c0.813,0.211,1.685,0.181,2.528,0.181c1.354,0.03,2.588-1.505,2.378-2.919c-0.482-3.431-1.926-5.086-5.146-5.899
		c-6.23-1.535-12.399-0.602-18.538,0.662c-2.498,0.542-4.845,1.655-8.005,1.234c-1.053-5.688-2.167-11.496-3.16-17.304
		c-1.083-6.139-1.956-12.339-3.1-18.448c-0.482-2.498-1.414-4.905-2.167-7.343c-0.391-1.354-1.083-2.648-1.234-4.033
		c-0.211-1.776-0.421-3.16-0.542-4.304c-0.512-4.725,0.421-4.334,7.464-4.785c31.328-1.926,61.784-8.517,91.668-17.756
		c12.429-3.882,24.888-7.855,36.836-13.181c3.341-1.475,6.741-2.829,9.119-6.019c2.137-2.859,3.401-5.628,2.769-9.359
		c-1.715-10.383-2.046-20.916-1.776-31.419c0.451-15.559,1.926-31.058,6.711-48.151c0.12,3.732,0.331,5.417,0.181,7.042
		c-2.137,23.293-1.083,46.406,3.04,69.458c1.445,7.915,4.935,13.031,12.429,15.499c6.47,2.137,12.971,4.093,19.411,6.29
		c18.328,6.32,37.077,10.894,56.307,12.911c23.383,2.468,46.857,4.665,70.421,2.408c1.715-0.181,3.401-0.241,5.116-0.211
		c1.625,0,2.678,0.903,2.919,2.468c0.451,2.799,0.632,5.628,1.174,8.396c0.843,4.334,0.813,4.604-3.25,6.199
		c-10.503,4.093-18.207,11.225-23.173,21.307c-1.445,2.889-0.632,4.695,2.287,6.079c1.444,0.662,2.829,0.572,3.912-0.542
		c0.963-1.023,1.866-2.167,2.498-3.431c3.19-6.35,8.727-10.322,14.205-14.355c2.528-1.866,5.447-3.04,8.517-3.762
		c2.528-0.572,4.935-0.782,7.162-0.662C1095.651,385.359,1100.948,389.151,1104.138,396.373z M1096.313,442.809
		c0.692-0.963,0.782-2.197,0-3.16c-1.625-1.926-3.31-3.852-5.086-5.628c-1.625-1.625-1.836-3.371-1.053-5.387
		c0.391-1.053,0.722-2.137,1.655-4.966c0.09-0.391,1.354-2.377,0.993-4.755c-0.06-0.482-0.421-1.023-0.813-1.324
		c-0.692-0.512-1.565-0.572-2.317-0.03c-1.896,1.414-2.558,3.641-3.581,5.628c-1.565,3.009-1.986,3.16-5.056,1.053
		c-1.866-1.294-3.672-2.648-5.959-3.07c-0.873-0.15-1.806,0-2.137,0.873c-0.301,0.692-0.481,1.715-0.181,2.317
		c0.482,0.963,1.384,1.745,2.107,2.588c5.989,6.651,5.989,6.651,1.806,14.265c-0.692,1.234-1.595,2.347-2.347,3.521
		c-0.752,1.234-1.445,2.618-0.451,3.912c1.083,1.445,2.829,1.836,4.544,1.655c1.896-0.211,2.859-1.745,3.521-3.31
		c0.843-2.077,1.264-4.304,2.197-6.35c0.451-0.993,1.926-1.715,2.799-0.692c1.745,1.986,3.702,3.401,6.35,3.822
		C1094.507,443.953,1095.621,443.772,1096.313,442.809z M951.377,556.717c1.715-7.825,3.491-17.244,2.438-26.995
		c-0.09-0.843-0.12-1.715-0.301-2.528c-0.813-3.16-3.431-4.574-6.44-3.19c-6.952,3.16-13.934,6.32-20.735,9.781
		c-21.126,10.684-39.665,25.099-57.902,39.936c-4.966,4.033-4.725,7.072,0.512,10.593c0.482,0.301,1.023,0.512,1.475,0.843
		c5.748,4.123,12.459,5.357,19.2,6.23c16.642,2.227,32.021-0.331,45.503-11.406C942.349,574.052,947.706,567.04,951.377,556.717z
		 M937.985,426.077c0.692-1.083,0.12-2.167-0.632-3.07c-1.715-2.077-4.123-2.919-7.614-3.942
		c-4.996-2.077-11.255-1.625-17.425-0.963c-12.098,1.264-23.233,4.966-32.292,13.573c-2.287,2.197-2.558,3.822-0.993,6.741
		c0.933,1.685,2.799,2.377,4.304,1.414c1.414-0.903,2.769-1.986,4.033-3.1c3.672-3.25,7.885-5.477,12.549-6.862
		c9.901-2.889,19.893-4.424,30.185-2.739c1.926,0.301,3.942,0.331,5.899,0.211C936.691,427.311,937.594,426.679,937.985,426.077z
		 M825.672,435.195c0.211-1.414-0.451-2.769-1.956-3.371c-1.595-0.662-2.859,0.06-3.581,1.354c-1.114,1.956-2.077,4.033-2.919,6.139
		c-3.732,9.209-8.968,17.666-13.512,26.483c-1.294,2.528-3.22,3.792-5.959,4.123c-3.672,0.421-7.313,0.843-10.985,1.324
		c-2.829,0.361-4.695,1.896-5.176,4.785c-1.655,9.6-0.271,18.689,5.357,26.784c2.257,3.22,4.935,6.199,8.366,8.366
		c2.378,1.475,4.725,1.776,7.283,0.692c1.505-0.632,1.986-2.859,1.023-4.304c-1.204-1.776-3.04-2.558-4.905-3.16
		c-4.153-1.414-6.561-4.153-7.614-8.366c-0.482-1.926-1.414-3.732-2.167-5.568c-0.782-1.866-0.963-3.732-0.632-5.808
		c0.632-4.334,0.873-4.755,5.026-5.357c1.685-0.241,3.371-0.391,5.086-0.542c6.139-0.512,10.654-3.431,13.392-9.028
		c3.611-7.373,7.885-14.445,10.052-23.052c0.572-1.294,1.535-3.07,2.167-4.936C824.739,439.619,825.341,437.422,825.672,435.195z"/>
	<path d="M466.523,764.099c-1.926-1.956-4.093-3.762-7.343-4.875c-1.535,5.206-1.685,10.292-2.137,15.288
		c-0.602,6.771-0.602,13.573-1.023,20.374c-0.692,11.617-1.324,23.233-0.903,34.88c0.15,4.093,1.053,6.741,4.514,9.209
		c1.899,1.362,3.751,2.792,5.584,4.249c4.281-21.677,12.005-42.869,18.195-64.997C477.446,774.03,471.778,769.377,466.523,764.099z"
		/>
	<path fill="#B85A50" d="M1102.121,693.136c-6.681-4.875-13.543-9.209-21.397-12.038c-10.202-3.671-20.555-6.621-31.238-8.336
		c-4.153-0.692-8.487-0.451-12.73-0.692c-6.711-0.361-7.193-0.03-6.44,6.139c0.451,3.912-1.264,7.193-3.341,10.262
		c-3.22,4.725-7.162,8.788-11.737,12.249c-9.299,7.042-19.351,12.85-29.553,18.448c-4.334,2.377-8.968,3.702-13.693,4.514
		c-9.51,1.595-19.11,2.648-28.62,4.093c-6.29,0.963-12.489,0.181-18.659-0.782c-6.049-0.933-12.098-2.137-17.997-3.702
		c-0.12-0.03-0.211-0.06-0.331-0.09c-5.206-1.414-10.353-3.22-13.813-7.885c-1.204-1.595-2.317-3.07-2.889-5.086
		c-0.782-2.769-1.685-3.1-4.334-2.016c-4.454,1.776-8.998,3.521-13.272,5.718c-8.095,4.123-16.01,8.487-23.534,13.663
		c-6.771,4.665-14.084,8.517-21.036,12.941c-11.948,7.614-23.624,15.74-35.722,23.083c-15.258,9.299-30.576,18.478-46.918,25.881
		c-25.189,11.436-51.281,20.043-78.366,25.37c-24.377,4.785-49.024,5.236-73.762,3.25c-27.266-2.227-52.876-10.353-77.403-21.879
		c-11.117-5.238-21.938-10.985-31.926-18.013c-6.19,22.128-13.914,43.319-18.195,64.997c5.05,4.014,9.94,8.256,15.151,12.032
		c12.67,9.149,26.062,17.094,40.176,23.925c14.867,7.163,30.215,13.091,46.045,17.635c16.432,4.725,33.104,7.283,50.017,7.855
		c6.561,0.211,13.181,0.15,19.832-0.241c20.193-1.144,40.086-4.003,59.648-9.149c5.206-1.354,10.503-2.498,15.739-3.792
		c2.739-0.692,5.537-1.294,8.156-2.317c15.408-5.808,30.606-12.098,45.112-19.983c11.255-6.109,22.029-12.88,32.442-20.284
		c4.635-3.31,9.42-6.35,14.205-9.42c3.04-1.956,4.755-4.484,5.567-8.095c2.197-9.991,4.695-19.892,7.163-29.824
		c2.889-11.616,8.065-22.421,12.309-33.525c0.391-1.023,1.204-1.926,1.926-2.769c0.752-0.903,1.776-1.505,2.949-0.843
		c1.053,0.572,1.475,1.655,1.595,2.829c0.181,1.776-0.602,3.28-1.294,4.845c-6.952,16.281-11.316,33.225-13.272,50.86
		c-0.602,5.598-2.167,11.105-3.1,16.703c-3.551,21.307-5.116,42.825-5.447,64.403c-0.361,22.962-0.602,45.924-0.602,68.917
		c0,9.901,0.632,19.832,1.144,29.764c0.903,17.816,1.896,35.662,2.949,53.478c0.12,2.107,0.271,4.153,0.451,6.2
		c111.531-46.918,206.359-134.041,260.89-250.899c-2.047-3.13-4.123-6.26-6.2-9.389c-4.574-6.832-9.209-13.603-13.783-20.434
		c-0.782-1.174-1.595-2.347-2.227-3.581c-0.602-1.174,0.511-2.829,1.956-3.16c2.468-0.602,4.454,0.241,6.049,2.107
		c6.23,7.343,12.519,14.686,17.304,23.083c0.391,0.662,0.782,1.324,1.174,1.986c3.07-6.922,6.019-13.964,8.788-21.096
		c9.299-23.865,16.733-48.151,22.3-72.679C1114.46,703.038,1108.531,697.831,1102.121,693.136z"/>
	<path d="M1096.313,439.649c0.782,0.963,0.692,2.197,0,3.16c-0.692,0.963-1.806,1.144-3.009,0.963
		c-2.648-0.421-4.604-1.836-6.35-3.822c-0.873-1.023-2.347-0.301-2.799,0.692c-0.933,2.046-1.354,4.273-2.197,6.35
		c-0.662,1.565-1.625,3.1-3.521,3.31c-1.715,0.181-3.461-0.211-4.544-1.655c-0.993-1.294-0.301-2.678,0.451-3.912
		c0.752-1.174,1.655-2.287,2.347-3.521c4.183-7.614,4.183-7.614-1.806-14.265c-0.722-0.843-1.625-1.625-2.107-2.588
		c-0.301-0.602-0.12-1.625,0.181-2.317c0.331-0.873,1.264-1.023,2.137-0.873c2.287,0.421,4.093,1.776,5.959,3.07
		c3.07,2.107,3.491,1.956,5.056-1.053c1.023-1.986,1.685-4.213,3.581-5.628c0.752-0.542,1.625-0.482,2.317,0.03
		c0.391,0.301,0.752,0.843,0.813,1.324c0.361,2.377-0.903,4.364-0.993,4.755c-0.933,2.829-1.264,3.912-1.655,4.966
		c-0.782,2.016-0.572,3.762,1.053,5.387C1093.003,435.797,1094.688,437.723,1096.313,439.649z"/>
	<path d="M1094.869,810.596c0,0.03,0.03,0.03,0.03,0.06c-0.241,0.482-0.451,0.933-0.692,1.414
		C1094.447,811.589,1094.658,811.077,1094.869,810.596z"/>
	<path d="M1094.869,810.596c-0.211,0.482-0.421,0.993-0.662,1.475c-0.03,0.09-0.06,0.15-0.12,0.241
		c-1.204,2.498-2.408,4.966-3.641,7.494c-1.806-2.769-3.641-5.537-5.477-8.276c1.475-3.1,2.889-6.23,4.273-9.39
		C1090.986,805.058,1092.882,807.857,1094.869,810.596z"/>
	<path d="M1090.445,819.805c1.234-2.528,2.438-4.996,3.641-7.494c-56.758,123.568-157.696,214.815-276.178,261.883l-2.498-6.26
		c0.963-0.602,1.956-1.234,2.919-2.016c1.354-1.083,2.829-1.685,4.304-1.926c0.482-0.241,0.993-0.481,1.505-0.722
		c-0.03-0.271-0.03-0.572-0.06-0.843c111.531-46.917,206.359-134.041,260.89-250.899
		C1086.803,814.267,1088.639,817.036,1090.445,819.805z"/>
	<path d="M1093.243,288.243c0,6.561,0.241,13.031-2.046,19.321c-0.391,1.053-0.662,2.137-3.1,3.371
		c-0.542-8.788-1.354-16.672-1.414-24.527c-0.06-12.369-2.317-24.256-6.922-35.662c-1.896-4.695-4.845-8.938-7.343-13.392
		c-1.685-3.04-5.206-3.22-7.734-4.936c-0.873-0.602-0.782-1.475-0.421-2.227c0.211-0.421,0.782-0.782,1.264-0.933
		c0.512-0.181,1.174-0.271,1.655-0.09c1.324,0.482,2.739,0.933,3.822,1.745c6.29,4.604,11.255,10.292,14.235,17.605
		C1090.384,261.279,1093.243,274.43,1093.243,288.243z"/>
	<path d="M1088.067,800.153c0.391,0.662,0.782,1.324,1.174,1.986c-1.384,3.16-2.799,6.29-4.273,9.39
		c-2.047-3.13-4.123-6.26-6.199-9.39c-4.574-6.831-9.209-13.603-13.783-20.434c-0.782-1.174-1.595-2.347-2.227-3.581
		c-0.602-1.174,0.512-2.829,1.956-3.16c2.468-0.602,4.454,0.241,6.049,2.107C1076.992,784.413,1083.282,791.756,1088.067,800.153z"
		/>
	<path fill="#DEA794" d="M1021.618,672.431c1.625,4.604-0.181,8.336-2.468,11.978c-1.806,2.889-4.213,5.297-6.922,7.433
		c-8.878,7.102-18.267,13.512-28.439,18.538c-9.209,4.514-19.2,6.862-29.372,8.366c-1.956,0.301-4.003,0.09-5.899,0.572
		c-13.723,3.521-26.875-0.271-40.146-2.558c-0.632-0.09-1.264-0.211-1.896-0.301c-0.542-0.09-1.083-0.331-1.625-0.512
		c-4.935-1.625-5.868-2.739-5.838-7.915c0-3.401,0.331-6.801,0.632-10.202c0.181-2.077,1.475-2.829,3.521-2.618
		c17.214,1.866,33.796-2.227,50.559-5.086c11.436-1.956,21.789-5.989,31.569-11.285c7.734-4.213,15.108-9.179,22.33-14.536
		c3.19-2.378,6.26-4.875,9.51-7.163c1.023-0.722,2.408-0.301,2.678,0.993c0.542,2.498,0.782,5.026,1.083,7.554
		C1021.167,667.947,1020.896,670.355,1021.618,672.431z"/>
	<path d="M1013.583,298.656c0.241,3.07,0.813,6.139-0.15,9.209c-0.542,1.655-2.859,2.227-4.153,1.083
		c-1.294-1.174-2.197-2.558-2.588-4.273c-1.715-7.132-1.776-14.475-2.408-21.728c-0.09-0.813,0.271-1.655,0.421-2.347
		c0.782-1.655,1.505-3.16,3.16-3.942c1.414-0.692,4.123,0.542,3.912,1.986C1010.694,285.475,1013.071,291.975,1013.583,298.656z"/>
	<path d="M982.616,673.725l2.678,5.116c-9.781,5.297-20.133,9.329-31.569,11.285c-16.763,2.859-33.345,6.952-50.559,5.086
		c-2.046-0.211-3.341,0.542-3.521,2.618c-0.301,3.401-0.632,6.801-0.632,10.202c-0.03,5.176,0.903,6.29,5.838,7.915
		c0.542,0.181,1.083,0.421,1.625,0.512c0.632,0.09,1.264,0.211,1.896,0.301l-1.655,6.531c-0.12-0.03-0.211-0.06-0.331-0.09
		c-5.206-1.414-10.353-3.22-13.813-7.885c-1.204-1.595-2.317-3.07-2.889-5.086c-0.782-2.769-1.685-3.1-4.334-2.016
		c-4.454,1.776-8.998,3.521-13.272,5.718c-8.095,4.123-16.01,8.487-23.534,13.663c-6.771,4.665-14.084,8.517-21.036,12.941
		c-11.948,7.614-23.624,15.74-35.722,23.083c-15.258,9.299-30.576,18.478-46.917,25.881c-25.189,11.436-51.281,20.043-78.366,25.37
		c-24.377,4.785-49.024,5.237-73.762,3.25c-27.266-2.227-52.876-10.353-77.403-21.879c-17.756-8.366-34.759-18.027-48.813-32.141
		c-1.926-1.956-4.093-3.762-7.343-4.875c-1.535,5.206-1.685,10.292-2.137,15.288c-0.602,6.771-0.602,13.573-1.023,20.374
		c-0.692,11.617-1.324,23.233-0.903,34.88c0.15,4.093,1.053,6.741,4.514,9.209c7.132,5.116,13.633,11.135,20.735,16.281
		c12.67,9.149,26.062,17.094,40.176,23.925c14.867,7.163,30.215,13.091,46.045,17.635c16.432,4.725,33.104,7.283,50.017,7.855
		l-0.301,8.607c-13.573-0.391-27.055-1.836-40.477-5.056c-19.742-4.695-38.521-11.586-56.879-20.043
		c-15.8-7.283-30.516-16.311-44.63-26.333c-3.25-2.287-6.169-4.996-9.239-7.494c-1.986-1.595-3.912-3.28-6.049-4.695
		c-2.949-1.986-4.063-1.414-4.304,1.896c-0.09,1.414-0.15,2.859-0.181,4.273c-0.241,32.051-0.542,64.102-0.662,96.182
		c-0.09,22.12,0.993,44.209,2.558,66.268c0.933,13.302,1.113,26.664,3.04,39.875c0.632,4.484,1.234,8.998,1.806,13.482
		c-3.22-1.174-6.44-2.377-9.66-3.641c-0.512-4.003-0.993-8.035-1.445-12.068c-2.618-24.828-3.702-49.746-4.936-74.695
		c-1.144-22.932-0.692-45.864,0.12-68.826c0.602-16.733,0.181-33.495,0.271-50.228c0.03-13.302,0.15-26.604,0.181-39.936
		c0-2.799-0.181-5.598-0.271-8.306c-2.618-1.113-4.785,0.06-6.862,0.662c-11.767,3.581-23.865,4.905-36.023,6.23
		c-14.987,1.625-30.034,1.926-45.022,0.572c-14.445-1.264-28.74-3.852-42.614-8.065c-11.647-3.551-23.323-6.982-34.609-11.797
		c-9.42-4.003-18.418-8.758-27.446-13.543c-17.425-9.209-32.743-21.337-47.549-34.248c-8.336-7.253-16.492-14.716-24.076-22.782
		c-4.845-5.176-9.149-10.834-13.693-16.281c-1.083-1.294-2.077-2.678-3.25-3.882c-1.113-1.144-2.498-1.414-3.702-0.12
		c-2.167,2.257-4.183,4.635-6.35,6.862c-1.745,1.776-3.491,3.521-5.206,5.297c-0.933-3.672-1.776-7.343-2.618-11.015
		c7.945-9.51,15.288-19.471,22.24-29.764c6.831-10.142,10.353-21.096,9.299-33.706c-1.053-12.399-0.662-24.948-1.174-37.408
		c-0.271-7.072-0.963-14.144-1.715-21.187c-0.271-2.739-1.745-3.491-4.123-2.408c-11.737,5.267-23.985,5.537-36.475,4.304
		c0.03-1.264,0.06-2.558,0.09-3.822c-0.361,0.03-0.722,0.03-1.083,0.03c-3.07,0.03-5.598-0.963-7.463-2.528l0.271-2.137
		c13.151,2.347,26.152,2.257,39.033-3.1c9.931-4.123,18.267-10.112,25.219-18.267c9.329-11.015,15.138-23.985,20.434-37.107
		c6.29-15.529,10.533-31.75,15.077-47.911c4.996-17.846,7.734-36.023,9.721-54.381c0.361-3.371,0.873-6.831,0.602-10.172
		c-0.572-6.531-0.361-13.031-0.241-19.561c0.06-3.1-0.271-6.23-0.512-9.329c-0.421-5.086-0.993-10.142-1.324-15.228
		c-0.12-1.956,0.181-3.942,0.451-5.899c0.15-1.204,1.053-2.016,2.167-2.408c1.264-0.421,2.257,0.271,2.949,1.174
		c1.806,2.227,3.009,4.725,3.19,7.734c0.361,5.929,0.993,11.857,1.414,17.816c0.662,9.6-0.211,19.261,0.843,28.891
		c0.361,3.04-0.331,6.199-0.602,9.299c-1.445,17.304-4.334,34.368-8.848,51.131c-6.681,24.948-13.603,49.837-26.062,72.739
		c-4.364,8.035-9.179,15.679-15.469,22.33c-2.528,2.648-5.327,5.086-8.095,7.494c-1.655,1.445-2.408,3.1-2.287,5.236
		c0.09,1.715-0.12,3.461,0.211,5.086c2.167,11.225,1.445,22.631,2.197,33.917c0.301,4.243,0.482,8.517,0.542,12.76
		c0.06,7.945,0.12,15.89-0.06,23.805c-0.06,3.431,1.174,5.929,3.521,8.306c13.813,13.964,29.222,25.972,45.593,36.836
		c12.58,8.336,26.062,14.957,39.454,21.819c11.105,5.688,22.24,11.346,33.856,15.95c18.267,7.223,36.956,12.941,56.578,15.348
		c13.242,1.625,26.574,2.408,39.875,2.016c13.302-0.391,26.604-1.384,39.815-3.371c3.491-0.512,4.123-0.993,4.514-4.845
		c0.602-5.959,1.264-11.857,2.588-17.696c0.09-0.421,0.15-0.843,0.211-1.264l6.801,0.361c-0.03,0.331-0.03,0.722-0.03,1.053
		c0,13.663-2.949,9.901,7.795,19.622c7.584,6.862,15.077,13.813,23.715,19.381c14.596,9.39,29.974,17.304,46.255,23.293
		c12.008,4.394,24.136,8.457,36.776,10.653c24.768,4.243,49.596,5.026,74.574,1.956c18.96-2.347,37.347-6.741,55.404-12.911
		c13.723-4.695,27.356-9.45,40.387-15.8c18.659-9.089,36.414-19.742,53.809-31.028c18.568-12.038,37.257-23.895,56.096-35.451
		c8.968-5.477,18.538-9.841,28.379-13.573c1.595-0.602,3.25-1.144,4.695-1.986c0.572-0.331,1.053-1.445,0.963-2.137
		c-0.06-0.692-0.722-1.565-1.354-1.896c-0.963-0.542-2.137-0.662-3.22-0.963c-2.227-0.632-4.454-1.264-6.681-1.896l2.107-7.584
		c13.392,3.672,27.236,4.695,41.2,4.364c15.679-0.331,30.907-3.942,46.045-7.734C972.203,678.661,977.59,676.554,982.616,673.725z
		 M448.256,769.577c0.331-4.183-0.09-4.695-3.852-4.243c-0.271,0.03-0.572,0.09-0.843,0.12c-19.411,2.889-38.882,3.401-58.504,2.739
		c-27.597-0.933-53.899-7.343-79.299-17.605c-18.147-7.313-35.662-16.131-52.846-25.49c-23.715-12.941-45.714-28.409-65.065-47.429
		c-0.752-0.722-1.294-1.896-2.678-1.655c-0.451,0.331-1.114,0.602-1.264,1.023c-2.107,6.26-5.808,11.617-9.751,16.853
		c-1.174,1.565-2.227,3.28-3.34,4.905c-1.505,2.197-1.234,4.304,0.391,6.26c4.725,5.628,9.42,11.316,14.265,16.883
		c9.901,11.346,21.488,20.916,32.863,30.727c13.332,11.526,27.386,21.909,43.276,29.703c11.466,5.598,22.812,11.406,34.91,15.619
		c14.506,5.026,29.342,8.727,44.329,11.797c13.964,2.859,28.169,3.551,42.343,3.07c13.001-0.451,25.972-1.595,38.852-3.792
		c7.343-1.264,14.325-3.371,21.397-5.447c2.227-0.662,3.1-1.986,3.16-4.334c0.15-5.658,0.512-11.316,0.813-16.973
		C447.654,778.063,447.925,773.82,448.256,769.577z"/>
	<path d="M953.815,529.723c1.053,9.751-0.722,19.17-2.438,26.995c-3.672,10.322-9.028,17.335-16.251,23.263
		c-13.482,11.075-28.861,13.633-45.503,11.406c-6.741-0.873-13.452-2.107-19.2-6.23c-0.451-0.331-0.993-0.542-1.475-0.843
		c-5.237-3.521-5.477-6.561-0.512-10.593c18.237-14.837,36.776-29.252,57.902-39.936c6.801-3.461,13.783-6.621,20.735-9.781
		c3.009-1.384,5.628,0.03,6.44,3.19C953.695,528.007,953.725,528.88,953.815,529.723z M940.333,560.931
		c4.123-7.855,5.868-16.341,6.5-26.273c-8.547,3.19-14.536,7.915-20.103,13.061c-6.922,6.38-12.429,13.904-15.89,22.721
		c-1.053,2.588-1.715,5.387-2.257,8.156c-0.632,3.009,0.752,4.123,3.912,3.341c1.354-0.361,2.739-0.752,3.972-1.414
		c5.718-3.07,11.406-6.2,16.432-10.443C935.999,567.491,938.497,564.452,940.333,560.931z"/>
	<path fill="#B85A50" d="M946.833,534.658c-0.632,9.931-2.378,18.418-6.5,26.273c-1.836,3.521-4.334,6.561-7.433,9.149
		c-5.026,4.243-10.714,7.373-16.432,10.443c-1.234,0.662-2.618,1.053-3.972,1.414c-3.16,0.782-4.544-0.331-3.912-3.341
		c0.542-2.769,1.204-5.568,2.257-8.156c3.461-8.818,8.968-16.341,15.89-22.721C932.297,542.573,938.286,537.848,946.833,534.658z"/>
	<path d="M937.353,423.007c0.752,0.903,1.324,1.986,0.632,3.07c-0.391,0.602-1.294,1.234-1.986,1.264
		c-1.956,0.12-3.973,0.09-5.899-0.211c-10.292-1.685-20.284-0.15-30.185,2.739c-4.665,1.384-8.878,3.611-12.549,6.862
		c-1.264,1.113-2.618,2.197-4.033,3.1c-1.505,0.963-3.371,0.271-4.304-1.414c-1.565-2.919-1.294-4.544,0.993-6.741
		c9.058-8.607,20.193-12.309,32.292-13.573c6.169-0.662,12.429-1.113,17.425,0.963C933.23,420.088,935.638,420.931,937.353,423.007z
		"/>
	<path fill="#8DBA92" d="M888.57,695.785c0.09,0.692-0.391,1.806-0.963,2.137c-1.445,0.843-3.1,1.384-4.695,1.986
		c-9.841,3.732-19.411,8.095-28.379,13.573c-18.839,11.556-37.528,23.414-56.096,35.451c-17.395,11.285-35.15,21.939-53.809,31.028
		c-13.031,6.35-26.664,11.105-40.387,15.8c-18.057,6.169-36.445,10.563-55.404,12.911c-24.979,3.07-49.807,2.287-74.574-1.956
		c-12.64-2.197-24.768-6.26-36.776-10.653c-16.281-5.989-31.66-13.904-46.255-23.293c-8.637-5.568-16.131-12.519-23.715-19.381
		c-10.744-9.721-7.795-5.959-7.795-19.622c0-0.331,0-0.722,0.03-1.053c0.06-0.241,0.12-0.451,0.241-0.602
		c0.482-0.602,1.264-1.324,1.926-1.324c1.083-0.03,2.197,0.482,3.31,0.722c10.563,2.528,20.163,1.023,28.861-5.989
		c3.341-2.708,6.591-5.387,9.179-8.818c2.107-2.799,4.695-4.574,8.035-5.868c9.299-3.581,18.237-8.065,25.881-14.536
		c7.524-6.38,12.218-13.994,9.329-24.647c-1.294-4.755-4.243-8.005-7.825-10.774c-4.695-3.672-9.48-7.253-14.987-9.69
		c-1.745-0.782-3.822-1.234-4.484-3.581c2.498-1.986,5.447-1.053,8.186-1.083c7.132-0.09,14.114-0.572,20.976-2.919
		c3.822-1.324,6.982-3.732,10.413-5.688c3.702-2.137,7.102-3.009,11.165-1.113c2.287,1.053,4.695,1.625,7.163,1.956
		c1.505,0.181,3.009,0.301,4.484,0.331c10.744,0.331,20.585-2.197,26.634-11.887c6.169-9.901,11.376-20.344,13.001-32.141
		c0.421-3.07,0.903-6.169,1.144-9.269c1.384-17.906,2.016-35.752-4.033-53.087c-0.843-2.438-1.535-4.905-2.528-7.253
		c-0.993-2.317-0.813-4.273,0.752-6.32c3.852-4.996,5.959-10.924,8.607-16.552c6.561-13.904-0.542-35.331-17.485-40.387
		c-4.364-1.294-8.607-2.678-13.272-2.438c-4.454,0.181-5.176-0.542-5.808-4.334c-1.234-7.554-2.829-15.017-4.755-22.39
		c-2.197-8.517-4.845-16.883-7.945-25.189c-8.788-23.594-21.187-45.142-35.331-65.817c-2.558-3.732-4.454-8.186-8.276-10.684
		c-1.655-1.053-2.588-2.468-3.28-4.003c-1.114-2.528-1.565-5.357-3.28-7.554c-1.053-1.324-2.287-2.498-3.491-3.702
		c-0.963-0.993-2.468-1.475-2.708-3.551c1.565-1.174,3.611-2.227,4.966-3.852c5.477-6.561,5.507-12.519-0.692-17.846
		c-2.378-2.046-5.176-3.551-8.126-4.544c-5.116-1.745-10.202-3.521-15.408-4.936c-23.504-6.29-47.58-7.674-71.746-7.794
		c-10.744-0.03-21.518,0.632-32.292,1.113c-17.605,0.813-34.94,3.009-52.094,7.463c-25.641,6.651-50.74,14.536-74.364,26.664
		c-3.551,1.806-7.102,3.581-10.593,5.447c-2.498,1.354-4.875,1.264-7.223-0.271c-1.204-0.782-2.468-1.475-3.521-2.408
		c-4.635-4.033-9.721-6.952-15.107-9.089C333.625,166.601,496.196,90.101,662.86,99.009c51.221,2.739,102.863,13.543,153.151,33.134
		c1.294,0.512,2.618,1.023,3.912,1.535c-5.898,2.107-11.677,4.604-17.365,7.433c-23.173,11.496-42.885,27.476-59.286,47.61
		c-4.665,5.718-9.058,11.586-13.212,17.726c-7.794,11.586-13.753,24.106-20.133,36.475c-8.818,17.003-15.649,34.579-19.381,53.388
		c-1.324,6.681-2.287,13.392-2.919,20.193c-1.294,13.964,1.144,27.747,1.294,41.621c0,0.843,0.09,1.715,0.391,2.498
		c1.806,4.845,3.792,9.54,9.901,10.322c7.313,0.933,14.415,3.04,21.789,3.792c7.885,0.843,15.74,2.227,23.715,2.227
		c2.016,0,3.04,1.174,3.25,3.16c0.03,0.301,0.06,0.632,0.12,0.933c1.053,8.727,2.167,17.395,3.16,26.122
		c0.782,6.771,0.963,13.633,2.227,20.284c1.113,5.778,1.083,10.292-4.364,14.054c-2.678,1.836-4.454,5.146-3.641,8.998
		c0.331,1.535,1.836,2.739,2.979,1.956c2.107-1.384,4.544-3.972,6.531-3.22c2.919,1.144,1.384,4.996,2.077,7.584
		c0.361,1.384,0.482,2.799,0.692,4.213c2.769,18.779,5.868,37.558,8.276,56.397c2.287,17.816,6.801,35.06,12.248,52.064
		c7.403,23.143,18.538,44.54,30.847,65.335c9.931,16.793,22.42,31.298,38.19,42.945c6.019,4.454,12.429,7.945,19.531,10.172
		c3.461,1.113,6.982,2.107,10.473,3.07c2.227,0.632,4.454,1.264,6.681,1.896c1.083,0.301,2.257,0.421,3.22,0.963
		C887.848,694.22,888.51,695.093,888.57,695.785z"/>
	<path d="M879.421,683.446l-2.107,7.584c-3.491-0.963-7.012-1.956-10.473-3.07c-7.102-2.227-13.513-5.718-19.531-10.172
		c-15.77-11.647-28.259-26.152-38.19-42.945c-12.309-20.795-23.444-42.193-30.847-65.335c-5.447-17.003-9.961-34.248-12.248-52.064
		c-2.408-18.839-5.507-37.618-8.276-56.397c-0.211-1.414-0.331-2.829-0.692-4.213c-0.692-2.588,0.843-6.44-2.077-7.584
		c-1.986-0.752-4.424,1.836-6.531,3.22c-1.144,0.782-2.648-0.421-2.979-1.956c-0.813-3.852,0.963-7.163,3.641-8.998
		c5.447-3.762,5.477-8.276,4.364-14.054c-1.264-6.651-1.445-13.512-2.227-20.284c-0.993-8.727-2.107-17.395-3.16-26.122l4.875-0.602
		c0.12,1.144,0.331,2.528,0.542,4.304c0.15,1.384,0.843,2.678,1.234,4.033c0.752,2.438,1.685,4.845,2.167,7.343
		c1.144,6.109,2.016,12.309,3.1,18.448c0.993,5.808,2.107,11.617,3.16,17.304c3.16,0.421,5.507-0.692,8.005-1.234
		c6.139-1.264,12.309-2.197,18.538-0.662c3.22,0.813,4.665,2.468,5.146,5.899c0.211,1.414-1.023,2.949-2.378,2.919
		c-0.843,0-1.715,0.03-2.528-0.181c-6.892-1.806-13.573,0-20.193,1.294c-4.364,0.873-5.899,2.588-5.056,7.132
		c1.445,7.825,2.347,15.709,3.491,23.564c2.678,18.237,5.267,36.505,8.065,54.712c3.19,20.886,9.39,40.899,17.545,60.31
		c6.711,16.01,15.198,31.088,23.835,46.105c9.69,16.823,22.992,30.065,38.491,41.38c4.665,3.371,9.841,5.748,15.138,7.704
		C873.974,681.821,876.683,682.694,879.421,683.446z"/>
	<path d="M850.711,259.172c2.197,0.722,1.475,2.618,0.933,4.243c-1.505,4.544-3.009,9.119-4.514,13.663
		c-3.04,9.149-4.063,18.779-6.801,27.988c-0.301,1.053-0.662,2.137-1.083,3.16c-0.241,0.692-0.782,0.903-1.294,0.542
		c-0.421-0.301-1.023-0.752-1.053-1.174c-0.15-2.799-0.361-5.628-0.211-8.427c0.391-6.801,2.588-13.242,3.973-19.862
		c1.294-6.139,3.581-11.857,6.5-17.395C847.942,260.406,848.634,258.45,850.711,259.172z"/>
	<path d="M845.956,135.513c0.963,0.451,1.926,0.873,2.889,1.324c-3.341,0.602-6.681,1.384-9.991,2.287
		c-1.204,0.301-2.438,0.632-3.641,1.023c-1.023-0.451-2.077-0.903-3.1-1.354C836.687,137.469,841.291,136.356,845.956,135.513z"/>
	<path d="M843.247,767.259c0.181,1.776-0.602,3.28-1.294,4.845c-6.952,16.281-11.316,33.224-13.272,50.86
		c-0.602,5.598-2.167,11.105-3.1,16.703c-3.551,21.307-5.116,42.825-5.447,64.402c-0.361,22.962-0.602,45.924-0.602,68.917
		c0,9.901,0.632,19.832,1.144,29.764c0.903,17.816,1.896,35.662,2.949,53.478c0.12,2.107,0.271,4.153,0.451,6.199
		c-3.28,1.384-6.561,2.739-9.841,4.033c-0.903-10.112-1.745-20.254-2.227-30.426c-0.963-20.133-1.595-40.236-1.926-60.4
		c-0.451-24.979-0.09-49.927,0.873-74.875c0.632-15.86,0.722-31.78,2.739-47.549c0.12-0.782,0.391-1.866-0.692-2.107
		c-0.752-0.181-1.745-0.09-2.377,0.301c-5.056,3.16-10.172,6.26-15.077,9.6c-23.353,15.98-48.633,28.169-75.297,37.317
		c-11.466,3.942-23.684,5.778-35.542,8.607c-15.499,3.732-31.268,5.688-47.158,6.26c-7.102,0.271-14.175,0.331-21.247,0.09
		l0.301-8.607c6.561,0.211,13.181,0.151,19.832-0.241c20.193-1.144,40.086-4.003,59.648-9.149c5.206-1.354,10.503-2.498,15.74-3.792
		c2.739-0.692,5.537-1.294,8.156-2.317c15.408-5.808,30.606-12.098,45.112-19.983c11.255-6.109,22.029-12.88,32.442-20.284
		c4.635-3.31,9.42-6.35,14.205-9.42c3.04-1.956,4.755-4.484,5.568-8.095c2.197-9.991,4.695-19.893,7.163-29.824
		c2.889-11.617,8.065-22.42,12.309-33.525c0.391-1.023,1.204-1.926,1.926-2.769c0.752-0.903,1.776-1.505,2.949-0.843
		C842.706,765.002,843.127,766.086,843.247,767.259z"/>
	<path d="M838.282,182.1c1.144,1.053,3.25,1.685,2.558,3.882c-0.482,1.505-2.046,1.776-3.431,2.137
		c-21.999,5.628-36.836,20.163-48.603,38.702c-10.443,16.402-17.425,34.278-22.782,52.906c-0.542,1.836-0.06,5.387-3.16,4.785
		c-2.107-0.391-1.294-3.581-1.083-5.297c1.144-10.112,1.896-20.344,6.44-29.764c3.491-11.827,9.39-22.511,16.552-32.412
		c7.132-9.901,14.867-19.291,25.37-26.002c7.012-4.484,14.626-7.433,22.511-9.781C834.671,180.655,836.627,180.565,838.282,182.1z"
		/>
	<path d="M832.684,129.675c4.454,1.896,8.908,3.822,13.272,5.838c-4.665,0.843-9.269,1.956-13.844,3.28
		c-4.063-1.745-8.095-3.461-12.188-5.116C824.137,132.143,828.381,130.819,832.684,129.675z"/>
	<path d="M819.112,124.168c4.544,1.776,9.089,3.611,13.573,5.507c-4.304,1.144-8.547,2.468-12.76,4.003
		c-1.294-0.512-2.618-1.023-3.912-1.535c-50.288-19.592-101.93-30.396-153.151-33.134c-166.664-8.908-329.235,67.592-429.51,203.47
		c-2.799-1.113-5.688-2.016-8.637-2.769C357.731,117.366,600.565,38.94,819.112,124.168z"/>
	<path d="M823.716,431.825c1.505,0.602,2.167,1.956,1.956,3.371c-0.331,2.227-0.933,4.424-1.655,6.561
		c-0.632,1.866-1.595,3.641-2.167,4.936c-2.167,8.607-6.44,15.679-10.052,23.052c-2.739,5.598-7.253,8.517-13.392,9.028
		c-1.715,0.15-3.401,0.301-5.086,0.542c-4.153,0.602-4.394,1.023-5.026,5.357c-0.331,2.077-0.151,3.942,0.632,5.808
		c0.752,1.836,1.685,3.641,2.167,5.568c1.053,4.213,3.461,6.952,7.614,8.366c1.866,0.602,3.702,1.384,4.905,3.16
		c0.963,1.445,0.482,3.672-1.023,4.304c-2.558,1.083-4.905,0.782-7.283-0.692c-3.431-2.167-6.109-5.146-8.366-8.366
		c-5.628-8.095-7.012-17.184-5.357-26.784c0.482-2.889,2.347-4.424,5.176-4.785c3.672-0.482,7.313-0.903,10.985-1.324
		c2.739-0.331,4.665-1.595,5.959-4.123c4.544-8.818,9.781-17.274,13.512-26.483c0.843-2.107,1.806-4.183,2.919-6.139
		C820.857,431.885,822.121,431.163,823.716,431.825z"/>
	<path d="M824.077,1062.427c0.03,0.271,0.03,0.572,0.06,0.843c-0.512,0.241-1.023,0.482-1.505,0.722
		c-1.475,0.241-2.949,0.843-4.304,1.926c-0.963,0.782-1.956,1.415-2.919,2.016c-0.331,0.181-0.662,0.391-0.993,0.572
		c-0.06-0.692-0.12-1.354-0.181-2.046C817.517,1065.166,820.797,1063.812,824.077,1062.427z"/>
	<path d="M815.41,1067.935l2.498,6.26c-67.322,26.784-140.301,39.273-214.033,35.361c-50.92-2.739-102.171-13.272-152.249-32.382
		l0.873-2.347c0.843,0.241,1.715,0.481,2.558,0.752c1.986-0.572,4.273-0.572,6.771,0.271c-0.181-1.414-0.361-2.799-0.542-4.213
		c118.332,43.246,243.255,38.28,352.95-5.176c0.06,0.692,0.12,1.354,0.181,2.046C814.748,1068.326,815.079,1068.115,815.41,1067.935
		z"/>
	<path fill="#8DBA92" d="M813.002,851.103c1.083,0.241,0.813,1.324,0.692,2.107c-2.016,15.77-2.107,31.69-2.739,47.549
		c-0.963,24.948-1.324,49.897-0.873,74.875c0.331,20.163,0.963,40.267,1.926,60.4c0.482,10.172,1.324,20.314,2.227,30.426
		c-109.695,43.457-234.618,48.422-352.95,5.176c-0.572-4.484-1.174-8.998-1.806-13.482c-1.926-13.211-2.107-26.573-3.04-39.875
		c-1.565-22.059-2.648-44.149-2.558-66.268c0.12-32.081,0.421-64.132,0.662-96.182c0.03-1.414,0.09-2.859,0.181-4.273
		c0.241-3.31,1.354-3.882,4.304-1.896c2.137,1.414,4.063,3.1,6.049,4.695c3.07,2.498,5.989,5.206,9.239,7.494
		c14.114,10.021,28.831,19.05,44.63,26.333c18.358,8.457,37.137,15.348,56.879,20.043c13.422,3.22,26.905,4.665,40.477,5.056
		c7.072,0.241,14.144,0.181,21.247-0.09c15.89-0.572,31.659-2.528,47.158-6.26c11.857-2.829,24.076-4.665,35.542-8.607
		c26.664-9.149,51.943-21.337,75.297-37.317c4.905-3.341,10.021-6.44,15.077-9.6C811.257,851.013,812.25,850.922,813.002,851.103z"
		/>
	<path d="M607.697,462.19c16.943,5.056,24.046,26.483,17.485,40.387c-2.648,5.628-4.755,11.556-8.607,16.552
		c-1.565,2.046-1.745,4.003-0.752,6.32c0.993,2.347,1.685,4.815,2.528,7.253c6.049,17.335,5.417,35.181,4.033,53.087
		c-0.241,3.1-0.722,6.199-1.144,9.269c-1.625,11.797-6.831,22.24-13.001,32.141c-6.049,9.69-15.89,12.218-26.634,11.887
		c-1.475-0.03-2.979-0.15-4.484-0.331l0.662-6.711c7.885,0.542,16.01-3.16,21.247-9.751c8.577-10.804,12.73-23.203,14.114-36.715
		c1.234-11.887,0.572-23.775-0.662-35.602c-0.692-6.38-2.197-12.7-4.484-18.599c-2.708-0.211-3.972,1.505-5.507,2.648
		c-2.016,1.505-3.732,3.641-5.989,4.665c-4.243,1.926-5.929,4.845-5.387,9.359c0.241,2.227,0.271,4.514,0.271,6.771
		c0,4.604,0.09,9.179,0.12,13.783l-7.795,0.06c0-7.253-0.391-14.536-0.542-21.819c-0.03-0.542,0.09-1.113,0.09-1.685
		c-0.03-1.595-0.843-2.708-2.347-3.13c-1.625-0.482-3.341-0.752-4.966-1.174c-7.494-2.076-12.971-6.741-17.274-13.061
		c-2.167-3.22-3.07-6.591-2.227-10.473c0.752-3.611,1.264-7.253,1.926-10.894c0.572-3.04,2.197-6.26,1.655-9.058
		c-0.752-3.762-5.387-3.491-8.246-5.026c-5.176-2.739-10.533-5.026-16.04-6.862l2.408-7.163c3.371,1.144,6.771,2.227,10.142,3.34
		c-0.06,0.12-0.09,0.211-0.12,0.331c4.033,1.324,8.065,2.708,12.128,3.972c3.25,0.993,4.003,0.752,5.568-2.046
		c3.792-6.651,7.584-13.272,13.272-18.568c1.414-1.294,1.565-2.949,1.264-4.695c-1.565-8.547-2.678-17.154-4.875-25.52l8.336-2.107
		c1.926,7.373,3.521,14.837,4.755,22.39c0.632,3.792,1.354,4.514,5.808,4.334C599.09,459.512,603.333,460.896,607.697,462.19z
		 M597.736,476.184c0.06-0.542,0.241-1.354-0.03-1.565c-0.572-0.451-1.414-0.903-2.077-0.813
		c-6.109,0.813-8.457,5.808-11.105,10.353c-0.361,0.572-0.301,1.806,0.09,2.317c0.752,0.963,1.986,0.873,3.04,0.361
		c4.454-2.107,7.674-5.447,9.751-9.781C597.555,476.696,597.736,476.455,597.736,476.184z"/>
	<path fill="#E8BF80" d="M612.482,549.976c1.234,11.827,1.896,23.715,0.662,35.602c-1.384,13.512-5.537,25.911-14.114,36.715
		c-5.236,6.591-13.362,10.292-21.247,9.751c-1.505-0.09-3.009-0.361-4.454-0.782c-1.475-0.421-2.137-2.137-1.264-3.28
		c0.692-0.903,1.354-1.896,2.197-2.588c5.447-4.544,8.517-10.563,10.593-17.124c2.287-7.283,4.936-14.415,5.868-22.12
		c0.722-5.868,0.813-11.707,0.782-17.545c-0.03-4.604-0.12-9.179-0.12-13.783c0-2.257-0.03-4.544-0.271-6.771
		c-0.542-4.514,1.144-7.433,5.387-9.359c2.257-1.023,3.972-3.16,5.989-4.665c1.535-1.144,2.799-2.859,5.507-2.648
		C610.285,537.276,611.79,543.596,612.482,549.976z"/>
	<path fill="#FFFFFF" d="M597.706,474.619c0.271,0.211,0.09,1.023,0.03,1.565c0,0.271-0.181,0.512-0.331,0.873
		c-2.077,4.334-5.297,7.674-9.751,9.781c-1.053,0.512-2.287,0.602-3.04-0.361c-0.391-0.512-0.451-1.746-0.09-2.317
		c2.648-4.544,4.996-9.54,11.105-10.353C596.291,473.717,597.134,474.168,597.706,474.619z"/>
	<path d="M591.506,568.605c0.03,5.838-0.06,11.677-0.782,17.545c-0.933,7.704-3.581,14.837-5.868,22.12
		c-2.077,6.561-5.146,12.58-10.593,17.124c-0.843,0.692-1.505,1.685-2.197,2.588c-0.873,1.144-0.211,2.859,1.264,3.28
		c1.445,0.421,2.949,0.692,4.454,0.782l-0.662,6.711c-2.468-0.331-4.875-0.903-7.163-1.956c-4.063-1.896-7.463-1.023-11.165,1.113
		c-3.431,1.956-6.591,4.364-10.413,5.688c-6.862,2.347-13.844,2.829-20.976,2.919c-2.739,0.03-5.688-0.903-8.186,1.083
		c0.662,2.347,2.739,2.799,4.484,3.581c5.507,2.438,10.292,6.019,14.987,9.69c3.581,2.769,6.531,6.019,7.825,10.774
		c2.889,10.654-1.806,18.267-9.329,24.647c-7.644,6.47-16.582,10.954-25.881,14.536c-3.341,1.294-5.929,3.07-8.035,5.868
		c-2.588,3.431-5.838,6.109-9.179,8.818c-8.697,7.012-18.298,8.517-28.861,5.989c-1.113-0.241-2.227-0.752-3.31-0.722
		c-0.662,0-1.445,0.722-1.926,1.324c-0.12,0.15-0.181,0.361-0.241,0.602l-6.801-0.361c0.241-1.535,0.271-3.1,0.241-4.665
		c-0.06-5.568-4.243-9.961-9.841-10.533c-2.528-0.271-5.056-0.692-7.584-0.963c-9.66-1.114-18.719-4.334-27.958-7.223
		c-16.101-5.056-31.148-12.399-45.563-20.886c-14.957-8.788-28.289-19.923-40.658-32.081c-3.401-3.34-6.952-6.711-9.209-11.075
		c-0.391-0.752-0.692-1.655,0.06-2.227c0.813-0.542,1.655,0.03,2.227,0.662c7.102,7.855,16.191,13.332,24.347,19.893
		c13.061,10.503,27.717,18.749,42.945,25.791c13.121,6.079,26.724,11.135,40.598,15.288c6.741,2.016,13.904,2.588,20.916,3.611
		c2.678,0.361,3.491-0.482,3.792-3.31c1.234-11.105,4.003-21.789,8.336-32.051c2.678-6.32,4.334-12.88,5.929-19.501
		c0.963-3.882,1.174-7.855,0.873-11.827c-0.602-7.584-3.31-13.753-11.045-16.582c-1.083-0.391-2.077-0.993-3.07-1.505
		c-9.901-5.086-18.839-11.586-27.446-18.568c-2.197-1.776-3.461-4.334-2.468-4.755c1.836-0.813,3.25,0.451,4.695,1.204
		c1.264,0.662,2.438,1.505,3.641,2.227c12.67,7.584,25.52,14.837,39.845,18.99c2.167,0.632,4.243,1.625,6.35,2.468
		c9.751,3.912,19.652,7.253,29.944,9.54c7.524,1.715,15.168,1.745,22.752,2.588c20.314,2.167,34.518-8.366,46.556-23.083
		c0.722-0.873,1.354-1.836,1.806-2.859c5.688-12.549,9.45-25.58,9.721-39.424c0-0.933,0.03-1.896,0.03-2.829L591.506,568.605z
		 M537.185,682.603c2.137-2.829,2.167-5.748,0.211-8.637c-3.521-5.267-8.306-9.179-13.573-12.549
		c-0.993-0.662-2.287,0.12-2.347,1.414c-0.15,2.558-0.15,5.086-0.241,7.644c-0.241,6.801-1.414,13.452-3.672,19.893
		c-0.602,1.896-1.264,3.762-1.836,5.658c-0.12,0.451-0.06,1.174,0.211,1.535c0.271,0.331,1.083,0.632,1.445,0.451
		C525.328,694.611,531.949,689.495,537.185,682.603z M488.161,718.085c18.027-17.666,25.761-38.882,21.578-64.071
		c-0.482-2.859-1.414-5.507-3.13-7.825c-0.662-0.843-1.595-1.565-2.528-2.107c-1.565-0.873-3.702,0.361-3.732,2.046
		c-0.03,0.572,0.09,1.114,0.12,1.685c0.963,13.272-1.715,25.972-6.44,38.25c-1.986,5.176-4.936,9.931-8.667,13.994
		c-1.384-0.782-1.324-1.655-1.113-2.468c1.384-5.778,2.558-11.617,4.304-17.274c3.16-10.262,3.1-20.705,2.408-31.178
		c-0.15-1.956-0.903-3.852-1.475-5.748c-0.512-1.685-1.445-3.009-3.28-3.611c-4.544-1.445-9.089-2.979-14.746-4.845
		c0.512,7.795,0.391,14.205-0.843,20.645c-1.866,9.841-4.875,19.261-9.028,28.289c-3.16,6.831-4.003,14.144-4.785,21.457
		c-0.301,3.04,0.361,6.23,0.933,9.269c0.632,3.25,2.739,5.688,5.808,6.862C470.285,724.074,480.306,725.819,488.161,718.085z"/>
	<path d="M583.862,433.029l-8.336,2.107c-0.331-1.204-0.662-2.408-1.023-3.581c-6.019-19.561-13.543-38.521-23.775-56.277
		c-5.929-10.292-12.58-20.163-18.96-30.215c-1.505-2.377-2.919-5.116-5.688-6.049c-2.377-0.782-3.762,2.107-5.929,2.708
		c-1.655,0.421-3.28,0.963-4.875,1.535c-1.234,0.421-1.655,1.475-1.445,2.678c0.15,0.843,0.572,1.625,0.843,2.408
		c7.975,22.27,12.158,45.383,15.288,68.706c1.475,10.924,1.776,21.999,2.618,33.014c0.09,1.414,0.03,2.829,0.181,4.243
		c0.301,3.28,0.722,3.822,3.852,4.635c3.551,0.903,7.253,1.414,10.563,3.16c2.949,1.565,3.822,3.912,2.709,7.102
		c-0.873,2.468-3.1,3.431-6.35,2.167c-2.678-1.053-5.297-1.956-8.156-2.016c-1.384-0.06-2.077,0.782-2.468,1.866
		c-1.083,2.979-0.241,5.206,2.468,6.169c0.933,0.331,1.836,0.632,2.769,0.933l-2.408,7.163c-5.507-1.866-11.165-3.341-16.853-4.484
		c-15.288-3.07-30.696-5.778-46.346-6.38c-4.033-0.15-7.855-1.234-11.496-2.889c-0.782-0.361-1.475-0.873-1.414-1.866
		c0.09-0.903,0.602-1.535,1.475-1.836c5.447-1.866,10.985-2.829,16.763-2.046c5.628,0.752,11.255,1.354,16.883,2.137
		c2.016,0.271,3.942,0.482,5.688-0.843c5.778-4.424,12.82-5.929,19.471-8.336c3.491-1.294,3.732-1.264,3.551-4.695
		c-0.542-10.172-1.204-20.374-1.896-30.546c-0.301-4.514-0.451-9.089-1.294-13.512c-2.197-11.436-4.755-22.782-7.102-34.157
		c-1.926-9.48-5.206-18.538-8.005-27.747c-1.113-3.672-2.829-5.929-6.862-6.38c-2.799-0.331-5.507-1.294-7.614-3.401
		c-1.294-1.324-1.023-3.401,0.572-4.304c2.077-1.144,4.273-1.475,6.591-1.234c3.371,0.361,6.741,0.843,10.142,1.113
		c4.364,0.331,8.487-0.421,12.068-3.13c1.053-0.782,1.414-1.986,0.813-3.009l8.156-0.602c0.692,1.535,1.625,2.949,3.28,4.003
		c3.822,2.498,5.718,6.952,8.276,10.684c14.144,20.675,26.543,42.223,35.331,65.817
		C579.017,416.146,581.665,424.512,583.862,433.029z M522.86,471.911c0.181-0.843-0.181-1.655-1.114-1.806
		c-0.752-0.12-1.625-0.03-2.377,0.15c-0.451,0.12-1.083,0.602-1.174,1.023c-0.211,0.903,0.602,1.294,1.565,1.685
		c0.542,0.03,1.354,0.181,2.137,0.03C522.288,472.934,522.77,472.332,522.86,471.911z"/>
	<path d="M235.968,475.883c-6.681,24.949-13.603,49.837-26.062,72.739c-4.364,8.035-9.179,15.679-15.468,22.33
		c-2.528,2.648-5.327,5.086-8.095,7.494c-1.655,1.444-2.408,3.1-2.287,5.236c0.09,1.715-0.12,3.461,0.211,5.086
		c1.432,7.419,1.603,14.917,1.771,22.408c42.78-43.864,57.288-110.634,57.448-173.729
		C241.851,450.413,239.375,463.234,235.968,475.883z"/>
	<path fill="#E8BF80" d="M583.17,546.846c-0.03-0.542,0.09-1.113,0.09-1.685c-0.03-1.595-0.843-2.709-2.347-3.13
		c-1.625-0.482-3.34-0.752-4.966-1.174c-7.494-2.077-12.971-6.741-17.274-13.061c-2.167-3.22-3.07-6.591-2.227-10.473
		c0.752-3.611,1.264-7.253,1.926-10.894c0.572-3.04,2.197-6.26,1.655-9.059c-0.752-3.762-5.387-3.491-8.246-5.026
		c-5.176-2.739-10.533-5.026-16.041-6.862c-5.507-1.866-11.165-3.34-16.853-4.484c-15.288-3.07-30.697-5.778-46.346-6.38
		c-4.033-0.15-7.855-1.234-11.496-2.889c-0.783-0.361-1.475-0.873-1.414-1.866c0.09-0.903,0.602-1.535,1.475-1.836
		c5.447-1.866,10.985-2.829,16.763-2.046c5.628,0.752,11.255,1.354,16.883,2.137c2.016,0.271,3.942,0.481,5.688-0.843
		c5.778-4.424,12.82-5.929,19.471-8.336c3.491-1.294,3.732-1.264,3.551-4.695c-0.542-10.172-1.204-20.374-1.896-30.546
		c-0.301-4.514-0.451-9.089-1.294-13.512c-2.197-11.436-4.755-22.782-7.102-34.158c-1.926-9.48-5.206-18.538-8.005-27.747
		c-1.113-3.672-2.829-5.929-6.862-6.38c-2.799-0.331-5.507-1.294-7.614-3.401c-1.294-1.324-1.023-3.401,0.572-4.303
		c2.077-1.144,4.273-1.475,6.591-1.234c3.371,0.361,6.741,0.843,10.142,1.113c4.364,0.331,8.487-0.421,12.068-3.13
		c1.053-0.782,1.415-1.986,0.813-3.009c-0.963-1.685-2.046-3.461-3.461-4.755c-5.899-5.267-12.76-8.426-20.735-8.637
		c-4.544-0.12-9.089,0-13.633-0.06c-1.956-0.06-3.973-0.181-5.868-0.602c-2.829-0.602-3.972-2.317-3.671-4.815
		c0.271-2.197,1.444-3.461,3.973-3.671c2.528-0.241,5.086-0.151,7.644-0.181c7.644-0.09,15.318-0.151,22.962-0.301
		c3.431-0.09,6.741-0.783,9.841-2.408c2.678-1.414,2.708-3.25,0-5.026c-2.859-1.896-6.049-3.13-9.299-4.153
		c-7.042-2.227-14.174-3.912-21.397-5.537c-13.091-3.009-26.363-4.213-39.635-4.785c-20.133-0.843-40.297-0.06-60.4,1.444
		c-10.172,0.752-20.404,0.963-30.366,3.762c-6.831,1.896-13.723,3.611-20.585,5.417c-19.772,5.236-39.213,11.406-57.541,20.765
		c-3.28,1.685-6.681,3.1-10.082,4.544c-5.056,2.197-6.591,2.347-2.618,8.607c0.783,1.204,1.746,2.257,2.558,3.401
		c0.812,1.174,1.655,2.317,2.347,3.551c1.053,1.926,0.843,3.822-0.481,4.544c-1.475,0.783-2.739,0.241-3.792-0.873
		c-1.384-1.414-2.769-2.859-4.033-4.364c-7.915-9.54-17.455-17.034-28.62-22.3c-3.28-1.565-6.651-2.859-10.112-3.792
		c-1.926,0.271-3.822,0.662-5.718,1.204c0.512-0.722,1.023-1.444,1.535-2.167c-4.484-0.843-9.088-1.053-13.753-0.512
		c-9.721,1.113-18.689,4.815-26.814,10.292c-10.413,6.982-19.351,15.679-27.958,24.768c-9.751,10.262-18.809,21.066-27.145,32.592
		c-10.804,14.927-21.488,29.944-30.697,45.924c-11.978,20.735-20.675,42.885-28.831,65.335c-3.852,10.624-5.628,21.367-5.327,32.532
		c0.301,10.593,2.077,20.856,8.005,30.034c4.484,6.922,9.089,13.844,15.89,18.629c8.366,5.868,17.425,10.623,27.386,13.362
		c3.551,0.963,7.163,1.655,10.774,2.438c1.715,0.391,3.431,0.722,5.176,1.053c13.152,2.347,26.152,2.257,39.033-3.1
		c9.931-4.123,18.267-10.112,25.219-18.267c9.329-11.015,15.137-23.985,20.434-37.107c6.29-15.529,10.533-31.75,15.077-47.911
		c4.996-17.846,7.734-36.023,9.721-54.381c0.361-3.371,0.873-6.831,0.602-10.172c-0.572-6.531-0.361-13.031-0.241-19.561
		c0.06-3.1-0.271-6.23-0.512-9.329c-0.421-5.086-0.993-10.142-1.324-15.228c-0.12-1.956,0.181-3.942,0.451-5.899
		c0.15-1.204,1.053-2.016,2.167-2.408c1.264-0.421,2.257,0.271,2.949,1.174c1.806,2.227,3.009,4.725,3.19,7.734
		c0.361,5.929,0.993,11.857,1.414,17.816c0.662,9.6-0.211,19.261,0.843,28.891c0.361,3.039-0.331,6.199-0.602,9.299
		c-0.355,4.247-0.801,8.478-1.332,12.695c-0.16,63.094-14.668,129.865-57.448,173.729c0.086,3.842,0.171,7.683,0.426,11.509
		c0.301,4.243,0.482,8.517,0.542,12.76c0.06,7.945,0.12,15.89-0.06,23.805c-0.06,3.431,1.174,5.929,3.521,8.306
		c13.813,13.964,29.222,25.972,45.593,36.836c12.58,8.336,26.062,14.957,39.454,21.819c11.105,5.688,22.24,11.346,33.856,15.95
		c18.267,7.223,36.956,12.941,56.578,15.348c13.242,1.625,26.574,2.408,39.875,2.016c13.302-0.391,26.604-1.384,39.815-3.371
		c3.491-0.512,4.123-0.993,4.514-4.845c0.602-5.959,1.264-11.857,2.588-17.696c0.09-0.421,0.151-0.843,0.211-1.264
		c0.241-1.535,0.271-3.1,0.241-4.665c-0.06-5.568-4.243-9.961-9.841-10.533c-2.528-0.271-5.056-0.692-7.584-0.963
		c-9.66-1.114-18.719-4.334-27.958-7.223c-16.101-5.056-31.148-12.399-45.563-20.886c-14.957-8.788-28.289-19.923-40.658-32.081
		c-3.401-3.341-6.952-6.711-9.209-11.075c-0.391-0.752-0.692-1.655,0.06-2.227c0.813-0.542,1.655,0.03,2.227,0.662
		c7.102,7.855,16.191,13.332,24.347,19.893c13.061,10.503,27.717,18.749,42.945,25.791c13.121,6.079,26.724,11.135,40.598,15.288
		c6.741,2.016,13.904,2.588,20.916,3.611c2.678,0.361,3.491-0.482,3.792-3.311c1.234-11.105,4.002-21.788,8.336-32.051
		c2.678-6.32,4.334-12.881,5.929-19.501c0.963-3.882,1.174-7.855,0.873-11.827c-0.602-7.584-3.31-13.753-11.045-16.582
		c-1.083-0.391-2.077-0.993-3.07-1.505c-9.901-5.086-18.839-11.586-27.446-18.568c-2.197-1.776-3.461-4.334-2.468-4.755
		c1.836-0.812,3.25,0.451,4.695,1.204c1.264,0.662,2.438,1.505,3.642,2.227c12.67,7.584,25.52,14.837,39.845,18.99
		c2.167,0.632,4.243,1.625,6.35,2.468c9.751,3.912,19.652,7.253,29.944,9.54c7.524,1.715,15.168,1.746,22.752,2.588
		c20.314,2.167,34.519-8.366,46.556-23.083c0.722-0.873,1.354-1.836,1.806-2.859c5.688-12.549,9.45-25.58,9.721-39.424
		c0-0.933,0.03-1.896,0.03-2.829C583.712,561.412,583.32,554.129,583.17,546.846z M110.594,527.586
		c-1.053,1.084-2.257,1.715-3.732,1.836c-5.206,0.481-9.57-1.264-12.519-5.598c-2.016-2.919-4.153-5.086-7.945-5.658
		c-1.806-0.241-3.491-1.775-5.146-2.859c-2.287-1.565-3.401-3.822-3.009-6.591c0.482-3.642,1.204-7.253,1.595-9.66
		c1.234-3.009,1.866-4.905,2.739-6.681c0.843-1.715,2.408-2.347,4.243-1.806c1.775,0.542,2.919,1.806,2.859,3.732
		c-0.06,1.685-0.301,3.401-0.662,5.056c-0.451,2.197-1.113,4.394-1.625,6.591c-0.331,1.384-0.782,3.341,0.331,4.033
		c1.986,1.204,2.829-0.903,3.762-2.257c1.415-2.107,3.22-1.685,5.236-0.993c2.167,0.752,3.371,1.986,3.28,4.334
		c-0.06,1.415-0.15,2.829-0.06,4.243c0.421,5.236,1.565,6.41,7.072,7.614c1.084,0.241,2.167,0.602,3.19,1.053
		C111.437,524.516,111.587,526.593,110.594,527.586z M190.164,456.292c-0.933,1.715-1.986,3.431-3.25,4.936
		c-3.491,4.093-6.109,4.695-11.978,2.678c-2.167-0.692-4.243-2.408-5.387-5.267c-1.294-3.16-2.107-6.47-2.408-9.841
		c-0.271-2.528,0.843-4.665,2.317-4.996c1.956-0.391,4.454,1.234,5.086,3.461c0.542,1.896,0.873,3.882,1.415,5.778
		c0.331,1.053,0.873,2.077,1.444,3.04c0.482,0.812,1.445,1.023,2.137,0.421c1.685-1.475,3.13-3.25,4.875-4.665
		c1.444-1.174,3.19-1.023,4.755-0.09C190.586,452.59,191.067,454.546,190.164,456.292z M392.852,496.408
		c-2.016,1.294-3.792,0-5.447-1.023c-16.251-9.931-33.345-11.617-51.221-5.086c-2.618,0.963-5.026,2.528-7.494,3.912
		c-2.678,1.535-5.267,3.25-7.975,4.815c-0.271,0.15-0.963-0.211-1.384-0.481c-0.151-0.09-0.271-0.572-0.181-0.783
		c0.421-1.023,0.752-2.167,1.444-3.009c11.285-14.265,25.671-20.856,43.968-17.335c2.769,0.542,5.477,1.415,8.216,2.107
		c6.5,1.565,11.827,5.297,17.094,9.179c0.451,0.331,0.903,0.662,1.324,1.053C393.664,492.104,394.507,495.355,392.852,496.408z
		 M458.428,415.544c-0.662-2.167-1.444-4.334-1.655-6.53c-0.813-8.667-1.444-17.365-2.137-26.032
		c-0.09-1.294,0.602-2.197,1.836-2.347c1.294-0.151,2.167,0.843,2.347,1.956c0.782,5.537,1.535,11.105,2.137,16.673
		c0.421,3.882,0.542,7.825,0.873,11.707c0.15,1.746-0.15,3.341-0.963,4.875c-0.421,0.271-0.903,0.752-1.264,0.692
		C459.15,416.446,458.548,415.965,458.428,415.544z"/>
	<path fill="#E8BF80" d="M580.401,460.655c0.301,1.745,0.15,3.401-1.264,4.695c-5.688,5.297-9.48,11.917-13.272,18.568
		c-1.565,2.799-2.317,3.04-5.568,2.046c-4.063-1.264-8.095-2.648-12.128-3.972c0.03-0.12,0.06-0.211,0.12-0.331
		c-3.371-1.113-6.771-2.197-10.142-3.34c-0.933-0.301-1.836-0.602-2.769-0.933c-2.708-0.963-3.551-3.19-2.468-6.169
		c0.391-1.083,1.083-1.926,2.468-1.866c2.859,0.06,5.477,0.963,8.156,2.016c3.25,1.264,5.477,0.301,6.35-2.167
		c1.113-3.19,0.241-5.537-2.709-7.102c-3.31-1.745-7.012-2.257-10.563-3.16c-3.13-0.813-3.551-1.354-3.852-4.635
		c-0.151-1.414-0.09-2.829-0.181-4.243c-0.843-11.015-1.144-22.089-2.618-33.014c-3.13-23.323-7.313-46.436-15.288-68.706
		c-0.271-0.782-0.692-1.565-0.843-2.408c-0.211-1.204,0.211-2.257,1.445-2.678c1.595-0.572,3.22-1.114,4.875-1.535
		c2.167-0.602,3.551-3.491,5.929-2.708c2.769,0.933,4.183,3.672,5.688,6.049c6.38,10.052,13.031,19.923,18.96,30.215
		c10.232,17.756,17.756,36.715,23.775,56.277c0.361,1.174,0.692,2.377,1.023,3.581C577.723,443.502,578.836,452.109,580.401,460.655
		z"/>
	<path fill="#E8BF80" d="M537.396,673.966c1.956,2.889,1.926,5.808-0.211,8.637c-5.236,6.892-11.857,12.008-19.802,15.408
		c-0.361,0.181-1.174-0.12-1.445-0.451c-0.271-0.361-0.331-1.083-0.211-1.535c0.572-1.896,1.234-3.762,1.836-5.658
		c2.257-6.44,3.431-13.091,3.672-19.893c0.09-2.558,0.09-5.086,0.241-7.644c0.06-1.294,1.354-2.076,2.347-1.414
		C529.09,664.787,533.875,668.7,537.396,673.966z"/>
	<path d="M529.03,327.336l-8.156,0.602c-0.963-1.685-2.046-3.461-3.461-4.755c-5.899-5.267-12.76-8.426-20.735-8.637
		c-4.544-0.12-9.089,0-13.633-0.06c-1.956-0.06-3.972-0.181-5.868-0.602c-2.829-0.602-3.973-2.317-3.672-4.815
		c0.271-2.197,1.445-3.461,3.972-3.672c2.528-0.241,5.086-0.15,7.644-0.181c7.644-0.09,15.318-0.15,22.962-0.301
		c3.431-0.09,6.741-0.782,9.841-2.408c2.678-1.414,2.709-3.25,0-5.026c-2.859-1.896-6.049-3.13-9.299-4.153
		c-7.042-2.227-14.175-3.912-21.397-5.537c-13.091-3.009-26.363-4.213-39.635-4.785c-20.133-0.843-40.297-0.06-60.4,1.445
		c-10.172,0.752-20.404,0.963-30.365,3.762c-6.831,1.896-13.723,3.611-20.585,5.417c-19.772,5.236-39.213,11.406-57.541,20.765
		c-3.28,1.685-6.681,3.1-10.082,4.544c-5.056,2.197-6.591,2.347-2.618,8.607c0.782,1.204,1.745,2.257,2.558,3.401
		c0.813,1.174,1.655,2.317,2.347,3.551c1.053,1.926,0.843,3.822-0.482,4.544c-1.475,0.782-2.739,0.241-3.792-0.873
		c-1.384-1.414-2.769-2.859-4.033-4.364c-7.915-9.54-17.455-17.034-28.62-22.3c-3.28-1.565-6.651-2.859-10.112-3.792
		c1.956-0.271,3.942-0.421,6.019-0.482c1.144-1.595,2.317-3.19,3.461-4.755c5.387,2.137,10.473,5.056,15.107,9.089
		c1.053,0.933,2.317,1.625,3.521,2.408c2.347,1.535,4.725,1.625,7.223,0.271c3.491-1.866,7.042-3.641,10.593-5.447
		c23.624-12.128,48.723-20.013,74.364-26.664c17.154-4.454,34.488-6.651,52.094-7.463c10.774-0.482,21.548-1.144,32.292-1.113
		c24.166,0.12,48.242,1.505,71.746,7.794c5.206,1.414,10.292,3.19,15.408,4.936c2.949,0.993,5.748,2.498,8.126,4.544
		c6.199,5.327,6.169,11.285,0.692,17.846c-1.354,1.625-3.401,2.678-4.966,3.852c0.241,2.077,1.745,2.558,2.708,3.551
		c1.204,1.204,2.438,2.377,3.491,3.702C527.465,321.98,527.916,324.808,529.03,327.336z"/>
	<path fill="#B85A50" d="M509.739,654.013c4.183,25.189-3.551,46.406-21.578,64.071c-7.855,7.734-17.876,5.989-24.617,3.371
		c-3.07-1.174-5.176-3.611-5.808-6.862c-0.572-3.04-1.234-6.23-0.933-9.269c0.782-7.313,1.625-14.626,4.785-21.457
		c4.153-9.028,7.163-18.448,9.028-28.289c1.234-6.44,1.354-12.85,0.843-20.645c5.658,1.866,10.202,3.401,14.746,4.845
		c1.836,0.602,2.769,1.926,3.28,3.611c0.572,1.896,1.324,3.792,1.475,5.748c0.692,10.473,0.752,20.916-2.408,31.178
		c-1.745,5.658-2.919,11.496-4.304,17.274c-0.211,0.813-0.271,1.685,1.113,2.468c3.732-4.063,6.681-8.818,8.667-13.994
		c4.725-12.279,7.403-24.979,6.44-38.25c-0.03-0.572-0.15-1.113-0.12-1.685c0.03-1.685,2.167-2.919,3.732-2.046
		c0.933,0.542,1.866,1.264,2.528,2.107C508.325,648.506,509.258,651.154,509.739,654.013z"/>
	<path d="M461.828,410.969c0.15,1.745-0.15,3.34-0.963,4.875c-0.421,0.271-0.903,0.752-1.264,0.692
		c-0.451-0.09-1.053-0.572-1.174-0.993c-0.662-2.167-1.445-4.334-1.655-6.531c-0.813-8.667-1.445-17.365-2.137-26.032
		c-0.09-1.294,0.602-2.197,1.836-2.347c1.294-0.15,2.167,0.843,2.347,1.956c0.782,5.537,1.535,11.105,2.137,16.672
		C461.377,403.145,461.497,407.087,461.828,410.969z"/>
	<path d="M461.287,1071.636c0.181,1.414,0.361,2.799,0.542,4.213c-2.498-0.843-4.785-0.843-6.771-0.271
		c-0.843-0.271-1.715-0.512-2.558-0.752c-0.301-2.287-0.602-4.544-0.873-6.832C454.846,1069.259,458.067,1070.463,461.287,1071.636z
		"/>
	<path d="M451.626,1067.995c0.271,2.287,0.572,4.544,0.873,6.832l-0.873,2.347c-1.174-0.451-2.377-0.903-3.551-1.354
		c-24.166-9.42-47.369-20.555-69.428-33.285l1.204-2.077c-0.15-2.468-0.301-4.936-0.451-7.403
		c22.752,13.362,46.737,25.009,71.806,34.789C451.355,1067.905,451.476,1067.965,451.626,1067.995z"/>
	<path fill="#E8BF80" d="M451.626,1067.995c-0.15-0.03-0.271-0.09-0.421-0.15c-25.069-9.781-49.054-21.427-71.806-34.789
		c-0.331-5.297-0.692-10.623-1.264-15.92c-1.896-17.726-2.498-35.602-3.732-53.388c-0.09-1.384-0.512-2.799-1.083-4.033
		c-0.301-0.572-1.384-1.114-2.046-1.083c-0.692,0.06-1.655,0.692-1.956,1.324c-1.234,2.618-1.113,5.507-1.053,8.336
		c0.361,19.531-0.241,39.063,1.986,58.564c0.03,0.241,0.06,0.512,0.06,0.752c-85.589-52.756-153.031-130.34-194.08-224.807
		c-11.346-26.122-20.374-52.846-27.085-79.961c1.715-1.776,3.461-3.521,5.206-5.297c2.167-2.227,4.183-4.604,6.35-6.862
		c1.204-1.294,2.588-1.023,3.702,0.12c1.174,1.204,2.167,2.588,3.25,3.882c4.544,5.447,8.848,11.105,13.693,16.281
		c7.584,8.065,15.739,15.529,24.076,22.782c14.807,12.911,30.125,25.039,47.549,34.248c9.028,4.785,18.027,9.54,27.446,13.543
		c11.285,4.815,22.962,8.246,34.609,11.797c13.874,4.213,28.169,6.801,42.614,8.065c14.987,1.354,30.034,1.053,45.022-0.572
		c12.158-1.324,24.256-2.648,36.023-6.23c2.077-0.602,4.243-1.776,6.862-0.662c0.09,2.709,0.271,5.507,0.271,8.306
		c-0.03,13.332-0.15,26.634-0.181,39.936c-0.09,16.733,0.331,33.495-0.271,50.228c-0.813,22.962-1.264,45.894-0.12,68.826
		c1.234,24.948,2.317,49.867,4.936,74.695C450.633,1059.96,451.115,1063.992,451.626,1067.995z"/>
	<path fill="#2A6172" d="M444.404,765.333c3.762-0.451,4.183,0.06,3.852,4.243c-0.331,4.243-0.602,8.487-0.843,12.73
		c-0.301,5.658-0.662,11.316-0.813,16.973c-0.06,2.347-0.933,3.672-3.16,4.334c-7.072,2.077-14.054,4.183-21.397,5.447
		c-12.88,2.197-25.851,3.341-38.852,3.792c-14.175,0.482-28.379-0.211-42.343-3.07c-14.987-3.07-29.824-6.771-44.329-11.797
		c-12.098-4.213-23.444-10.021-34.91-15.619c-15.89-7.794-29.944-18.177-43.276-29.703c-11.376-9.811-22.962-19.381-32.863-30.727
		c-4.845-5.568-9.54-11.255-14.265-16.883c-1.625-1.956-1.896-4.063-0.391-6.26c1.113-1.625,2.167-3.341,3.34-4.905
		c3.942-5.236,7.644-10.593,9.751-16.853c0.15-0.421,0.813-0.692,1.264-1.023c1.384-0.241,1.926,0.933,2.678,1.655
		c19.351,19.02,41.35,34.488,65.065,47.429c17.184,9.359,34.699,18.177,52.846,25.49c25.4,10.262,51.703,16.672,79.299,17.605
		c19.622,0.662,39.093,0.15,58.504-2.739C443.832,765.424,444.133,765.363,444.404,765.333z"/>
	<path d="M414.42,796.744c6.665,1.904,10.08,8.176,8.734,15.137c-0.164,0.887-0.558,1.773-0.854,2.627
		c-0.854,2.66-1.51,5.516-3.973,7.158c-2.725,1.872-3.021,4.433-2.692,7.322l-6.403,0.328c-0.066-0.427-0.131-0.821-0.263-1.248
		c-0.23-0.854-0.887-1.576-1.346-2.364c-0.493-0.788-1.116-1.543-1.445-2.364c-1.346-3.546-0.591-5.812,2.955-7.453
		c2.627-1.215,4.991-2.463,5.91-5.286c0.788-1.904-0.099-3.743-2.101-4.531c-4.695-1.839-8.865-1.018-12.182,3.678
		c-2.66,3.776-6.042,5.024-10.179,5.418c-1.839,0.164-3.71,0.23-5.549,0.23c-13.627,0.197-27.22,0.361-40.847,0.493
		c-5.877,0.033-11.755,0.066-17.632,0c-2.955,0-5.451-0.788-6.14-4.334c-0.591-3.152-2.758-5.451-5.155-7.486
		c-1.675-1.412-3.382-1.281-5.089-0.164c-1.675,1.084-2.824,2.463-2.266,4.597l-7.421,0.525c0-0.295-0.066-0.624-0.131-0.952
		c-0.722-3.448-0.033-6.665,1.97-9.719c3.415-5.089,11.656-7.289,17.041-2.364c2.331,2.167,4.17,4.531,5.516,7.322
		c1.116,2.233,2.66,2.955,5.188,2.922c12.018-0.131,24.068-0.066,36.118-0.099c6.797,0,13.561,0,20.358,0.033
		c3.284,0,5.845-0.952,7.946-3.776C399.612,795.496,406.737,794.544,414.42,796.744z"/>
	<path d="M416.16,835.456c0.033,5.582-3.152,9.161-7.749,11.689c-2.266,1.248-4.728,1.182-7.158,0.197
		c-3.809-1.576-7.027-3.842-8.865-7.749c-1.609-3.481-4.334-4.663-8.176-4.695c-6.173-0.066-12.346-0.821-18.486-1.149
		c-11.427-0.525-22.82-0.952-34.247-1.412c-1.543-0.066-3.086-0.033-4.63-0.033c-3.251-0.033-5.648,0.788-7.683,3.907
		c-3.546,5.451-8.964,8.307-15.728,8.242c-3.251-0.033-5.976-1.149-8.209-3.579c-2.134-2.298-3.743-4.925-4.958-7.782
		c-2.266-5.319-0.854-11.098,3.579-15.006c1.149-1.018,2.266-2.134,3.546-2.955c2.43-1.543,3.415-3.448,3.086-6.107l7.421-0.525
		c0.624,2.397,1.445,4.761,1.937,7.158c0.394,1.97-0.296,3.809-2.233,4.63c-3.218,1.379-5.943,3.284-8.176,5.943
		c-2.167,2.561-2.495,4.761-1.116,6.698c1.773,2.495,4.203,2.266,6.698,1.74c2.2-0.427,4.072-1.478,5.516-3.218
		c1.215-1.412,2.463-2.791,3.48-4.334c1.872-2.857,4.466-4.137,7.815-4.17c1.543,0,3.086-0.197,4.63-0.131
		c14.546,0.525,29.059,1.215,43.605,1.543c7.092,0.164,14.152,1.872,21.277,0.394c2.036-0.427,3.645,0.69,4.433,2.561
		c0.722,1.707,0.952,3.612,1.707,5.286c1.576,3.612,5.352,5.91,7.946,5.057c2.594-0.788,4.301-4.728,3.809-8.34l6.403-0.328
		C415.865,831.155,416.16,833.289,416.16,835.456z"/>
	<path fill="#FFFFFF" d="M412.943,806.069c2.003,0.788,2.889,2.627,2.101,4.531c-0.919,2.824-3.284,4.072-5.91,5.286
		c-3.546,1.642-4.301,3.907-2.955,7.453c0.328,0.821,0.952,1.576,1.445,2.364c0.46,0.788,1.116,1.51,1.346,2.364
		c0.131,0.427,0.197,0.821,0.263,1.248c0.493,3.612-1.215,7.552-3.809,8.34c-2.594,0.854-6.37-1.445-7.946-5.057
		c-0.755-1.675-0.985-3.579-1.707-5.286c-0.788-1.872-2.397-2.988-4.433-2.561c-7.125,1.478-14.185-0.23-21.277-0.394
		c-14.546-0.328-29.059-1.018-43.605-1.543c-1.543-0.066-3.086,0.131-4.63,0.131c-3.349,0.033-5.943,1.313-7.815,4.17
		c-1.018,1.543-2.266,2.922-3.48,4.334c-1.445,1.74-3.316,2.791-5.516,3.218c-2.495,0.525-4.925,0.755-6.698-1.74
		c-1.379-1.937-1.051-4.137,1.116-6.698c2.233-2.66,4.958-4.564,8.176-5.943c1.937-0.821,2.627-2.66,2.233-4.63
		c-0.493-2.397-1.313-4.761-1.937-7.158c-0.558-2.134,0.591-3.513,2.266-4.597c1.707-1.116,3.415-1.248,5.089,0.164
		c2.397,2.036,4.564,4.334,5.155,7.486c0.69,3.546,3.185,4.334,6.14,4.334c5.877,0.066,11.755,0.033,17.632,0
		c13.626-0.131,27.22-0.296,40.847-0.493c1.839,0,3.71-0.066,5.549-0.23c4.137-0.394,7.519-1.642,10.179-5.418
		C404.077,805.051,408.247,804.23,412.943,806.069z"/>
	<path d="M391.196,489.757c2.468,2.347,3.31,5.598,1.655,6.651c-2.016,1.294-3.792,0-5.447-1.023
		c-16.251-9.931-33.345-11.617-51.221-5.086c-2.618,0.963-5.026,2.528-7.494,3.912c-2.678,1.535-5.267,3.25-7.975,4.815
		c-0.271,0.15-0.963-0.211-1.384-0.482c-0.15-0.09-0.271-0.572-0.181-0.782c0.421-1.023,0.752-2.167,1.445-3.009
		c11.285-14.265,25.671-20.856,43.968-17.335c2.769,0.542,5.477,1.414,8.216,2.107c6.5,1.565,11.827,5.297,17.094,9.179
		C390.324,489.035,390.775,489.366,391.196,489.757z"/>
	<path d="M379.851,1040.458l-1.204,2.077c-93.173-53.659-166.483-135.546-210.271-236.333
		c-10.864-24.979-19.652-50.499-26.333-76.38l0.331-0.09c2.257-2.287,4.514-4.604,6.771-6.892
		c6.711,27.115,15.739,53.839,27.085,79.961c41.049,94.467,108.491,172.051,194.08,224.807c0.271,2.498,0.482,4.966,0.692,7.433
		C374.073,1036.757,377.022,1038.562,379.851,1040.458z"/>
	<path d="M379.399,1033.055c0.15,2.468,0.301,4.936,0.451,7.403c-2.829-1.896-5.778-3.702-8.848-5.417
		c-0.211-2.468-0.421-4.936-0.692-7.433C373.32,1029.444,376.33,1031.279,379.399,1033.055z"/>
	<path d="M378.135,1017.135c0.572,5.297,0.933,10.623,1.264,15.92c-3.07-1.776-6.079-3.611-9.089-5.447
		c0-0.241-0.03-0.512-0.06-0.752c-2.227-19.501-1.625-39.033-1.986-58.564c-0.06-2.829-0.181-5.718,1.053-8.336
		c0.301-0.632,1.264-1.264,1.956-1.324c0.662-0.03,1.745,0.512,2.046,1.083c0.572,1.234,0.993,2.648,1.083,4.033
		C375.637,981.533,376.239,999.409,378.135,1017.135z"/>
	<path d="M233.35,302.478c-1.144,1.565-2.317,3.16-3.461,4.755c-2.077,0.06-4.063,0.211-6.019,0.482
		c-1.384-0.391-2.769-0.692-4.183-0.963c1.655-2.377,3.34-4.725,5.026-7.042C227.662,300.462,230.551,301.365,233.35,302.478z"/>
	<path d="M224.713,299.71c-1.685,2.317-3.371,4.665-5.026,7.042c-4.484-0.843-9.089-1.053-13.753-0.512
		c-9.721,1.113-18.689,4.815-26.814,10.292c-10.413,6.982-19.351,15.679-27.958,24.768c-9.751,10.262-18.809,21.066-27.145,32.592
		c-10.804,14.927-21.488,29.944-30.696,45.924c-11.978,20.735-20.675,42.885-28.831,65.335c-3.852,10.623-5.628,21.367-5.327,32.532
		c0.301,10.593,2.077,20.856,8.005,30.034c4.484,6.922,9.089,13.844,15.89,18.629c8.366,5.868,17.425,10.623,27.386,13.362
		c3.551,0.963,7.163,1.655,10.774,2.438c1.715,0.391,3.431,0.722,5.176,1.053l-0.271,2.137c-0.06,1.715-0.12,3.431-0.15,5.116
		c-10.112-1.836-19.742-5.176-29.222-9.058c-18.237-7.403-32.352-19.712-40.899-37.739c-6.561-13.844-6.771-28.53-4.665-43.366
		c1.625-11.285,5.507-21.909,9.841-32.472c5.146-12.61,9.991-25.34,16.311-37.438c5.086-9.811,10.623-19.321,16.432-28.74
		c7.283-11.887,15.8-22.872,23.865-34.157c10.714-15.047,22.782-29.071,36.023-41.892c11.677-11.316,24.587-21.066,40.417-26.122
		c6.892-2.197,13.904-2.769,21.006-1.685C218.363,298.295,221.583,298.927,224.713,299.71z"/>
	<path d="M223.87,307.715c-1.926,0.271-3.822,0.662-5.718,1.204c0.512-0.722,1.023-1.445,1.535-2.167
		C221.102,307.023,222.486,307.323,223.87,307.715z"/>
	<path d="M189.171,451.747c1.414,0.843,1.896,2.799,0.993,4.544c-0.933,1.715-1.986,3.431-3.25,4.936
		c-3.491,4.093-6.109,4.695-11.978,2.678c-2.167-0.692-4.243-2.408-5.387-5.267c-1.294-3.16-2.107-6.47-2.408-9.841
		c-0.271-2.528,0.843-4.665,2.317-4.996c1.956-0.391,4.454,1.234,5.086,3.461c0.542,1.896,0.873,3.882,1.414,5.778
		c0.331,1.053,0.873,2.077,1.445,3.04c0.482,0.813,1.445,1.023,2.137,0.421c1.685-1.475,3.13-3.25,4.875-4.665
		C185.861,450.664,187.606,450.815,189.171,451.747z"/>
	<path fill="#8DBA92" d="M178.066,648.356c1.053,12.61-2.468,23.564-9.299,33.706c-6.952,10.292-14.295,20.254-22.24,29.764
		c-8.848-39.574-12.85-79.871-11.948-120.168c12.489,1.234,24.738,0.963,36.475-4.304c2.377-1.083,3.852-0.331,4.123,2.408
		c0.752,7.042,1.445,14.114,1.715,21.187C177.404,623.407,177.013,635.957,178.066,648.356z"/>
	<path d="M149.145,722.84c-2.257,2.287-4.514,4.604-6.771,6.892c-0.813-3.401-1.625-6.831-2.468-10.232
		c2.257-2.528,4.484-5.086,6.621-7.674C147.37,715.497,148.212,719.168,149.145,722.84z"/>
	<path d="M146.527,711.825c-2.137,2.588-4.364,5.146-6.621,7.674c0.843,3.401,1.655,6.831,2.468,10.232l-0.331,0.09
		c-11.827-45.714-17.184-92.541-16.071-139.368c2.227,0.421,4.484,0.782,6.741,1.023c0.632,0.06,1.264,0.12,1.866,0.181
		C133.677,631.954,137.679,672.251,146.527,711.825z"/>
	<path d="M134.67,587.835c-0.03,1.264-0.06,2.558-0.09,3.822c-0.602-0.06-1.234-0.12-1.866-0.181
		c-2.257-0.241-4.514-0.602-6.741-1.023c0.03-1.685,0.09-3.401,0.15-5.116c1.866,1.565,4.394,2.558,7.463,2.528
		C133.948,587.865,134.309,587.865,134.67,587.835z"/>
	<path d="M110.203,523.975c1.234,0.542,1.384,2.618,0.391,3.611c-1.053,1.083-2.257,1.715-3.732,1.836
		c-5.206,0.482-9.57-1.264-12.519-5.598c-2.016-2.919-4.153-5.086-7.945-5.658c-1.806-0.241-3.491-1.776-5.146-2.859
		c-2.287-1.565-3.401-3.822-3.009-6.591c0.482-3.641,1.204-7.253,1.595-9.66c1.234-3.009,1.866-4.905,2.739-6.681
		c0.843-1.715,2.408-2.347,4.243-1.806c1.776,0.542,2.919,1.806,2.859,3.732c-0.06,1.685-0.301,3.401-0.662,5.056
		c-0.451,2.197-1.114,4.394-1.625,6.591c-0.331,1.384-0.782,3.341,0.331,4.033c1.986,1.204,2.829-0.903,3.762-2.257
		c1.414-2.107,3.22-1.685,5.236-0.993c2.167,0.752,3.371,1.986,3.28,4.334c-0.06,1.414-0.15,2.829-0.06,4.243
		c0.421,5.236,1.565,6.41,7.072,7.614C108.096,523.162,109.18,523.523,110.203,523.975z"/>
</g>
</svg>
